<?xml version="1.0" encoding="UTF-8"?>
<!DOCTYPE svg  PUBLIC '-//W3C//DTD SVG 1.1//EN'  'http://www.w3.org/Graphics/SVG/1.1/DTD/svg11.dtd'>
<svg enable-background="new 0 0 2675.429 1407.224" version="1.1" viewBox="0 0 2675.429 1407.224" xml:space="preserve" xmlns="http://www.w3.org/2000/svg">
	<path d="m2611.7 556.27c-13.412-29.044-30.571-55.827-51.016-80.34-6.834-8.193-12.99-16.634-18.677-25.599-16.69-26.31-32.541-53.204-52.485-77.312-4.76-5.754-9.955-10.92-16.957-13.946-4.812-2.08-9.705-2.364-13.541 1.4-14.747 14.473-32.603 25.026-48.082 38.598-8.557 7.503-16.882 15.812-29.453 17.038-9.874 0.963-19.828 2.298-28.248 8.533-2.125 1.573-4.959 1.029-7.446 1.523-11.47 2.274-23.219-0.706-34.402 1.044-15.14 2.369-30.15 5.812-45.295 8.512-18.735 3.34-37.174 6.819-56.292 4.749-5.075-0.55-10.482-1.008-15.358 0.123-15.644 3.63-31.907 3.737-47.3 8.76-5.469 1.785-11.388 3.95-16.902 3.5-15.318-1.251-29.187 1.341-43.746 7.024-14.186 5.537-28.95 10.235-43.531 15.086l0.121-0.232c-0.115 0-0.23 1e-3 -0.345 1e-3 -0.561-0.578-1.122-1.156-1.682-1.734-0.017 0.58-0.033 1.159-0.05 1.739h-0.179c-0.676-0.687-1.157-1.367-0.025-2.001 0.085 0.087 0.17 0.175 0.254 0.262 4e-3 -0.136 8e-3 -0.272 0.012-0.409l-0.287 0.125c-1.43-4.828 2.409-7.143 5.104-9.504 19.484-17.073 30.323-41.514 49.985-58.452 2.263-1.95 3.305-5.443 4.604-8.357 1.782-3.998 4.448-7.103 8.382-8.944 22.26-10.413 42.024-24.651 61.279-39.705 7.609-5.949 15.721-10.962 24.791-14.66 11.056-4.508 21.162-10.855 29.427-19.704 5.56-5.953 12.055-10.622 19.308-14.215 10.715-5.309 20.279-12.318 29.917-19.315 11.862-8.612 23.398-18.064 39.236-18.7 6.448-0.259 11.59-3.168 14.174-9.788 1.967-5.04 4.931-4.086 7.78-0.496 3.166 3.989 3.146 9.009 4.458 13.603 2.098 7.345 5.113 8.53 10.73 3.647 9.229-8.023 18.967-15.327 28.903-22.434 3.914-2.799 7.719-4.095 12.452-3.941 17.678 0.575 35.228 2.377 52.759 4.652 9.683 1.257 18.681 4.133 27.569 8.144 20.554 9.276 40.005 20.549 59.579 31.637 7.185 4.07 14.683 4.953 21.768-0.31 7.099-5.274 9.828-12.496 8.408-21.211-1.101-6.759-3.839-12.897-7.403-18.699-21.1-34.35-48.802-62.788-79.351-88.685-12.251-10.385-24.788-20.477-34.361-33.613-14.912-20.46-34.293-36.447-53.7-52.208-9.664-7.848-21.71-5.613-28.694 4.544-7.159 10.411-15.957 19.29-24.045 28.832-5.624 6.635-10.915 13.432-14.676 21.389-9.406 19.901-27.894 29.49-45.82 39.585-1.772 0.998-4.451 0.989-6.58 0.645-9.582-1.549-17.394 2.577-23.471 8.848-10.76 11.103-23.371 18.484-37.5 24.567-25.393 10.933-47.916 27.253-72.01 40.646-18.806 10.453-38.432 19.532-56.101 31.869-10.459 7.303-21.521 12.41-33.68 16.05-15.336 4.59-27.533 13.671-34.574 28.624-1.375 2.92-2.589 6.182-5.519 7.73-8.37 4.421-12.664 12.342-18.231 19.397-6.647 8.425-13.164 18.468-25.074 19.731-18.486 1.961-37.146 0.925-55.75 2.132-15.702 1.019-31.099-5.858-47.12-5.644-3.527 0.047-7.007-1.205-10.055-3.074-5.478-3.359-11.404-3.655-17.63-3.588-16.352 0.177-32.22-4.594-48.591-5.041-5.147-0.141-10.522-3.051-15.22-5.705-6.072-3.43-12.174-5.668-19.184-5.221-5.104 0.325-9.273-1.503-12.946-5.162-7.501-7.472-14.906-15.102-22.986-21.913-8.128-6.851-15.249-14.662-22.927-21.874-15.064-14.148-32.236-25.398-54.542-19.086-10.031 2.839-18.856 1.879-27.757-3.035-9.102-5.024-18.584-5.927-28.833-3.184-30.369 8.129-60.989 15.235-90.544 26.307-18.856 7.064-38.374 10.549-58.268 3.208-4.648-1.715-9.648-2.169-14.233-0.536-18.273 6.508-32.877-2.93-46.38-12.129-11.833-8.061-22.402-17.701-35.395-24.519-24.201-12.698-44.057-32.119-67.631-45.971-2.416-1.419-4.552-3.699-6.167-6.03-6.94-10.016-16.836-15.478-27.998-19.452-7.3-2.599-14.898-3.954-22.239-6.207-14.069-4.318-27.419-3.223-39.892 4.383-10.88 6.634-22.669 8.533-35.053 8.674-7.698 0.087-15.665-1.379-23.034 0.977-12.005 3.838-24.19 2.529-36.343 2.845-6.799 0.177-11.579-2.917-14.772-8.9-7.288-13.656-18.529-24.099-30.635-32.891-39.543-28.719-94.453-20.856-125.22 17.491-6.468 8.064-13.413 12.192-24.016 13.499-10.171 1.253-22.339 0.743-28.931 12.118-1.338 2.308-4.338 2.702-6.973 2.546-6.64-0.393-12.944-0.392-16.139 7.16-0.773 1.826-2.969 2.682-4.91 2.589-11.48-0.552-22.459 7.948-34.355 1.767-1.543-0.802-4.422 0.346-6.436 1.183-6.708 2.787-13.736 3.227-20.824 3.197-11.568-0.05-23.141-0.548-34.701-0.306-6.779 0.142-10.4-1.923-12.35-8.971-3.73-13.477-13.091-17.382-24.991-9.975-10.813 6.73-22.14 11.422-34.37 14.545-6.832 1.745-13.454 4.33-20.135 6.639-5.956 2.059-10.612 6.091-10.411 12.479 0.315 10.012-4.096 16.027-12.475 20.77-5.655 3.201-10.255 8.435-9.537 15.648 0.663 6.659 1.984 13.354 3.919 19.76 2.342 7.75 2.915 11.362-4.151 15.246-16.725 8.363-34.724 14.193-52.937 18.612-16.557 4.018-33.158 6.177-49.309 11.841-12.101 4.243-25.276 8.777-28.227-8.368-6.256-36.342-19.204-70.274-40.465-100.19-41.262-58.054-96.176-91.145-169.61-89.39-44.316 1.058-84.427 18.499-118.12 46.841-42.55 35.793-69.149 86.253-79.816 140.4-11.65 59.137-4.379 122.43 23.703 176.07 28.091 53.652 76.248 96.919 135.97 111.09 11.097 2.633 16.181 6.5 13.466 18.227-2.13 9.201-2.494 18.408-2.467 27.748 0.02 7.098 2.9 12.269 8.911 15.978 6.563 4.05 13.177 8.063 19.428 12.566 18.263 13.154 15.046 13.97 34.247-2.655 7.073-6.124 8.451-6.274 12.134 2.549 13.738 32.916 28.236 65.575 40.295 99.104 5.602 15.576 13.84 27.992 26.027 38.278 4.417 3.728 5.284 7.758 5.612 13.341 0.987 16.814-3.232 33.096-3.871 49.688-0.23 5.967-2.953 9.191-8.188 11.678-22.576 10.725-42.378 25.655-59.826 43.258-35.518 35.833-62.699 76.967-78.605 125.41-17.976 54.749-22.134 109.43-1.984 164.33 17.885 48.723 55.124 87.355 104.58 104.35 64.729 22.241 134.01 1.199 188.19-36.916 23.688-16.664 44.774-36.925 62.52-59.805 42.054-54.222 65.52-121.75 63.431-190.22-1.794-58.82-28.886-119.8-79.924-151.85-4.817-3.025-9.098-6.851-8.155-13.112 1.673-11.109 3.718-22.178 6.103-33.156 1.147-5.279 4.937-6.926 9.288-3.167 13.444 11.615 30.867 17.231 43.842 29.635 6.093 5.824 11.372 3.643 12.784-4.56 0.487-2.825 0.169-5.778 0.433-8.654 1.095-11.939-3.095-23.722-1.527-35.549 1.742-13.147 1.502-26.28 1.607-39.444 0.081-10.039 3.29-12.331 13.191-9.374 2.15 0.642 4.189 1.652 6.328 2.343 17.271 5.58 34.54 11.245 51.248-1.668 1.216-0.94 2.935-1.286 4.468-1.75 17.891-5.414 35.057-12.619 51.742-20.989 10.366-5.2 20.984-9.85 32.059-13.214 52.298-15.887 99.738-42.693 148.79-65.87 7.052-3.332 11.884-8.756 14.232-16.177 3.388-10.709 9.716-19.41 17.527-27.298 7.692-7.767 14.826-15.973 20.103-25.727 7.733-14.292 18.689-26.055 30.372-37.189 4.883-4.653 10.634-8.894 13.453-15.011 6.624-14.376 19.066-15.55 32.277-15.564 2.558-3e-3 5.115 0.462 7.675 0.69 6.587 0.588 10.851-2.087 13.505-8.358 8.686-20.524 22.303-36.458 42.965-46.021 6.253-2.894 11.737-3.387 18.418-1.335 19.064 5.855 38.529 10.254 58.673 9.065 24.447-1.442 48.762-0.596 73.049 2.429 8.259 1.029 16.809-0.157 24.819 2.757 8.324 3.029 16.896 3.232 25.609 3.596 18.093 0.757 35.715-4.178 53.755-3.814 5.31 0.107 10.207 0.669 14.409 4.236 12.292 10.435 26.139 18.666 39.365 27.784 16.739 11.54 33.742 22.426 54.072 26.702 2.135 0.449 4.165 1.709 6.074 2.871 20.963 12.762 38.853 2.369 47.584-14.788 8.433-16.569 15.443-33.964 16.15-53.091 0.094-2.533 0.646-5.12 1.425-7.54 1.395-4.331 4.726-5.009 7.01-1.487 6.561 10.115 15.983 15.19 27.285 18.049 3.266 0.826 6.175 3.38 9.039 5.434 17.592 12.617 37.153 16.687 58.451 14.096 13.53-1.646 26.46-4.853 38.555-11.407 8.188-4.437 16.5-3.783 24.97 0.256 16.171 7.711 32.468 15.151 48.872 22.387 27.427 12.099 55.393 22.39 84.045 30.913 8.701 2.588 16.565 9.036 24.853 9.685 13.745 1.077 24.955 7.767 37.335 11.748 2.143 0.689 5.029 0.99 5.857 3.011 3.723 9.089 12.696 11.011 19.893 15.504 21.743 13.574 45.428 16.599 69.571 10.44 35.298-9.005 67.783-25.473 100.31-41.523 3.847-1.898 7.735-3.221 11.93-3.346 11.678-0.349 22.86-3.317 34.074-6.14 21.166-5.329 42.21-11.2 63.506-15.941 39.479-8.789 79.867-12.918 119.15-22.795 9.266-2.33 18.266-6.124 28.231-2.683 3.259 1.125 6.975-0.43 10.179-2.084 3.411-1.761 6.868-2.324 9.787 0.65 5.542 5.648 10.644 4.627 15.878-0.41 1.304-1.255 3.315-2.886 4.976-0.969 1.454 1.679-0.132 3.621-1.102 5.223-2.868 4.74-7.282 8.112-10.911 12.18-2.606 2.921-5.506 6.309-3.227 10.245 2.572 4.441 7.222 3.267 11.318 2.216 5.037-1.292 9.391-4.099 13.921-6.534 9.737-5.233 12.13-4.56 18.142 4.46 3.92 5.882 7.943 11.695 11.964 17.509 0.9 1.302 2.154 3.276 3.683 2.431 2.127-1.176 1.014-3.377 0.041-5.023-2.125-3.595-4.482-7.057-6.533-10.693-1.795-3.18-6.057-6.183-3.146-10.205 2.78-3.842 7.229-1.316 10.8-0.695 12.055 2.096 24.119 4.266 36.389 3.407 14.043-0.982 25.701 4.198 36.308 12.739 15.014 12.091 30.045 24.161 45.106 36.195 5.403 4.317 11.406 7.11 18.533 7.073 11.688-0.06 18.656-7.109 18.255-18.739-0.259-7.542-2.867-14.522-5.959-21.216zm-2077.7-96.247l-0.409 0.622-0.229-0.708 0.638 0.086zm-4.614 13.364c4.532 0.299 4.582 6.171 5.105 10.168 2.089 15.967 6.695 31.287 10.773 46.81 3.301 12.569 3.775 26.024 4.335 39.136 0.752 17.634 1e-3 35.33 0.607 52.975 0.534 15.564-5.021 30.452-4.298 45.966 0.074 1.593 0.123 3.187 0.184 4.781v0.17c-0.166 0.191-0.34 0.384-0.318 0.55 0.049 0.37 0.178 0.728 0.313 1.086 0 0.155-1e-3 0.31-1e-3 0.465 0.606 1.953 1.393 3.911-0.058 5.824-5.54 4.674-7.837 14.189-5.088 22.105 0.834 2.403 2.107 4.682 3.391 6.895 5.339 9.196 5.326 9.49-4.361 13.982-6.7 3.107-10.95 8.858-15.332 14.307-3.266 4.061-0.375 5.58 3.623 5.804 10.963 0.614 14.089 4 13.852 14.993-0.3 13.913-7.168 20.526-21.264 22.143-12.698 1.456-25.298 3.856-37.887 6.137-12.23 2.216-24.222 3.653-35.095-4.517-1.516-1.139-3.331-2.075-5.153-2.578-15.512-4.281-12.802-8.887-9.04-20.634 24.1-75.263 48.328-150.48 72.526-225.71 5.509-17.126 11.009-34.255 16.642-51.341 1.265-3.833 1.838-9.824 6.544-9.514zm22.106 349.02c-0.664 4.386-1.183 8.524-1.95 12.616-0.49 2.617-1.721 5.113-4.667 5.423-2.954 0.31-4.514-2.155-5.885-4.293-3.443-5.37 2.043-18.576 8.437-19.782 5.739-1.082 3.732 3.497 4.065 6.036zm-107.52 440.63l-11.001-89.94 2.966-24.245 31.604 103.2c-7.514 4.044-15.532 7.773-23.569 10.984zm-16.536-118.98l-39.713 129.68c-1.063-0.044-2.127-0.065-3.189-0.138-9.85-0.672-19.556-2.456-28.864-5.309l55.22-130.26 11.548-10.779c-0.037 3.58 0.997 5.255 3.722 6.368l1.276 10.433zm-127.85 84.55c-4.351-6.219-7.751-12.795-10.435-19.606l112.14-72.752-13.312 20.479-83.642 78.069c-1.647-1.995-3.248-4.04-4.752-6.19zm61.936-267.5c0.997-1.171 2.062-2.29 3.222-3.218l17.224 33.843c0.953 11.913 1.578 23.85 1.992 35.8l-37.007-49.063c4.781-5.832 9.662-11.602 14.569-17.362zm35.669 2.61c-0.082-1.779-1.437-4.553 0.802-5.121 2.76-0.699 3.034 2.609 3.679 4.403 1.514 4.213 2.801 8.541 3.763 12.914 3.505 15.92 6.703 31.908 10.296 47.806 1.679 7.429-0.179 13.959-3.771 20.27-0.205 0.359-0.408 0.739-0.614 1.127l-1.444-2.837-11.284-48.774c-0.48-9.928-0.972-19.857-1.427-29.788zm-0.914-91.649c0.327-3.263 2.289-5.259 5.657-5.099 3.126 0.149 5.395 1.644 5.648 5.239-0.81 3.75-3.7 4.984-6.992 4.934-2.921-0.044-4.613-2.071-4.313-5.074zm47.912 69.968c-0.113-3.469 0.532-6.919 3.575-8.069l-1.156 22.256c-3.237-3.839-2.26-9.328-2.419-14.187zm119.98 194.58l-57.963-17.692 62.997 3.33c-1.559 4.815-3.24 9.601-5.034 14.362zm5.664-16.298l-71.434-3.776-20.399-6.227c0.16-0.449 0.339-0.891 0.518-1.333l97.574-12.026c-1.724 7.871-3.822 15.655-6.259 23.362zm-272.04-60.264c1.905-5.606 4.09-11.021 6.466-16.307l68.965 29.311 6.798 5.118c0.319 1.498 0.892 3.018 1.792 4.575 0.524 0.905 0.911 1.832 1.243 2.768l-87.077-20.061c0.597-1.805 1.202-3.607 1.813-5.404zm120.86 59.663c0.832 0.358 1.545 0.869 2.117 1.551l-3.828 2.483 1.711-4.034zm26.308-45.735l-2.688 3.563 0.45-8.664 1.011-1.986c0.443 2.366 0.904 4.72 1.227 7.087zm-1.987-9.93l0.067-1.283c0.043 0.299 0.083 0.598 0.13 0.896l-0.197 0.387zm2.337 12.733c0.095 0.711 0.199 1.461 0.252 2.196l-0.867 3.747c-0.287 0.305-0.628 0.572-1.107 0.74-0.624 0.218-1.16 0.237-1.63 0.115l0.131-2.529 3.221-4.269zm-5.154 3.566l-0.592 0.784c-0.514-0.98-0.953-2.071-1.453-2.936-0.023-0.04-0.047-0.08-0.07-0.121l2.487-4.886-0.372 7.159zm-144.79-13.015l88.311 20.345c0.79 3.568 0.613 7.295 0.448 11.028-0.139 3.154 0.086 5.868 0.69 8.214l-97.556-12.024c2.358-9.285 5.13-18.475 8.107-27.563zm-13.695 55.61l76.078-4.022-77.81 23.75c0.226-6.615 0.829-13.191 1.732-19.728zm0.267-1.984c1.198-8.113 2.863-16.16 4.838-24.141l98.719 12.167c0.178 0.444 0.374 0.874 0.588 1.287l-20.527 6.265-83.618 4.422zm105.21-8.954c0.897 1.232 2.003 2.298 3.328 3.216l-16.77 0.887 13.442-4.103zm29.596 7.177l-2.747 6.479-6.013 3.901 6.825-10.499c0.683-0.011 1.329 0.027 1.935 0.119zm-1.171 7.802l6.202-4.024c0.211 0.53 0.371 1.122 0.482 1.773l-9.482 8.85 2.798-6.599zm19.969 8.875l-0.437 3.574-1.182-3.86c0.541 0.103 1.081 0.198 1.619 0.286zm20.26-2.246c0.588-0.279 1.223-0.458 1.876-0.598l0.929 0.602 11.403 17.542-15.296-14.276-1.008-2.379c0.696-0.269 1.394-0.558 2.096-0.891zm21.597-21.427l12.849 3.922-13.532-0.715c0.166-1.091 0.387-2.162 0.683-3.207zm99.142-17.271l-97.109 11.969c2.036-4.298 4.799-8.338 7.315-12.462 1.799-2.95 2.961-5.976 3.881-9.128l90.181-20.776c-0.716 10.301-2.173 20.424-4.268 30.397zm2.959-56.637c1.357 7.915 2.843 16.144 1.538 24.167l-89.819 20.693c0.328-1.269 0.633-2.558 0.936-3.874 0.589-2.548 1.216-5.085 1.876-7.612l85.136-36.184c0.159 1.353 0.262 2.397 0.333 2.81zm-102.7 36.026c-0.731 1.676-1.497 3.888-4.001 3.165-0.681-0.197-1.131-0.539-1.454-0.958l8.142-8.74c-0.865 2.188-1.744 4.371-2.687 6.533zm-18.601-40.165c-0.083 2e-3 -0.157-0.012-0.237-0.016l3.839-16.595c0.036 3.132 0.084 6.264 0.07 9.396l-3.672 7.215zm10.55-24.309c-0.636-2.236-1.228-4.677-4.13-4.293-0.017 2e-3 -0.03 0.01-0.047 0.012l2.658-11.489c0.472-0.56 0.912-1.364 1.299-2.456 1.204-3.405 0.193-8.33 6.236-7.588 1.864 0.229 4.556 1.761 7.036 3.749l-12.369 24.304c-0.237-0.745-0.47-1.491-0.683-2.239zm23.927-45.343c-4.396-7.88-6.714-16.632-8.438-25.415-0.958-4.88 1.538-6.977 6.594-7.004 5.038 0.185 9.326 2.238 12.945 5.586 0.812 0.751 1.547 1.619 2.292 2.43l-12.849 25.246c-0.192-0.274-0.38-0.55-0.544-0.843zm14.868-22.964c1.759 1.463 3.842 2.082 7.198-0.075 2.869-1.844 3.851 1.879 3.741 3.794-0.489 8.503-3.281 16.459-9.166 22.567-3.62 3.756-10.644 2.907-14.699-0.889l12.926-25.397zm8.09-75.669c-0.212-1.759 0.61-3.282 2.472-3.483 2.55-0.275 3.134 1.634 3.38 3.682-0.057 1.772-0.781 3.309-2.568 3.531-2.59 0.321-3.056-1.831-3.284-3.73zm2.811-44.608c-4.135 0.032-5.044-4.532-5.727-7.806-0.997-4.782 2.942-4.662 5.893-5.092 3.288 0.234 7.516-0.189 7.156 4.217-0.33 4.027-2.503 8.644-7.322 8.681zm-14.829 17.977c-5.421 3.212-9.057 7.986-12.782 12.829-2.63 3.419-6.505 5.161-10.669 6.083-7.733 1.713-10.871-0.5-11.026-8.379-0.146-7.414-0.902-14.678-2.56-21.911-1.893-8.256-0.762-10.078 7.17-12.838 5.185-1.805 10.522-2.842 16.479-2.661 6.291-1.057 10.73 0.959 12.023 8.367 0.595 3.407 2.541 6.556 3.61 9.907 1.036 3.246 0.996 6.682-2.245 8.603zm-47.493 194.12c-1.161-1.12-1.621-3.184-1.794-4.853-0.954-9.227-1.712-18.477-2.397-27.729-0.217-2.92 0.602-5.762 2.09-8.29 2.353-3.997 4.803-6.551 8.053-0.544 0.922 1.704 1.939 2.753 2.931 3.019l-8.883 38.397zm2.17-180.35c-2.505 0.196-3.182-1.327-3.196-3.415-8e-3 -1.225 0.114-2.705 1.504-2.92 2.245-0.347 3.189 1.36 3.76 3.2 0.57 1.837-0.174 2.891-2.068 3.135zm-1.311 88.117c0.111 6.435-5.81 18.45-7.883 17.211-0.219-0.131-0.408-0.274-0.608-0.413l1.264-24.339c0.343-0.016 0.702-0.016 1.086 9e-3 4.785 0.313 5.902 4.222 6.141 7.532zm-16.199 127.25l-3.912 7.687c-2.139-3.701-4.282-7.401-6.481-11.067-5.073-8.456-4.266-18.546 1.771-25.859 2.647-3.206 4.61-2.719 6.681 0.286 1.401 2.034 2.431 4.157 3.115 6.349l-1.174 22.604zm-16.34-53.84c-1.359 2.359-2.942 2.242-4.014 0.963l-3.773-72.637c1.197-0.581 2.554-0.856 4.112-0.675 3.39 0.394 4.638 3.029 5.511 5.898 4.599 15.122 4.963 30.88 6.515 46.412 0.755 7.555-4.727 13.748-8.351 20.039zm-11.64-68.013c0.568-0.902 1.222-1.69 1.951-2.357l3.22 61.984c-2.975-15.236-5.811-30.38-8.527-44.633 0.107-6.052 0.715-10.801 3.356-14.994zm-13.657 58.008l7.055 30.493-6.601-12.97c5e-3 -0.869 0.01-1.738 0.01-2.606 0.084-4e-3 0.167-7e-3 0.251-0.011-0.241-4.969-0.473-9.938-0.715-14.906zm8.894 38.444l1.281 5.538c-1.149 1.495-2.587 2.488-4.68 1.969-3.499-0.868-4.252-5.395-4.564-8.907-0.425-4.784-0.36-9.613-0.459-14.424-5e-3 -0.243-1e-3 -0.487-5e-3 -0.731l8.427 16.555zm-62.363-62.914l38.396 50.904c0.027 0.866 0.06 1.732 0.085 2.599 0.212 7.374-0.174 14.773 1.125 22.084 0.576 3.242 0.363 6.336-0.898 9.163l-56.858-61.029c5.739-8.11 11.844-15.979 18.15-23.721zm-19.305 25.367l57.014 61.197c-0.194 0.303-0.381 0.607-0.603 0.903-1.556 2.071-2.486 4.149-2.853 6.258l-5.713-2.428-60.723-45.714c3.974-6.953 8.305-13.665 12.878-20.216zm-13.847 21.947l54.181 40.789-61.626-26.192c2.302-4.986 4.785-9.851 7.445-14.597zm53.378 91.132l24.391-1.29-109.33 55.768c-0.771-7.773-1.086-15.618-1.136-23.417-0.01-1.605 0.016-3.206 0.051-4.806l86.02-26.255zm28.537-1.196c1.599 0.627 3.383 1.148 5.393 1.56 4.118 0.844 8.27 1.107 12.449 0.437 0.012-2e-3 0.024-3e-3 0.037-5e-3l-8.391 12.907-115.49 74.927c-3.823-10.277-6.046-21.073-7.259-32.05l113.26-57.776zm10.909 16.323l7.278-4.722-3.386 7.987-15.295 14.276 11.403-17.541zm23.535 0.858c0.465 0.112 0.926 0.219 1.387 0.325l-1.419 4.634-0.629-5.139c0.224 0.059 0.421 0.123 0.661 0.18zm3.095 1.464l2.54 8.295-2.54 20.768-2.54-20.768 2.54-8.295zm41.943 112.56c-1.509 0.884-3.053 1.755-4.616 2.616l-32.783-107.05 0.968-7.912c4.33 0.556 8.587 0.533 12.929-0.583l2.649 2.473 40.996 96.703c-6.435 5.035-13.152 9.656-20.143 13.755zm21.745-15.017l-39.062-92.142 17.856 16.666 38.762 59.628c-5.559 5.634-11.418 10.939-17.556 15.848zm18.969-17.282l-34.209-52.624 44.336 41.382c-3.249 3.865-6.622 7.622-10.127 11.242zm11.397-12.749l-50.054-46.719-13.312-20.479 76.449 49.597c-4.076 6.065-8.428 11.958-13.083 17.601zm14.187-19.229l-79.389-51.504c2.7-2e-3 5.609 0.429 8.286 0.321 5.339-0.217 9.241-2.918 7.969-8.395-0.301-1.298-0.472-2.549-0.567-3.774l77.446 39.506c-4.062 8.173-8.669 16.149-13.745 23.846zm20.616-39.068c-1.838 4.527-3.869 9.007-6.026 13.444l-78.364-39.974c7e-3 -0.427 0.028-0.849 0.057-1.269l21.553 1.139 65.412 19.966c-0.857 2.236-1.729 4.468-2.632 6.694zm-63.583-77.003l55.862-42.055c6.697 2.662 13.261 5.426 19.898-2.041 3.542-3.985 5.143 3.786 5.903 9.388l-81.663 34.708zm-1.986-0.967c2.349-8.435 5.054-16.76 8.051-24.987l23.7-25.439c7.755 2.699 15.489 5.457 23.216 8.234 0.24 0.086 0.48 0.179 0.72 0.269l-55.687 41.923zm9.852-29.806c2.317-6.121 4.76-12.199 7.323-18.231 2.014-4.738 6.132-5.319 10.566-3.794 0.662 0.228 1.321 0.465 1.983 0.694l-19.872 21.331zm-6.976-27.784c-5.724 17.724-10.314 35.826-16.796 53.299l-10.7 11.485c-0.047-0.567-0.049-1.15-0.06-1.704-0.07-3.521-0.02-7.044-0.02-12.222 0.584-3.49-0.169-8.538-0.868-13.64-0.086-0.628-0.189-1.294-0.291-1.97l29.111-38.594c0.128 1.108-0.066 2.387-0.376 3.346zm-29.087 32.449c-0.198-2.143-0.138-4.198 0.777-5.6 5.008-7.673 2.801-14.674 0.463-21.73l13.044-25.629c2.726 2.498 4.867 5.38 4.773 7.336-0.275 5.689-0.341 9.384 7.373 7.552 0.933-0.221 1.604-0.083 2.081 0.272l-28.511 37.799zm68.892-167.87c-5.524-1.161-4.983-6.6-5.865-10.411-0.271-2.954 0.415-5.454 3.34-4.737 4.793 1.175 5.763 5.575 6.153 9.756 0.234 2.505-0.301 6.091-3.628 5.392zm5.097-21.222c-0.764-1.023 0.087-1.631 1.043-1.842 1.174-0.258 1.652 0.514 1.875 1.521-0.227 0.552-0.459 1.106-0.69 1.659-0.76-0.433-1.748-0.696-2.228-1.338zm3.163-171.61c3.484-1.309 3.955 0.788 3.759 3.624-0.097 1.409-1.096 2.711-2.214 2.029-2.017-1.231-1.613-3.581-1.545-5.653zm-228.18-142.32l-37.582-122.72 1.139-9.31c4.785-0.296 9.57 0.882 14.087 5.126 0.744 0.699 1.653 1.077 2.637 1.269l46.259 109.12c-8.17 6.485-17.101 12.061-26.54 16.52zm-54.043 11.847l11.917-97.424 11.685 95.525c-5.413 1.013-10.891 1.66-16.403 1.88-2.395 0.095-4.796 0.082-7.199 0.019zm9.377-134.4l2.54-8.295 2.54 8.295-2.54 20.768-2.54-20.768zm-74.805 121.46c-9.293-3.746-17.849-8.727-25.58-14.711l60.444-92.982 17.856-16.666-52.72 124.36zm-50.49-267.95c1.941-3.235 4.077-6.378 6.251-9.482l85.175 91.423c-0.326 0.109-0.68 0.201-1.049 0.284l-20.304-8.63-78.173-58.852c2.525-5.01 5.215-9.936 8.1-14.743zm105.83 68.677c0.44 0.037 0.805 0.174 1.13 0.359l1.618 2.145c0.2 0.52 0.362 1.066 0.503 1.596-0.325 1.596-0.568 3.568-2.383 3.71-3.044 0.239-3.289-2.355-3.444-4.52-0.122-1.703 0.824-3.438 2.576-3.29zm-52.274-122.38l50.344 98.918 3.952 17.083c-1.02 0.171-2.047 0.397-3.064 0.592l-74.941-99.355c7.305-6.515 15.274-12.29 23.709-17.238zm56.129-17.754l7.147 137.59c-0.118-0.181-0.237-0.361-0.355-0.544l-10.716-21.054-25.524-110.32c9.579-3.082 19.467-4.989 29.448-5.67zm37.942 3.389c9.162 2.321 17.866 5.6 26.107 9.654l-23.818 102.95-11.079 21.768 7.001-134.78c0.596 0.142 1.195 0.261 1.789 0.411zm47.905 22.977l-41.914 82.355 21.931-94.796c7.027 3.588 13.695 7.763 19.983 12.441zm-47.456 97.58l-4.716 20.385-3.595 4.766c-0.395-0.439-0.899-0.745-1.469-0.927l0.29-5.576 9.49-18.648zm88.846-51.438l-78.251 83.991-9.721 4.131c-2.158-1.751-4.35-3.462-6.04-5.63l2.272-9.82 73.518-97.468c6.798 7.659 12.885 15.984 18.222 24.796zm24.179 138.15l-34.048-10.392c7.126-1.451 14.255-2.886 21.357-4.444 1.312-0.288 2.49-0.458 3.57-0.544l4.104 0.217c6.071 1.413 6.147 7.952 5.017 15.163zm-279.42-101.03l87.408 37.15 14.478 10.899c-0.273 0.811-0.516 1.661-0.802 2.446l-108.94-25.099c2.132-8.604 4.764-17.087 7.861-25.396zm159.75 43.062c-0.26-0.509-0.488-1.047-0.688-1.611l1.53-2.028-0.842 3.639zm-24.849 0.566l1.145 1.518 0.109 2.091c-0.176 0.064-0.382 0.069-0.626-0.022-0.554-0.207-0.869-1.59-0.918-2.464-0.024-0.392 0.06-0.797 0.29-1.123zm39.127 14.312c-0.371-0.37-0.723-0.776-1.054-1.218l3.849-0.887-2.795 2.105zm105.96-24.766c0.625 4.735-1.692 7.217-6.018 8.311-20.845 5.269-41.561 11.984-63.097 12.72-8.468 0.29-15.818 1e-3 -23.296 4.885-3.574 2.334-8.319 2.582-11.981 0.133l5.944-4.475 98.29-22.644c0.048 0.358 0.111 0.714 0.158 1.07zm-0.45-3.02l-94.135 21.687 19.514-14.691 69.723-29.633c2.12 7.459 3.759 15.028 4.898 22.637zm-98.848 22.772l-8.454 1.948 5.914-6.348 19.256-8.184-16.716 12.584zm-10.181 0.916c-0.496-0.487-1.008-0.959-1.536-1.415l4.725-2.008-3.189 3.423zm-42.364-29.927l-2.219-9.59 5.05 9.922c-0.909-0.291-1.859-0.376-2.831-0.332zm-136.46 3.394l108.51 24.998c-0.09 0.125-0.181 0.25-0.282 0.359-6.003 6.487-5.568 12.122-2.174 18.191l-111.16-13.7c1.037-10.038 2.756-20.015 5.104-29.848zm-5.821 60.257l86.078-4.551-83.72 25.554c-1.179-6.925-1.959-13.918-2.358-21.003zm-0.102-1.965c-0.397-8.654-0.196-17.461 0.647-26.483l112.63 13.882c0.312 0.478 0.638 0.96 0.979 1.445l-20.271 6.187-93.986 4.969zm115.39-9.445c0.641 1.034 1.207 2.123 1.701 3.255l-14.955 0.791 13.254-4.046zm76.202 28.564l6.847 10.533-10.788-10.069c1.313-0.154 2.627-0.308 3.941-0.464zm34.087-72.479l56.993-42.906c2.141 5.34 4.034 10.774 5.662 16.277l-62.655 26.629zm-7.511 3.193l-22.479 9.554 74.855-80.347c4.315 7.314 8.126 14.941 11.377 22.797l-63.753 47.996zm-49.268 2.98c-0.175 0.025-0.349 0.046-0.527 0.089-0.014 3e-3 -0.026 4e-3 -0.039 8e-3l0.625-1.228-0.059 1.131zm-51.974 7.772l-7.762-5.844 9.824 4.175c-0.948 0.201-1.582 0.832-2.062 1.669zm-93.363-67.824l71.569 53.879-80.19-34.082c2.571-6.728 5.437-13.342 8.621-19.797zm70.766 104.22l23.513-1.243c0.039 0.114 0.086 0.224 0.123 0.339l-108.5 55.346c-2.805-8.792-5.04-17.604-6.649-26.51l91.511-27.932zm24.184 1.025c0.496 2.039 0.762 4.181 0.753 6.403-0.019 4.5 2.152 8.565 5.627 11.118l-103.33 67.037c-1.452-3.32-2.893-6.645-4.292-9.987-2.693-6.432-5.092-12.839-7.199-19.252l108.44-55.319zm8.222 18.67c0.43 0.223 0.877 0.421 1.335 0.6l-11.664 17.943-79.204 73.926c-5.866-7.577-10.843-15.896-14.825-24.767l104.36-67.702zm-14.778 25.386l-56.037 86.204c-6.46-5.188-12.307-11.092-17.498-17.568l73.535-68.636zm10.415-12.411l7.644-11.758c0.458 0.108 0.923 0.198 1.4 0.262 0.968 0.13 1.932 0.247 2.896 0.352l-11.94 11.144zm35.859-14.84l-0.954 3.114-0.331-2.709c0.427-0.141 0.856-0.274 1.285-0.405zm4.029-1.044c0.606-0.124 1.213-0.229 1.82-0.316l-0.547 4.473-1.273-4.157zm70.228 112.2c-0.6 0.508-1.22 0.992-1.829 1.49l-45.629-107.63 17.856 16.666 47.026 72.341c-5.388 6.118-11.199 11.862-17.424 17.135zm18.767-18.679l-42.402-65.227 53.913 50.321c-3.572 5.168-7.416 10.145-11.511 14.906zm12.626-16.557l-59.476-55.513-10.639-16.366c1.026-0.124 2.052-0.252 3.077-0.382l79.234 51.403c-3.606 7.202-7.685 14.176-12.196 20.858zm16.344-29.687c-1.039 2.372-2.143 4.717-3.279 7.046l-77.094-50.015c7.069-0.962 14.095-2.171 20.958-4.097 2.801-0.786 5.614-1.521 8.432-2.23l58.288 29.733c-2.072 6.65-4.51 13.186-7.305 19.563zm12.161-38.703c-1.139 5.808-2.583 11.555-4.282 17.225l-55.934-28.532c7.771-1.891 15.589-3.563 23.42-5.17l37.747 11.522c-0.297 1.655-0.631 3.324-0.951 4.955zm-42.451-171.35l-71.096 94.256 5.505-23.797 45.342-89.089c7.286 5.577 14.054 11.822 20.249 18.63zm-73.477-43.681l-7.249 139.54-3.293 6.471c-6.734 0.73-10.853-2.964-14.385-7.823l-7.316-140.84c10.753-0.561 21.59 0.305 32.243 2.645zm-65.529 3.756l23.698 102.43-46.801-91.956c2.959-1.684 5.968-3.275 9.032-4.748 4.588-2.206 9.29-4.107 14.071-5.729zm-49.97 30.044l74.181 98.347c-0.323 0.028-0.643 0.044-0.959 0.044-4.286 5e-3 -6.127 2.982-5.658 7.23 0.513 4.636 0.373 8.513-2.666 10.558l-85.878-92.178c0.328-0.464 0.655-0.93 0.982-1.393 5.82-8.222 12.56-15.791 19.998-22.608zm23.928 303.81l53.455-126.09c4.504 0.21 9.04-0.156 13.787-1.902 0.96-0.353 1.933-0.708 2.914-1.055l0.818 6.684-40.097 130.93c-10.549-1.968-20.938-4.752-30.877-8.567zm32.83 8.91l38.731-126.48 2.966 24.245-12.899 105.46c-0.494-0.022-0.987-0.021-1.481-0.05-9.087-0.534-18.25-1.575-27.317-3.178zm21.676 116.81c-1.436 0.538-2.572-0.127-3.11-1.369-0.615-1.419 0.091-2.531 1.607-2.745 1.419-0.2 2.319 0.721 2.884 1.958 0.064 1.065-0.439 1.804-1.381 2.156zm16.815 13.034c-0.557-0.197-0.897-1.529-0.994-2.383-0.14-1.232 0.862-1.402 1.836-1.42 0.994 0.212 1.652 0.727 1.498 1.842-0.187 1.358-0.869 2.481-2.34 1.961zm2.489-17.615c-6.56-2.489-12.388-6.655-15.996-12.844-2.79-4.786-0.568-8.957 4.041-8.957 5.039 0 17.629 9.996 18.699 14.847 1.156 5.238-1.894 8.794-6.744 6.954zm7.775-33.933c-4.424-0.983-8.972-2.456-9.875-7.528-0.789-4.434 3.19-4.859 6.382-5.062 4.908-0.312 7.964 2.206 8.523 7.03 0.38 3.268-1.276 5.469-5.03 5.56zm7.552-77.299l-12.627-103.23 2.966-24.245 36.37 118.76c-8.568 3.891-17.534 6.839-26.709 8.715zm86.064 223.54c-16.355-35.273-32.816-70.498-49.088-105.81-3.253-7.06-6.327-14.003-13.052-18.662-4.093-2.835-4.884-7.341-4.634-10.487 0.895-8.596 1.615-15.622 2.362-22.645 0.703-6.616 5.561-8.758 11.031-10.497 23.254-7.393 44.184-19.107 63.068-34.487 44.675-36.387 71.094-83.757 83.625-139.43 3.251-14.444 5.37-29.07 5.88-43.869 0.254-7.386 2.981-12.208 10.639-13.782 7.286-1.497 13.995-4.677 20.67-7.871 3.52-1.685 7.361-3.718 10.805-0.696 3.364 2.951 1.829 7.063 1.172 10.882-6.788 39.431-20.613 76.9-32.206 114.97-19.373 63.622-39.344 127.06-58.88 190.63-6.879 22.385-14.908 44.346-22.889 66.345-2.597 7.159-3.056 15.074-4.774 22.579-1.338 5.847-3.578 11.013-10.746 11.909-7.24 0.901-10.39-3.496-12.983-9.09zm-1.53 183.88c5.013 1.66 4.842 6.224 5.351 10.352 0.827 6.711 1.514 13.432 2.107 20.16l-15.137-29.742c2.175-1.26 4.679-1.763 7.679-0.77zm-68.443 280.3l77.914-72.723-58.548 90.065c-7.112-4.879-13.624-10.663-19.366-17.342zm20.987 18.459l62.894-96.751 17.856-16.666-53.579 126.39c-9.627-3.123-18.784-7.444-27.171-12.97zm63.149 19.074l38.27-124.97 2.966 24.245-11.975 97.905c-9.599 2.094-19.44 3.059-29.261 2.818zm31.298-3.28l10.928-89.342 10.103 82.596c-3.528 1.374-7.05 2.648-10.521 3.796-3.456 1.143-6.967 2.114-10.51 2.95zm145.49-261.64c-3.176 0.183-6.381-0.341-9.415 1.186-3.44 1.732-5.716 0.209-6.477-3.161-0.91-4.03-3.018-6.961-5.628-9.499l15.507-16.645c0.89 1.274 1.796 2.537 2.638 3.844 3.276 5.085 8.677 11.381 8.771 17.712 0.056 3.746-1.422 6.333-5.396 6.563zm-7.153-29.781l-15.809 16.969c-1.708-1.486-3.558-2.87-5.418-4.295-9.329-7.149-12.584-16.001-9.863-25.032l7.458-9.888 1.135 0.887 3.422-4.38c2.377 1.07 4.11 4.757 5.843 7.426 4.092 6.298 8.839 12.179 13.232 18.313zm-4.841-21.293c0.233-0.186 0.518-0.568 0.688-0.522 0.52 0.141 0.995 0.447 1.487 0.688-0.238 0.179-0.476 0.359-0.713 0.538-0.488-0.232-0.975-0.468-1.462-0.704zm16.256-588.82c-1.85 13.408-0.291 27.027-2.009 40.349-3.456 26.791-2.923 53.778-5.019 80.631-2.094 26.837-2.812 53.779-4.606 80.644-0.286 4.287 1.163 11.156-4.009 12.137-2.139 0.406-0.557-7.75-1.181-11.963-0.233-1.571-0.038-3.205-0.038-4.81-0.452-28.814-2.227-57.147-11.972-84.978-6.313-18.03-6.84-37.644-0.305-56.671 5.419-15.778 10.036-31.829 15.169-47.708 1.176-3.638 2.834-7.156 4.609-10.552 1.215-2.324 3.151-4.26 6.208-3.333 3.11 0.942 3.511 3.663 3.153 6.254zm87.358-124.31c12.079-7.052 23.271-15.96 38.711-15.079 10.88 0.621 21.821 0.23 32.627 2.06 1.48 0.251 3.57-0.029 4.007 1.871 0.539 2.345-1.448 3.482-3.215 4.089-4.851 1.666-9.792 3.072-14.697 4.579-14.723 4.524-29.368 9.322-44.404 12.758-2.801 0.64-5.584 1.357-7.219 1.756-4.594-0.216-7.794-0.746-8.883-4.57-0.912-3.198 0.428-5.92 3.073-7.464zm25.148 30.906c-0.091 1.902-1.357 2.902-2.617 3.892-3.258 2.56-6.579 5.045-9.774 7.681-2.27 1.873-4.712 4.328-7.385 1.467-2.841-3.04-3.723-7.77-0.468-10.347 5.026-3.98 11.768-4.3 18.045-5.133 1.586-0.211 1.969 1.25 2.199 2.44zm337.34 124.56c-11.941 21.702-16.138 46.738-29.48 67.829-2.963 4.683-3.801 10.283-4.445 15.673-1.202 10.066-6.09 18.196-12.543 25.529-13.578 15.432-27.587 30.494-40.902 46.147-10.348 12.165-22.045 22.766-36.096 30.026-25.093 12.966-45.573 32.215-68.4 48.242-16.131 11.326-27.886 28.012-44.584 38.126-26.091 15.803-49.872 35.03-76.55 49.925-10.661 5.952-20.025 7.183-30.523 0.236-6.686-4.424-13.58-8.538-20.115-13.221-8.544-6.122-15.307-13.152-18.198-23.916-2.409-8.969-7.846-12.239-15.325-11.915-5.292 0.229-9.743 2.205-10.919 7.672-1.668 7.756-6.112 11.642-13.883 12.114-6.157 0.374-8.958 4.052-9.944 9.849-0.487 2.86 0.291 7.718-4.227 7.206-4.872-0.553-2.737-5.569-3.722-8.609 2.443-10.556 1.487-21.267 3.036-31.764 0.421-2.854 0.868-5.755 0.797-8.622-1.281-51.687 5.062-103 7.204-154.51 1.227-29.52 4.05-58.932 4.706-88.484 0.484-21.802 4.138-43.431 4.174-65.335 0.019-11.321 4.408-13.747 14.821-9.434 6.594 2.731 12.38 2.73 18.057-1.685 4.636-3.606 10.318-3.078 15.665-3.909 14.782-2.298 16.722-4.211 16.325-19.141-0.223-8.401 2.186-14.621 9.009-19.932 12.411-9.66 24.227-20.083 36.322-30.151 5.514-4.59 11.857-7.614 18.697-9.69 33.183-10.073 66.356-20.182 99.539-30.256 5.549-1.685 11.19-2.821 17.047-2.338 12.46 1.027 17.474 7.492 16.145 19.786-2.665 24.652 1.814 47.908 14.662 69.311 3.303 5.503 6.473 11.085 9.733 16.599 7.497 12.68 18.924 20.215 33.751 20.845 9.033 0.384 15.296 2.781 18.243 12.094 1.839 5.812 7.145 9.657 12.851 7.185 10.595-4.592 20.911-2.032 29.923 1.758 11.17 4.697 23.203 6.868 33.945 12.77 6.45 3.542 8.578 7.86 5.204 13.992z"/>
	<polygon points="805.68 205.33 805.37 205.76 805.84 205.83"/>
</svg>
