<?xml version="1.0" encoding="UTF-8"?>
<svg enable-background="new 0 0 1518 1674.542" version="1.1" viewBox="0 0 1518 1674.542" xmlns="http://www.w3.org/2000/svg">
 <ellipse transform="matrix(.9998 -.02 .02 .9998 -32.63 11.255)" cx="546.49" cy="1637.3" rx=".003" ry=".003"/>
 <path d="m910.71 42.521c-420.11-43.881-653.79 194.67-686.64 441.13-3.481 26.388 0 52.776 12.442 80.161-57.716 90.119-190.57 223.06-202.01 286.79-6.968 38.337 38.311 51.78 60.206 65.224 20.899 6.971 43.785 1.99 57.715 18.92 9.951 12.448-3.481 33.359-6.47 48.794-0.498 25.392-30.346 37.84-27.363 61.24 2.989 19.916 19.903 27.883 35.328 40.33 16.421 12.944-41.798 37.839-22.892 60.743 19.404 22.404 47.77 48.295 37.813 80.16-14.429 49.291-42.296 100.57-19.405 138.91 22.892 37.84 54.732 60.244 103.99 70.2 77.12 0 154.74 1.504 232.36 1.504 26.865 23.401 45.771 99.079 60.705 200.65h781.67c-5.436-25.545-11.048-53.82-16.554-83.5-2.197 5.682-6.375 9.98-12.422 9.91-16.684-0.195-13.98-23.375-23.837-8.267-5.928 9.086-0.531 32.238 2.897 51.931-15.456-1.991-31.615-6.05-40.188-10.7-16.33-8.859 6.183-5.761 7.934-23.07 1.75-17.308-32.632-18.883-36.449-4.423s6.802 19.152-7.767 25.28c-7.093 2.983-18.606 3.426-30.334 1.978-0.903-18.967-4.219-41.869 1.076-52.172 8.481-16.501 2.486 0.528 19.764 1.888s17.25-27.69 2.91-31.465c-14.34-3.776-12.489 9.477-17.668-4.316-2.954-7.868-4.337-25.822-3.222-42.727 14.969 6.133 31.035 16.508 40.203 12.837 14.049-5.626 3.219-6.139 6.14-19.419 2.92-13.28 38.496-14.915 38.54 1.494 0.044 16.408-18.286 14.14-2.958 23.912 5.521 3.52 13.955 5.655 23.129 6.704-0.441 12.437 0.461 23.928 3.024 30.078 6.003 14.406 7.223 0.043 21.626 3.842 1.1 0.29 2.089 0.768 2.992 1.371-25.818-144.58-47.397-312.63-34.065-361.67 27.867-105.55 117.92-185.22 151.76-269.86 172.15-430.18-38.203-804.69-513.98-854.39zm505.94 375.56c5.761 16.826 9.147 38.197 8.663 49.955-0.763 18.552-2.554-2.289-18.223 4.659s-3.478 40.918 9.395 37.344c12.873-3.573 10.613-18.704 21.495-8.714 6.82 6.261 9.246 29.727 13.312 49.559-11.089 4.076-22.261 6.346-29.516 5.324-14.932-2.102-3.338-8.57-8.052-20.727s-41.042-7.662-36.056 8.794c4.987 16.456 18.647 9.292 5.065 21.941-5.754 5.359-15.577 11.157-26.206 15.865-11.09-13.619-24.495-27.715-22.988-37.554 2.588-16.901 11.237-6.732 23.348-12.289s2.867-36.87-12.305-33.62c-15.171 3.251-12.032 19.696-24.423 5.853-5.591-6.246-12.574-17.447-18.317-29.334 13.468-8.381 28.236-19.999 39.451-18.878 18.108 1.81 3.397 6.124 10.774 20.941 7.377 14.818 34.951-0.258 30.62-12.551-4.33-12.293-18.231-14.182-8.141-25.805 6.329-7.289 24.863-15.925 42.104-20.763zm-122.96-149.06c5.703 6.324 10.282 12.742 12.355 18.24 6.42 17.028-3.365 3.512-15.251 16.226s14.064 38.089 25.526 28.992c11.461-9.097 4.089-24.826 18.678-20.877 9.819 2.658 25.121 17.836 36.064 32.674-10.861 12.497-25.03 24.424-34.754 27.648-16.6 5.503-3.619-6.205-16.839-16.375-13.219-10.169-38.783 18.539-29.65 30.066s19.755-3.258 15.693 12.91c-1.557 6.199-7.206 14.87-14.528 23.631-12.325-12.742-27.468-24.61-36.813-26.939-15.546-3.875-1.267 7.489-10.758 16.574-9.491 9.084-38.08-9.554-26.314-22.363s18.219-2.286 10.468-19.171c-3.448-7.51-14.155-13.236-25.395-18.551 12.443-8.513 24.714-16.8 26.629-24.336 3.854-15.167-7.195-5.047-16.697-17.062-9.502-12.016 14.023-34.633 27.088-23.314s-2.397 18.935 14.676 12.117c9.922-3.963 26.702-17.035 39.822-30.09zm-88.755 519.63c-1.695 15.113-35.81 13.37-38.468-2.183-2.658-15.554 14.1-11.782-3.463-17.752-8.289-2.817-22.122 1.109-35.825 5.373 3.978-14.945 8.12-30.387 4.534-38.993-7.138-17.129-5.644 6.175-22.2 4.942s-14.084-35.786-0.655-37.559 10.621 15.209 18.167 0.791c4.348-8.309 5.203-24.832 3.671-40.572 11.782-4.481 22.955-7.907 29.853-4.781 16.508 7.483-0.334 12.705 2.286 28.445s38.924 8.292 38.638-4.735c-0.287-13.026-16.863-16.473-2.941-24.953 6.222-3.79 19.401-0.554 33.557 3.463 5.226 15.914 11.962 32.27 8.716 39.778-5.714 13.218-5.879-5.633-19.331-3.829-13.452 1.805-17.21 41.61 0.189 41.138 17.399-0.471 10.299-19.928 19.063-4.788 4.546 7.853 8.271 23.2 9.754 38.177-17.776-4.58-38.28-13.004-47.224-7.561-14.027 8.535 3.374 10.486 1.679 25.599zm-35.635 164.29c-15.306-0.562-30.102-1.075-35.74 4.357-11.331 10.917 6.838 5.899 9.966 18.552 3.126 12.653-32.519 25.425-37.828 9.068s10.283-15.445-7.608-18.945c-9.181-1.796-22.24-0.625-34.319 2.419-4.629-10.442-7.929-19.872-6.361-25.801 4.175-15.785 6.953-4.684 19.482-8.531s9.468-33.627-7.281-30.603-11.843 14.078-23.766 1.097c-5.971-6.501-11.339-20.237-14.687-34.304 15.295-0.444 32.456 0.286 40.692-6.49 14.198-11.681-0.579-6.894-4.151-23.788-3.573-16.894 33.407-19.117 39.167-5.474 5.76 13.642-16.295 16.067 0.232 20.278 7.637 1.946 20.678 0.601 33.834-2.58-0.724 11.794-0.378 22.259 4.094 27.02 11.861 12.629 7.307-4.813 23.523-7.064s23.626 29.385 10.01 35.129c-13.616 5.745-20.769-3.938-24.018 10.498-1.716 7.626 6.709 21.268 14.759 35.162zm-130.52 219.38c-5.323 11.904 4.704 14.747-9.907 15.681-9.403 0.602-23.94-13.926-38.047-24.583 6.423-12.683 13.908-24.426 19.963-29.767 13.697-12.084 0.845 3.109 17.018 9.365 16.174 6.256 31.355-24.644 19.411-31.349s-23.189 4.146-25.015-11.996c-0.756-6.687 1.714-17.337 5.831-28.298 15.43 10.091 35.065 18.98 45.194 18.047 15.051-1.386 2.657-13.557 10.226-26.079 7.57-12.523 40.739 2.211 34.033 18.271s-20.59 6.805-8.635 20.525c3.86 4.43 10.39 8.849 17.94 12.787-5.584 12.12-9.388 23.567-8.909 29.761 1.144 14.784 10.023 0.439 21.938 5.73 11.914 5.291 6.612 41.142-9.547 35.578s-8.201-17.871-21.935-6.476c-7.488 6.212-16.506 20.76-22.97 35.113-8.548-1.59-16.246-3.973-20.682-8.654-12.737-13.441 4.086-4.736 8.032-19.616 3.946-14.879-28.616-25.945-33.939-14.04zm-19.131 204.19c-5.206-16.595-35.646-1.162-32.527 11.6s20.102 6.082 8.971 17.605c-6.692 6.927-24.543 14.104-41.741 18.403-6.311-17.243-10.655-38.358-9.451-49.743 1.952-18.464 7.545 3.22 23.435-2.874s2.922-39.077-10.274-36.437-15.676 20.242-26.102 9.565c-4.411-4.518-9.216-15.238-13.036-27.423 15.954-4.659 32.629-12.776 39.69-20.079 11.094-11.474-1.807-5.39-5.229-17.983-3.422-12.594 27.683-28.96 34.142-14.906s-11.938 20.332 5.802 23.501c10.858 1.94 27.469-11.462 42.277-21.343 6.872 15.089 12.046 31.423 9.995 40.946-3.628 16.846-7.947 2.771-21.135 8.792-13.189 6.021-6.495 38.43 10.243 33.685 16.738-4.744 4.081-16.991 16.422-4.413 6.21 6.329 7.486 21.822 8.649 37.047-10.225 7.074-20.538 13.482-28.766 12.711-18.498-1.735-6.158-2.059-11.365-18.654zm-120.84-166.27c-7.913-0.093-19.525 4.089-30.935 9.791-1.206-8.529-3.291-16.183-8.034-20.522-13.65-12.485-8.929 0.034-25.037 6.29-16.109 6.256-26.302-22.488-13.32-30.61 12.982-8.123 23.461 5.621 25.073-10.633 0.776-7.824-3.785-20.627-10.257-33.004 10.339-1.361 19.399-3.543 23.532-8.58 11.408-13.902-0.494-3.87-4.856-19.066-4.362-15.197 27.009-26.63 33.585-14.858 6.575 11.773-4.718 16.072 9.908 16.814 7.109 0.36 18.768-8.587 31.006-17.915 10.918 10.754 21.81 21.276 20.982 29.706-1.616 16.439-12.694 6.507-24.492 12.106-11.799 5.599 0.703 33.77 16.786 27.982s8.98-21.557 21.931-8.287c4.616 4.73 6.992 13.426 8.655 23.075-16.865 6.134-33.52 14.518-38.791 20.576-9.446 10.858 7.466 7.358 11.419 21.336 3.952 13.978-30.64 32.171-37.864 16.344-7.223-15.829 9.131-20.329-9.291-20.545zm-176.43-39.944c-7.377 11.255-39.978-2.645-33.172-18.243s26.181-4.37 14.394-18.715c-7.268-8.845-25.362-20.565-42.076-28.165 5.973-10.133 12.647-19.174 18.255-24.013 14.061-12.133 2.331 8.735 17.942 16.127 15.611 7.391 31.685-29.144 20.303-37.057-11.381-7.913-23.886 4.416-24.031-10.816-0.074-7.772 10.584-17.775 21.386-28.142 11.849 12.678 24.006 26.043 33.558 26.757 18.447 1.378 1.484-10.817 10.202-25.776 8.719-14.96 34.016 6.127 28.866 20.464s-18.011 3.203-9.136 17.105c3.578 5.605 12.698 12.31 23.516 18.411-5.211 10.856-8.728 21.656-8.599 28.617 0.289 15.55 10.408-0.834 21.694 5.882 11.285 6.716-1.267 40.299-16.663 32.18-15.396-8.12-7.898-22.641-21.632-10.243-4.993 4.507-10.125 11.911-14.622 20.27-11.363-5.828-22.373-9.925-28.687-9.951-14.923-0.064-4.12 14.053-11.498 25.308zm-157.01 95.31c-7.463 12.857-37.484 1.168-32.661-14.971s17.123-6.505 4.378-19.825c-7.546-7.887-27.533-10.636-44.796-14.299 4.716-13.967 11.839-27.836 19.018-34.692 13.328-12.726 0.517 5.174 16.827 10.91 16.31 5.737 31.63-27.828 19.233-34.854-12.397-7.027-21.392 5.667-23.517-10.297-0.926-6.955 1.387-17.932 5.396-29.023 18.307 2.09 39.315 3.526 45.811 11.334 11.141 13.392 1.639 2.499-4.318 18.791s28.025 26.696 34.89 14.414-5.67-18.397 9.105-19.856c7.437-0.734 19.459 8.131 31.936 17.115-9.528 10.91-19.037 21.604-18.011 29.447 2.052 15.688 9.239 6.488 22.349 14.104 13.109 7.616 1.843 37.59-13.414 33.791s-6.982-20.569-20.469-9.038c-4.731 4.045-7.187 12.502-8.868 22.188-14.584-6.978-29.793-12.067-37.9-11.013-15.634 2.033 2.474 12.917-4.989 25.774zm-106.89-255.9c12.158 9.639 22.852-3.244 20.052 15.122-1.263 8.287-5.465 20.8-10.984 32.793-15.034-5.061-33.392-9.067-39.661-18.433-10.121-15.123 2.565-6.516 9.306-21.633s-22.43-26.805-29.162-15.644 0.653 23.089-14.733 22.696c-9.65-0.246-28.103-9.055-42.803-19.281 9.319-15.148 23.656-31.354 33.036-38.46 14.8-11.211-0.142 3.426 15.186 11.098 15.328 7.671 33.786-23.343 22.84-31.003-10.945-7.66-21.183 3.708-20.396-11.043 0.493-9.244 17.057-26.043 29.774-41.795 10.198 5.965 19.056 13.141 22.883 19.388 7.876 12.859-4.49 8.027-10.872 19.397s20.194 36.543 29.72 22.228-4.691-20.299 13.708-17.864c7.795 1.031 18.517 4.923 28.911 10.13-3.455 17.22-5.805 36.53-14.356 41.625-14.687 8.753-12.342-4.389-24.333-10.199-11.992-5.812-30.274 21.239-18.116 30.878zm-152.15-103.53c7.396 14.606 22.413 4.635 14.32 19.954-3.051 5.776-12.836 9.501-24.226 12.647-8.475-13.282-19.353-25.902-27.772-30.705-15.652-8.929 0.817 3.792-14.045 12.158s-33.682-16.121-22.842-25.749c10.84-9.627 17.973 2.319 16.784-14.054-0.453-6.232-6.084-12.894-13.015-19.75 10.229-8.346 19.503-17.738 24.281-24.626 10.589-15.266-4.679-8.395-11.363-22.397-6.683-14.002 21.629-30.263 29.846-19.772 8.216 10.49 0.333 21.263 17.372 19.858 9.92-0.818 20.52-17.129 31.193-31.077 9.587 12.577 17.555 27.077 18.231 36.431 1.172 16.23-5.378 0.313-15.864 8.888-10.486 8.574 5.597 39.256 20.324 31.592 14.727-7.665 1.192-26.694 16.276-15.885 7.579 5.43 12.183 20.74 16.666 35.542-10.527 12.126-20.694 24.525-28.461 25.378-14.709 1.615-7.874-8.295-17.729-19.307-9.857-11.014-37.372 6.268-29.976 20.874zm93.067-224.07c8.512 0.255 16.315 1.388 21.719 3.693 16.738 7.141 0.209 4.86 1.17 22.237 0.961 17.378 37.236 16.188 38.594 1.618 1.357-14.569-15.102-20.125-2.158-27.929 8.711-5.253 30.257-5.806 48.542-3.446 1.513 16.488 0.327 34.971-4.071 44.223-7.508 15.795-6.985-1.678-23.473 0.835s-13.436 40.832 1.206 42.209 11.311-16.52 20.178-2.405c3.4 5.412 5.755 15.489 7.018 26.837-17.727 0.088-36.772 2.816-44.919 7.954-13.551 8.547 4.533 6.095 4.529 19.233s-33.239 20.893-34.352 3.536c-1.113-17.358 10.95-14.739-6.605-20.82-7.808-2.705-19.349 1.068-30.963 5.509 2.458-14.875 4.961-29.469 0.843-36.064-8.289-13.274-8.621 1.706-23.871 0.257s-15.313-34.083 1.898-35.689c17.211-1.607 12.017 14.828 18.902-2.218 4.001-9.904 6.166-31.064 5.813-49.57zm177.22-142c2.666-12.758-15.883-16.111-0.94-21.038 7.436-2.452 20.547 4.424 34.097 11.564 1.101 14.308 1.845 28.669-2.749 36.121-9.735 15.79-2.323 0.295-18.077-0.581s-25.059 31.991-10.704 37.013c14.355 5.021 20.136-11.506 25.329 4.069 3.312 9.933-9.47 28.043-17.898 44.351-13.856-1.757-26.97-5.325-32.949-10.431-12.421-10.608 4.846-11.359 5.593-26.654s-28.668-23.346-32.734-6.55 8.907 20.071-9.138 24.144c-6.27 1.415-13.744-1.245-21.434-5.127 2.439-16.765 2.47-34.772 0.142-42.848-4.08-14.156-3.275-0.8-17.275-5.69s-11.747-33.851 5.371-31.139 9.805 19.218 19.555 3.434c6.088-9.856 4.579-32.948 5.169-51.927 12.204 2.492 24.481 7.096 31.976 12.695 14.607 10.909 0.95 3.329-1.355 20.371-2.305 17.041 35.355 20.98 38.021 8.223zm61.222 271.22c12.172-6.632 6.75-23.334 20.434-16.642 6.982 3.415 11.152 17.425 15.583 31.726-16.642 4.916-34.037 9.799-38.953 18.019-9.495 15.876 9.006 6.171 18.477 20.667 9.47 14.496-20.713 27.669-31.225 16.644-10.512-11.026 5.203-17.538-11.201-15.829-6.614 0.689-16.693 5.839-26.994 12.779-7.372-9.522-15.453-17.503-21.735-20.505-14.033-6.706-3.916 9.679-14.976 16.761-11.059 7.082-35.464-19.183-21.308-29.311s23.781 3.079 18.847-14.754c-1.793-6.482-6.114-14.388-11.574-22.152 10.3-7.549 18.895-15.558 21.746-21.192 6.74-13.315-10.721-9.979-17.479-21.616-6.759-11.637 20.271-34.559 31.169-21.488s-7.819 25.366 10.286 21.252c11.163-2.536 29.746-13.465 44.028-25.004 6.384 9.879 11.479 19.895 13.293 27.077 4.55 18.005-8.854-1.828-22.455 8.818-13.603 10.647 11.864 41.382 24.037 34.75zm59.283-327.07c12.002 11.72 38.987-13.878 31.064-24.399-7.922-10.521-21.765-1.038-15.955-16.603 2.44-6.536 11.15-11.727 21.006-16.783 9.077 11.256 19.833 21.344 28.021 24.643 16.349 6.586 7.163-1.282 20.98-11.219 13.816-9.938 29.397 15.625 19.743 24.49s-16.94 0.04-13.914 16.085c1.136 6.027 8.174 13.118 16.846 20.551-9.1 7.538-16.677 16.219-19.374 23.425-5.539 14.803 5.161 10.298 13.061 22.996s-16.836 36.63-28.227 23.481c-11.391-13.15 6.31-27.403-11.34-21.601-9.265 3.046-23.305 12.016-35.359 21.894-11.054-7.303-20.409-14.192-21.695-19.983-3.226-14.526 8.026-8.408 17.627-17.391 9.602-8.983-5.79-37.004-19.113-28.581s-2.412 28.302-18.913 19.788c-7.555-3.898-14.49-17.272-21.306-31.201 7.392-11.807 14.95-24.044 23.846-26.982 17.644-5.825 1 5.67 13.002 17.39zm110.65 414.69c17.307-0.661 12.003-19.348 20.788-3.1 4.859 8.986-0.478 28.254-4.683 45.973-11.917 4.496-23.618 8.111-31.239 5.611-17.643-5.787 3.847-8.867 0.613-24.732-3.233-15.866-36.517-12.111-36.362 1.112 0.154 13.223 13.149 12.394 0.22 20.892-6.889 4.528-20.561 8.179-34.52 9.783-6.021-19.05-13.571-40.601-9.467-49.95 7.059-16.081 4.169 1.545 21.078-0.946s11.624-35.02-3.12-36.015c-14.744-0.994-10.535 15.017-17.634 2.494-4.383-7.731 0.136-29.811 2.258-49.471 11.401-0.34 22 0.762 28.075 3.549 14.08 6.459 0.533 12.566 3.554 26.592 3.022 14.026 37.014 8.237 37.424-8.469 0.409-16.707-17.675-14.868-0.828-22.579 10.667-4.882 29.096 2.202 44.43 5.963-0.161 14.195-1.995 27.796-5.12 34.54-6.589 14.222-4.423 2.927-18.997 6.189-14.575 3.26-13.777 33.224 3.53 32.564zm2.239-234.42c2.067 7.029 8.749 16.265 17.042 24.68-9.758 7.086-18.102 14.168-20.492 20.59-6.404 17.202 5.547 3.1 16.672 16.082s-15.854 29.144-27.809 20.092 0.623-19.98-13-15.243c-5.704 1.983-12.896 12.712-20.566 24.883-10.242-9.619-21.861-17.697-29.768-20.03-14.839-4.379-5.812 5.005-15.805 13.665-9.993 8.659-34.361-14.321-24.339-27.038s26.255 1.697 19.275-15.509c-3.015-7.432-13.333-14.029-24.464-20.221 13.124-6.655 25-13.221 26.999-20.227 4.472-15.676-10.042-6.959-19.092-16.333s12.563-39.48 25.168-29.696 3.777 25.048 20.981 19.342c7.188-2.384 13.07-12.483 18.683-23.769 8.679 7.734 18.017 14.285 25.274 17.312 17.13 7.144 4.963-2.337 17.889-13.676s32.026 19.888 22.903 29.203c-9.125 9.313-19.805 1.427-15.551 15.893zm-163.12 375.34c-14.405 2.642-4.404-4.139-13.509-14.084-9.107-9.945-37.007 8.396-29.268 22.183 7.739 13.786 17.016 1.286 9.11 17.438-2.864 5.852-11.179 10.059-20.928 13.761-9.854-11.375-21.753-21.759-29.997-25.549-15.895-7.307 1.132 4.486-12.806 14.911-13.938 10.426-33.839-24.251-23.894-33.488s20.958 6.063 17.997-8.029c-1.682-8.005-16.622-17.475-30.074-27.456 17.177-6.05 36.268-11.986 41.197-20.934 8.912-16.178-3.935-1.608-13.854-15.805-9.919-14.198 14.849-31.08 25.478-20.588s-0.043 14.781 15.483 12.628c7.362-1.021 19.792-6.837 31.818-14.381 2.974 8.649 6.323 15.825 11.409 18.128 13.865 6.279 5.802-3.672 16.5-11.198s35.103 20.892 24.038 31.983c-11.065 11.092-25.128-5.973-20.067 11.899 2.465 8.706 14.979 16.46 27.422 24.017-9.765 11.891-19.054 23.28-26.055 24.564zm271.24-548.05c-11.248-8.119-19.937 5.795-19.963-11.163-0.012-7.823 3.734-19.482 9.222-30.851 16.678 5.77 36.171 10.971 42.683 19.731 10.999 14.795-0.015 3.712-6.797 19.131s21.562 30.732 30.558 18.897-7.626-24.876 8.136-24.959c8.175-0.043 22.638 6.889 36.247 15.617-5.304 17.402-8.492 39.322-16.472 44.649-12.293 8.206-10.136-8.114-22.254-13.651-12.118-5.536-25.245 20.468-12.41 29.983s21.573-8.235 18.675 10.045c-1.419 8.953-12.092 19.058-22.629 28.83-10.831-11.995-21.406-23.389-29.555-23.368-16.899 0.045-3.997 13.253-13.225 25.392-9.227 12.14-35.134-3.029-29.033-18.121s20.203-4.81 10.482-19.605c-5.589-8.506-23.464-20.565-40.382-29.458 6.198-8.693 13.107-16.436 19.024-20.736 14.847-10.793 1.192 7.332 16.667 14.377s32.273-26.62 21.026-34.74zm83.893 269.7c17.315-1.697 7.032-15.996 16.945-1.428 4.988 7.331 3.494 22.805 1.935 37.994-11.318 5.147-22.605 9.622-30.565 7.403-17.897-4.989-5.695-3.118-7.873-20.374s-34.873-7.471-34.069 5.642 18.703 9.553 5.703 18.918c-7.815 5.629-26.657 9.523-44.345 10.701-3.15-18.089-3.676-39.64-0.471-50.63 5.199-17.824 6.854 4.508 23.573 1.332 16.719-3.177 9.812-37.938-3.643-37.682-13.455 0.255-19.021 17.137-27.385 4.779-3.54-5.229-6.365-16.632-7.961-29.302 16.528-1.753 34.379-6.781 42.624-12.715 12.954-9.323-0.821-5.625-1.953-18.625-1.132-13.001 32.384-23.586 36.245-8.609s-15.358 17.889 1.538 24.157c10.341 3.836 29.067-6.404 45.394-13.499 4.084 16.07 6.276 33.062 2.568 42.07-6.561 15.934-8.312 1.317-22.36 4.901-14.049 3.582-13.215 36.664 4.1 34.967zm-138.81 217.9c12.884-7.673 18.279 8.092 19.013-6.313 0.308-6.031-6.929-16.73-15.322-28.414 12.765-5.873 24.62-13.601 29.755-20.05 9.638-12.103-2.452-7.267-6.718-19.784-4.265-12.516 26.192-26.453 34.207-12.383 8.015 14.069-11.447 23.689 7.121 23.693 8.021 1e-3 18.013-7.078 27.937-15.063 1.231 14.664 2.849 28.137 8.588 32.624 12.843 10.039 10.225-6.688 22.314-11.548 12.09-4.86 31.857 26.488 18.051 34.488s-24.63-5.92-25.813 12.166c-0.494 7.557 6.651 16.805 14.998 26.251-10.431 5.133-20.012 11.322-25.546 16.908-13.061 13.185 0.299 5.477 5.944 21.719 5.645 16.241-30.473 22.196-35.672 10.239-5.2-11.957 6.124-18.887-8.88-20.386-7.29-0.728-18.361 1.99-29.277 6.509-2.896-11.706-6.32-22.101-11.372-26.731-13.531-12.403-4.958 3.974-21.171 9.4-16.211 5.425-21.041-25.652-8.157-33.325zm266.5-464.71c-14.374-5.09-23.022 11.224-28.214-4.858-2.504-7.755 5.126-21.299 13.25-35.27 13.042 7.353 25.693 14.674 33.114 12.362 14.543-4.531-0.868-12.95 3.427-26.13s43.914-8.324 41.338 8.755-25.94 11.865-10.268 21.83c6.251 3.975 16.832 7.758 28.257 10.555-1.529 11.315-1.689 21.663 0.295 27.738 5.176 15.846 6.288-2.325 20.158 2.564 13.87 4.89 7.531 42.804-9.074 41.24-16.605-1.563-11.857-18.387-22.974-4.886-6.512 7.908-12.147 25.551-14.681 41.913-8.341-3.269-15.773-7.015-20.541-10.599-14.578-10.961 3.639-2.404 6.736-19.515s-37.283-17.636-40.583-4.878c-3.301 12.758 8.828 16.731-5.425 20.895-8.574 2.504-25.497-0.2-40.846-5.112 3.315-18.824 9.354-39.524 15.752-47.439 11.129-13.767 5.633 2.798 21.867 4.009 16.233 1.211 22.786-28.085 8.412-33.174zm-44.412-289.55c14.244-9.77 26.373 10.868 22.965-7.388-1.359-7.282-5.813-17.598-11.563-27.86 9.315-6.603 16.99-13.545 20.077-19.142 8.053-14.596-5.99-3.01-11.879-16.487s26.154-34.711 36.341-21.505-5.352 21.214 12.103 20.129c10.224-0.635 26.968-8.553 40.658-17.864 3.302 8.328 5.633 16.318 6.266 22.249 1.933 18.136-4.241-1.02-18.863 8.391s12.545 39.289 24.123 32.997c11.579-6.292 6.208-17.87 18.977-10.29 7.681 4.559 17.25 18.776 24.132 33.35-16.024 10.42-35.277 20.129-45.428 20.852-17.658 1.257-1.798-6.027-11.989-18.722-10.19-12.694-36.079 2.504-29.992 16.485 6.086 13.981 23.913 9.173 15.699 23.941-3.962 7.122-19.069 10.785-34.826 14.378-3.523-14.551-6.802-28.796-13.556-32.643-13.235-7.54-8.875 9.471-21.441 15.323-12.566 5.854-36.048-26.424-21.804-36.194zm-11.636 61.691c5.574 9.106 9.994 18.494 11.637 25.622 4.121 17.887-7.214-1.773-19.753 9.711-12.539 11.483 11.866 40.118 23.739 32.946 11.874-7.173 2.47-20.615 18.086-14.001 7.203 3.051 16.466 11.061 24.781 20.561-11.837 13.089-24.253 28.991-34.863 31.555-17.919 4.331-3.411-1.466-14.944-13.743-11.534-12.276-36.72 7.813-29.35 20.724s25.876 2.719 19.783 17.256c-3.16 7.54-15.199 18.136-28.558 27.243-13.938-11.692-32.862-23.204-34.64-32.633-2.74-14.524 11.434-6.152 21.271-15.136s-8.955-31.242-22.734-23.154c-13.779 8.087-0.865 23.075-16.553 13.253-7.683-4.81-12.805-18.587-17.674-32.107 15.277-5.273 29.901-10.544 33.071-18.052 6.573-15.568-10.631-8.865-18.19-22.108-7.56-13.242 16.539-31.145 28.039-19.624s-3.481 20.474 13.938 17.319c10.015-1.815 28.108-13.544 42.914-25.632zm-168.79-201.48c-5.912-16.224 30.388-23.623 38.008-10.926s-13.874 18.198 3.081 20.044c7.834 0.853 20.557-2.312 33.135-7.31 0.941 11.779 2.755 22.091 7.851 26.177 13.519 10.836 6.558-5.792 22.297-10.301s27.522 25.772 14.848 33.373c-12.673 7.602-21.116-0.979-22.304 13.77-0.627 7.789 9.632 20.111 19.555 32.736-15.233 1.596-29.954 3.167-34.772 9.338-9.684 12.402 7.6 4.879 12.475 16.967 4.874 12.088-28.622 29.744-36.178 14.295-7.555-15.448 8.01-16.737-10.196-17.688-9.343-0.488-22.107 2.507-33.638 7.219-6.051-9.688-10.644-18.56-9.925-24.651 1.914-16.215 6.226-5.615 18.09-11.185s4.647-34.624-11.51-29.276-9.747 15.604-23.376 4.427c-6.826-5.597-14.071-18.442-19.363-31.899 15.081-2.59 32.174-4.28 39.375-12.146 12.417-13.556-1.541-6.74-7.453-22.964zm-78.55 193.92c-2.672 15.494 28.047 24.535 34.682 10.903s-3.066-20.125 12.429-23.321c7.746-1.598 19.108 7.103 30.687 15.807-7.939 12.925-15.961 26.3-15.279 35.501 1.374 18.528 1.088 1.789 17.032 8.056 15.945 6.267 4.217 32.297-9.632 29.767s-10.949-17.513-22.815-6.512c-6.495 6.022-6.959 24.592-8.063 42.433-13.959 0.409-27.282 0.47-32.752-5.333-11.669-12.381 1.907-14.183 5.615-26.689s-26.097-22.544-31.896-6.198c-5.798 16.346 12.406 14.524-5.83 16.808-6.534 0.819-15.144-2.431-24.156-6.844 4.574-17.038 7.069-35.301 5.378-43.737-3.049-15.207-10.597 2.635-23.077-2.845-12.481-5.48-0.345-39.857 16.339-35.107s5.453 17.237 17.62 3.266c5.857-6.725 12.986-20.278 18.453-34.25 9.783 0.967 18.397 2.797 22.778 7.219 12.489 12.606-4.842 5.582-7.513 21.076zm-126.87-183.44c12.861 4.054 7.595 14.929 18.744 5.434 5.419-4.615 7.762-19.124 10.264-34.307 15.321 0.332 30.464 0.513 35.646 7.215 10.103 13.067-4.77 13.443-9.511 25.611-4.742 12.168 23.682 24.085 31.411 8.84 7.729-15.246-8.258-21.844 10.269-21.076 6.603 0.274 14.298 4.97 22.128 10.849-8.061 16.034-14.424 33.56-14.102 41.584 0.578 14.38 10.48 0.23 22.946 7.687s-0.218 44.426-16.332 37.868c-16.115-6.558-7.305-21.052-20.855-8.571-5.82 5.361-11.399 16.371-15.787 28.348-6.729-5.378-13.498-9.515-19.925-9.417-18.496 0.283-6.472 6.151-13.899 21.754-7.427 15.604-34.563 1.687-30.693-13.13 3.871-14.816 20.924-12.007 10.945-24.938-4.804-6.225-16.906-12.409-30.106-16.973 6.588-8.084 11.681-15.887 11.233-22.387-1.239-17.941-3.014-2.476-16.614-10.539-13.601-8.063 1.377-37.905 14.238-33.852zm-30.658 226.05c-5.92 12.183-18.544 0.483-10.671 14.724 4.538 8.207 17.855 18.025 31.834 25.42-2.753 12.301-6.05 23.513-12.46 27.546-15.34 9.653-10.418-7.279-24.996-13.766s-28.368 27.912-17.339 34.852c11.028 6.939 23.038-4.995 22.443 11.296-0.266 7.28-10.228 16.495-21.381 26.095-16.16-4.408-33.52-7.799-37.997-14.645-7.882-12.051 7.94-1.802 13.847-14.022 5.906-12.22-25.24-37.289-34.434-22.51s10.955 19.575-6.509 18.546c-9.058-0.534-23.918-5.881-37.233-12.896 13.617-12.31 31.945-24.779 32.331-35.242 0.606-16.407-10.61-2.962-22.287-12.704-11.678-9.742 8.574-37.25 23.018-30.898 14.444 6.353 2.063 18.258 16.722 6.891 6.918-5.365 11.264-19.072 15.257-32.856 10.279 11.555 20.883 23.52 30.041 25.269 18.227 3.482-2.043-8.112 8.109-21.248s37.625 7.966 31.705 20.148zm-158.89-150.07c16.931-3.705 16.127 14.331 19.463-3.92 2.083-11.396-7.727-32.354-14.087-50.246 12.274-2.122 25.384-2.301 34.404 0.185 17.575 4.844 2.097 2.755 6.153 19.466 4.056 16.712 40.566 6.674 38.406-6.179-2.161-12.853-20.658-9.224-8.533-19.253 6.033-4.99 20.747-3.359 35.967-1.64 6.234 12.926 12.154 26.031 10.587 34.644-3.319 18.25-2.056 1.12-17.049 6.039-14.993 4.918-11.695 38.918 3.503 38.37s14.566-18.046 25.073-5.429c6.7 8.046 1.387 29.567-0.527 47.823-13.545 3.407-27.059 4.857-34.486 2.277-15.43-5.359 0.379-12.344-4.493-26.861-4.872-14.518-35.199-11.31-32.873 5.815 2.327 17.124 15.601 15.452 0.277 25.814-5.325 3.6-13.255 3.843-21.829 3.027-3.831-16.503-10.356-33.286-15.464-39.961-8.953-11.7-3.341 0.447-18.161 0.989-14.819 0.54-23.262-27.256-6.331-30.96zm-162.97 134.99c14.043-9.74 19.261 3.955 18.194-13.859-0.582-9.712-6.98-25.587-14.732-39.288 6.337-5.953 12.811-10.751 19.209-11.56 18.371-2.323 1.402 6.096 11.068 18.078s37.846-7.732 31.394-19.064-14.674-4.927-6.787-17.262c5.076-7.939 25.388-11.07 42.324-16.144 6.429 12.68 11.472 25.66 12.199 33.701 1.644 18.191-3.007-1.157-17.616 8.185-14.609 9.343 1.33 39.859 13.8 34.192s10.37-21.152 24.466-13.078c5.839 3.344 12.967 11.635 19.371 21.437-17.262 6.476-36.042 17.052-41.28 25.772-7.783 12.957 9.361 10.16 14.983 23.669 5.622 13.51-25.875 31.545-34.86 16.639-8.985-14.905 6.689-20.628-11.445-19.102-5.855 0.493-13.28 3.145-20.921 6.905-6.471-11.67-13.453-21.508-18.731-24.784-12.598-7.82-6.281 7.823-17.594 14.302-11.31 6.478-37.085-18.999-23.042-28.739zm-69.463 152.28c9.346-11.472 11.431 0.385 26.179 1.315 14.749 0.931 22.226-30.689 6.708-35.906s-19.221 12.425-24.205-4.168c-1.879-6.256 2.478-15.776 8.387-26.01 15.358 3.517 31.964 4.875 41.333 2.389 17.417-4.621-3.243-2.128 1.476-18.518 4.718-16.389 35.31-12.148 34.343 2.317-0.968 14.466-14.433 10.959-2.097 21.79 4.696 4.123 13.382 4.918 23.131 4.938-1.432 13.124-1.449 26.323-0.02 34.583 3.168 18.306 9.225 2.698 23.812 7.985s5.825 36.739-7.39 35.03-15.157-14.916-26.312-1.958c-6.494 7.544-2.6 26.603-0.417 44.029-15.656-2.234-31.508-6.973-38.552-13.164-12.224-10.741 3.612-3.997 5.066-17.464s-31.534-24.042-36.648-8.247 17.882 19.855-0.45 22.739c-9.21 1.449-23.234-6.228-36.814-13.628-1.009-16.026-2.466-31.993 2.47-38.052zm-51.819 186.58c13.087-5.41 17.761 9.784 21.899-6.639 1.688-6.699-2.303-16.955-7.415-27.985 11.994-3.94 22.987-9.335 28.611-14.773 12.191-11.788-3.857-8.386-5.819-22.119-1.961-13.732 33.934-25.005 39.603-8.975 5.669 16.031-16.857 18.78 1.218 21.977 7.202 1.274 17.572 0.875 28.132-0.697 3.948 13.57 8.779 25.563 12.733 30.238 9.302 10.997 11.539-6.002 24.14-9.303s19.395 31.534 4.208 37.598c-15.187 6.065-17.254-17.132-19.801 1.248-1.309 9.448 6.77 24.458 14.527 38.765-11.689 8.676-23.589 17.344-32.582 16.346-18.461-2.05 2.646-8.642-3.456-23.072s-41.623-2.538-38.685 10.208 15.195 9.029 4.152 19.504c-4.05 3.842-11.959 4.239-21.091 3.733-2.722-15.505-7.6-31.351-13.59-39.052-11.391-14.644-5.809 5.734-22.698 9.554s-27.173-31.146-14.086-36.556zm-92.989 239.31c-0.589-13.56 18.201-12.031 5.55-18.909-7.186-3.907-24.081 1.332-40.4 5.108 6.525-17.002 14.378-35.388 10.758-44.941-6.544-17.272-3.774 1.955-21.015 0.307s-14.045-31.452 0.834-32.746c14.878-1.295 11.228 9.612 19.651-3.607 3.994-6.268 7.621-19.503 9.67-33.551 8.514 3.341 16.149 5.441 21.199 3.061 13.768-6.489 0.964-6.799 2.166-19.823 1.203-13.024 38.661-13.192 39.936 2.423s-20.834 15.265-3.945 22.994c8.228 3.766 22.244-0.739 36.062-5.318 2.729 15.144 5.381 29.599 1.821 35.763-7.324 12.682-6.006 0.671-19.482 1.16-13.475 0.49-17.591 33.625-2.076 36.666s12.007-12.125 19.185 4.365c2.6 5.974 0.415 15.033-3.084 24.857-15.049 0.131-30.669 2.463-38.898 6.285-15.867 7.369 4.15 2.045 3.056 19.416-1.093 17.369-40.399 10.05-40.988-3.51zm163.61 415.96c-9.225 14.944-3.914-2.109-21.005-1.991s-16.376 33.066-1.913 36.099 12.519-13.408 17.81-0.02c3.267 8.265-4.276 29.503-9.108 48.678-11.338-1.247-21.681-3.811-27.31-7.414-13.047-8.352 1.218-12.518 0.174-26.828-1.045-14.309-35.511-13.299-38.237 3.189s15.438 17.179-2.317 22.475c-11.242 3.353-28.508-6.223-43.171-12.077 2.132-14.035 5.837-27.249 9.868-33.493 8.501-13.169 4.786-2.284 19.672-3.49s18.259-30.99 1.028-32.74-14.575 17.493-21.017 0.182c-3.563-9.574 4.398-27.914 11.024-44.877 12.427-2.797 24.516-4.751 31.716-1.217 16.668 8.182-5.041 8.246-4.043 24.407s34.48 17.066 36.164 3.95-11.299-14.1 2.684-20.72c7.451-3.527 21.498-5.243 35.544-4.893 3.318 19.701 7.8 42.092 2.437 50.78zm-11.928-220.61c-15.16 10.65-1.264 1.216-16.325-7.392s-35.078 21.861-24.273 30.171 22.406-7.205 21.724 8.29c-0.379 8.596-7.176 25.729-15.699 41.176-13.778-11.541-27.917-27.032-37.088-28.068-14.292-1.615 2.329 6.557-6.805 17.674-9.133 11.117-42.258-7.019-33.944-22.149s21.601-4.168 10.831-19.272c-5.949-8.343-18.847-18.17-31.821-25.415 6.756-10.422 14.011-19.11 19.826-22.336 14.423-8.001 2.517 4.149 16.509 10.173 13.992 6.023 36.598-17.925 22.205-27.55-14.394-9.625-27.611 6.555-25.098-11.772 1.301-9.49 15.391-20.799 28.775-31.844 9.293 10.961 18.913 22.074 27.794 23.89 18.133 3.709 0.791-5.81 10.867-18.209 10.076-12.398 35.47 1.874 29.4 13.733-6.071 11.859-22.278 8.977-14.628 21.623 4.966 8.21 26.723 12.37 43.871 18.444-8.655 12.256-18.823 23.707-26.121 28.833zm54.388 71.934c-14.041-0.91-14.166 13.036-21.842 0.328-3.864-6.397-1.037-21.064 1.703-36.193 13.949 3.905 27.695 7.885 34.332 3.583 13.277-8.605 1.879-11.132 3.111-26.243s33.136-17.843 36.274-2.437-15.561 15.156 0.653 22.366c5.688 2.53 14.378 1.106 23.844-1.546-0.021 16.167 1.932 32.086 6.373 38.95 8.562 13.234 10.592-7.796 25.41-6.594s17.188 33.331 0.545 35.925c-16.644 2.594-13.242-12.656-19.779 4.581-3.871 10.206 2.25 29.43 6.375 46.589-14.637 1.755-30.221 1.295-39.499-2.234-17.224-6.552 4.447-2.694 2.605-19.885s-38.732-16.573-39.739-2.357c-1.006 14.215 14.322 16.87 0.829 25.659-5.879 3.829-16.783 6.467-28.519 7.622-5.993-17.424-13.74-37.005-9.488-46.229 7.293-15.821 1.55-2.555 18.82-4.191 17.269-1.633 12.033-36.784-2.008-37.694zm136.71 202.17c-11.388 14.678-4.683-7.035-21.479-11.568s-23.922 29.139-10.273 35.25c13.65 6.11 20.002-3.607 23.686 11.762 1.794 7.482 0.365 18.916-2.965 30.254-18.862-2.184-41.999-2.623-51.308-9.518-14.908-11.043 0.924-2.367 5.066-19.197 4.142-16.829-24.527-21.51-30.577-7.972-6.05 13.539 7.327 13.86-7.123 16.735-8.243 1.64-26.183 0.094-42.684-3.746 8.478-13.776 21.32-27.949 19.183-37.591-3.274-14.776-5.536-4.172-18.167-9.206-12.631-5.035-8.478-40.405 7.721-37.789 16.198 2.616 10.989 20.336 23.116 6.795 4.368-4.878 7.842-12.854 10.364-21.736 12.201 2.451 23.687 3.424 30.171 1.892 15.188-3.589 1.214-7.12 7.296-20.717 6.083-13.597 38.248-5.742 35.351 10.69s-25.332 10.007-12.022 22.182c8.005 7.323 31.726 5.75 51.714 5.559-4.467 14.928-11.092 30.216-17.07 37.921zm79.889 52.376c-3.618-7.659-18.368-11.095-33.259-14.715 6.039-15.112 12.414-30.922 20.515-35.957 15.76-9.795-0.753 6.627 13.621 14.425s36.812-19.7 26.216-27.277-25.095 1.573-22.588-12.611c1.066-6.03 7.198-17.412 15.107-29.125 12.017 10.739 26.37 20.103 35.221 21.309 14.713 2.004 5.255-6.565 13.467-16.872 8.211-10.307 44.874 6.622 35.076 20.987-9.799 14.365-22.95-0.87-14.102 15.078 2.894 5.216 8.155 11.665 14.441 18.048-6.35 9.837-11.025 19.72-11.706 26.415-1.643 16.162 11.649 7.945 21.898 17.033s-11.147 36.06-25.624 26.513 1.308-21.665-14.642-12.764c-7.05 3.934-16.858 13.821-25.827 24.851-6.382-7.426-12.886-13.668-19.276-15.356-17.927-4.736-3.735 5.147-14.563 18.373s-36.022-4.527-28.773-15.391c7.248-10.862 21.853-8.029 14.798-22.964zm125.72 134.7c-12.844 2.611-14.53-8.708-20.219 6.597-2.137 5.748 0.231 15.455 3.823 26.297-11.685 1.761-22.655 5.285-28.684 10.065-12.384 9.82-0.894 11.484-0.681 26.437 0.213 14.954-33.325 22.686-36.295 5.545-2.97-17.142 19.547-20.215 1.435-24.354-9.508-2.173-26.163-1.736-41.585 0.505-5.699-11.96-10.157-22.689-8.27-28.312 4.734-14.107 11.214-3.06 24.074-5.799s14.138-34.684-1.621-34.345-16.672 22.997-26.412 7.189c-4.459-7.238-3.497-22.272-2.147-37.72 12.425-6.298 25.214-12.88 34.35-10.804 18.117 4.115-2.071 5.371 2.16 21.604 4.232 16.233 40.556 8.234 39.2-4.867s-18.107-12.122-5.098-22.455c5.463-4.34 15.603-4.29 26.654-3.534 1.965 14.326 5.972 28.518 11.283 35.569 10.605 14.078 6.797 2.599 23.76 1.217 16.964-1.382 17.116 28.554 4.273 31.165zm134.14 42.204c8.171 15.058-17.557 27.433-26.529 16.585-8.972-10.849 2.89-20.45-13.272-19.667-8.847 0.429-21.153 14.344-33.479 27.289-10.947-8.671-21.184-17.198-21.636-25.16-0.963-16.986 10.587-9.629 21.474-16.814 10.886-7.186-5.466-34.05-20.424-25.271s0.148 19.1-15.28 9.113c-5.528-3.578-10.026-11.606-14.084-20.784 14.466-10.097 28.129-22.47 32.264-30.015 7.453-13.601-9.807-4.802-15.833-17.029s25.386-30.729 35.1-16.356-6.92 16.703 11.384 13.84c8.811-1.378 22.99-7.163 36.166-14.339 6.866 7.036 12.281 13.98 12.788 20.184 1.445 17.685-7.299 1.156-19.315 11.296s5.677 36.829 19.529 30.666c13.852-6.164 10.605-17.377 24.522-9.851 6.957 3.762 10.054 17.733 13.315 31.847-14.395 4.784-29.142 9.858-34.542 17.34-10.872 15.065-0.319 2.068 7.852 17.126zm24.587-228.61c-9.196-13.59-37.8 7.625-32.811 20.274 4.99 12.649 14.262 7.029 5.745 19.539-5.557 8.164-24.679 8.524-40.522 11.791-6.408-11.03-11.312-22.356-11.716-30.259-0.942-18.399 4.577-2.36 19.919-10.564s-4.989-41.584-18.691-36.761c-13.702 4.824-9.146 21.482-20.576 12.737-6.378-4.879-15.792-20.974-22.974-37.421 17.199-4.091 37.658-6.049 43.182-13.683 8.584-11.861 7e-3 -5.94-5.782-17.624-5.79-11.685 23.478-29.745 32.439-17.227s-8.464 19.947 10.01 18.685c6.434-0.44 13.173-4.858 19.842-10.436 5.798 11.784 12.623 22.113 18.177 25.989 12.21 8.523 12.219-1.939 24.734-6.992s25.516 20.019 12.005 29.216-19.6-3.094-17.154 15.239c1.401 10.506 9.171 27.458 17.999 41.641-8.197 4.25-16.386 7.186-22.932 7.348-18.173 0.448-1.698-7.902-10.894-21.492zm141.52 218.14c9.079 14.031-15.736 37.972-26.138 28.09s-2.654-22.563-17.925-19.961c-6.589 1.122-15.965 6.187-25.191 12.894-5.781-10.804-11.799-20.323-18.026-23.741-16.276-8.933-5.621 10.261-18.971 18.14-13.349 7.879-29.375-21.947-19.333-32.643s22.527 4.114 19.699-10.523c-1.179-6.103-10.478-13.455-21.144-21.194 8.945-7.686 16.356-16.108 18.969-22.619 5.999-14.945-8.075-8.315-15.415-20.53s22.505-33.908 33.886-20.893-8.576 22.302 9.287 17.774c9.622-2.439 22.644-11.013 33.619-20.856 9.115 8.045 16.891 15.831 18.039 22.644 2.813 16.702-7.575 4.668-17.383 14.882s13.663 38.098 27.593 27.811c13.929-10.286 0.626-26.702 16.943-17.872 8.58 4.643 19.417 17.192 28.141 30.295-14.785 5.537-34.001 10.073-40.06 20.118-9.57 15.865 4.332 4.154 13.41 18.184zm152.76-59.131c-12.302 11.641-8.096-3.69-22.043-6.145-13.947-2.454-24.026 32.572-7.723 38.408 16.302 5.836 22.523-14.356 24.281 4.113 0.924 9.712-3.459 25.702-9.48 40.248-12.835-9.193-27.308-22.624-39.025-22.059-18.506 0.892-1.036 5.911-7.629 21.267s-40.3 8.087-37.889-6.057 17.259-14.774 6.59-26.006c-4.603-4.846-14.032-9.811-24.742-13.736 5.751-10.82 10.304-21.121 9.673-28.196-1.649-18.493-11.653 1.048-25.633-5.648s1.86-36.621 16.336-34.241c14.477 2.38 9.133 20.999 19.713 10.496 4.411-4.38 5.336-16.197 5.821-29.366 11.366 3.146 22.489 4.609 29.352 3.152 15.753-3.345 2.406-11.338 8.461-24.239 6.055-12.9 40.696-0.202 36.228 16.5s-23.298 5.303-9.587 17.615c7.386 6.632 21.761 12.669 36.049 16.299-1.602 12.051-3.735 22.847-8.753 27.595zm120.42-197.26c-9.665 15.862-6.712-6.053-22.369-6.625-15.656-0.573-19.902 36.645-7.109 39.373 12.792 2.728 14.607-9.951 19.43 4.486 1.769 5.295-1.216 12.63-5.536 20.691-15.202-4.091-31.624-6.371-41.135-4.199-18.087 4.129 2.74 7.689-0.941 24.609s-39.715 11.452-39.084-2.695c0.632-14.147 16.378-11.957 3.245-22.652-5.357-4.362-16.338-5.083-28.495-5.115 1.501-12.535 1.261-24.779-1.288-32.174-5.527-16.032-9.23-0.052-22.505-4.081-13.273-4.03-8.308-41.325 8.615-39.683 16.924 1.642 9.889 23.217 20.43 8.19 4.2-5.988 8.224-15.553 11.265-25.787 13.967 2.161 26.877 2.855 32.786 1.249 13.899-3.779-0.559-12.994 1.778-25.809s36.777-4.24 35.85 12.087-22.821 8.39-7.242 18.471c8.008 5.181 25.027 4.208 41.271 3.229 2.92 14.259 5.743 28.708 1.034 36.435zm37.002-244.17c-16.903 3.871-14.76-15.913-19.344 1.768-2.026 7.815-1.654 21.736 0.125 35.841-9.778-0.516-18.784-0.126-24.419 3.328-15.809 9.689 1.141 6.256 3.223 23.222 2.082 16.965-28.159 22.916-31.005 10.17-2.846-12.745 9.293-21.348-6.38-26.565-8.037-2.675-20.71 5.615-33.616 13.88-6.754-14.806-13.78-30.337-11.824-39.673 3.806-18.161 4.271 5.123 19.839 0.118s11.189-40.224-1.609-37.799c-12.798 2.426-16.2 19.23-24.723 7.619-3.623-4.936-7.616-17.233-10.621-31.043 16.066-1.269 32.752-5.177 39.738-10.743 11.614-9.253-1.116-8.335-2.895-21.392s35.79-27.869 39.406-10.86-16.484 15.991 1.159 20.612c5.77 1.511 14.067 2.163 23.025 2.028 2.725 11.387 6.641 21.595 11.011 26.712 10.55 12.353 13.792-2.933 27.443-4.065 13.65-1.132 18.37 32.97 1.467 36.842zm79.535-158.19c-18.003 4.375-1.621 0.671-12.495-12.845-10.875-13.516-40.64 7.534-33.619 19.217s23.49 1.48 17.193 15.654c-3.493 7.863-16.081 21.329-29.657 32.593-8.609-15.777-16.111-35.362-24.27-39.678-12.714-6.725-0.228 6.955-12.791 13.966s-36.772-21.973-23.505-33.02 21.63 4.012 17.123-13.982c-2.49-9.94-10.906-23.8-20.336-35.284 10.097-7.233 20.024-12.67 26.616-13.548 16.349-2.179 0.827 4.782 11.651 15.501s40.617-3.315 30.735-17.533-28.097-3.986-19.062-20.128c4.678-8.358 21.926-13.738 38.42-19.129 4.646 13.598 9.541 27.458 17.144 32.393 15.525 10.078 2.859-5.12 16.769-12.979 13.91-7.86 32.334 14.703 22.35 23.525-9.984 8.821-24.018 0.217-21.517 14.784 1.624 9.457 20.356 21.278 34.1 33.198-12.534 8.245-26.183 15.189-34.849 17.295zm12.725-161.04c-8.052-14.223 4.698-19.278-13.773-18.352-10.586 0.531-28.12 6.877-42.982 14.506-3.56-8.52-5.812-16.923-5.433-23.46 1.05-18.147 8.014-1.041 22.315-9.085s-4.484-38.3-17.501-34.37-8.18 13.634-19.946 4.116c-7.678-6.211-6.462-25.297-8.411-41.356 11.52-5.478 23.212-9.431 31.121-9.183 18.414 0.578 1.975 4.756 8.887 20.722s41.854-1.545 38.177-15.598c-3.678-14.053-20.655-10.886-10.998-21.556 5.388-5.954 22.204-14.01 39.186-19.812 2.66 17.478 2.925 38.029 10.078 44.163 11.113 9.532 5.919 0.497 18.041-4.31s27.709 25.849 14.495 33.748-19.181-10.079-19.446 8.436c-0.092 6.448 3.756 13.529 8.766 20.635-12.221 4.808-23.078 10.758-27.398 15.973-9.5 11.467 0.926 12.337 4.93 25.226 4.002 12.889-22.055 23.78-30.108 9.557z"/>
</svg>
