<?xml version="1.0" encoding="UTF-8"?>
<svg enable-background="new -122.581 -95.146 2206.581 1698.967" version="1.1" viewBox="-122.581 -95.146 2206.581 1698.967" xml:space="preserve" xmlns="http://www.w3.org/2000/svg">
<path d="m722.16 1554.3c-3.777 0.024-7.555-0.026-11.331-0.148-28.813-0.937-59.857-5.261-86.637-16.42-8.076-3.365-8.765-8.177-15.36-12.75-3.291-2.282 3.778-23.033 4.958-26.191 3.429-9.178 8.518-17.736 14.882-25.182 6.078-7.112 13.341-13.239 21.469-17.885 8.884-5.078 17.587-5.886 22.015-16.278 2.714-6.37 3.456-13.373 4.358-20.238 1.35-10.269 7.984-21.628 2.651-31.749-3.217-6.146-4.599-15.909-7.117-22.692-3.568-9.61-6.095-19.605-7.566-29.749-2.564-17.685-1.331-34.862 1.846-52.347 3.151-17.344 0.168-33.49-2.883-50.705-3.464-19.544-7.375-39.009-11.728-58.375-9.515-42.335-22.624-83.337-34.523-124.98-8.248-26.554-15.886-53.298-22.906-80.202-12.878-49.352-23.679-99.246-32.361-149.51-5.741-33.233-3.798-66.807-3.798-100.45 0.186-17.857-1.556-30.019-4.691-32.758-2.675-2.337-8.164-3.839-9.707-2.65-8.633 6.645-14.339-1.021-15.642-9.415-4.505-29.026-14.934-62.363-10.025-91.651 0.56-3.343 1.556-6.531-0.048-9.31-4.421 1.323-8.669 3.646-12.894 5.569-9.579 4.359-19.156 8.722-28.737 13.077-5.316 2.417-14.776 8.367-20.756 5.936-20.788-8.449-38.902 21.993-51.631 33.625-16.999 15.535-36.82 29.305-57.775 39.727-19.643 9.77-45.547 21.451-67.929 21.451-3.503 0-3.359-0.314-5.097 11.183-0.31 2.05-0.964 3.728-1.453 3.728s-0.89 1.336-0.89 2.968-0.451 4.876-1.002 7.207c-0.551 2.33-1.708 8.48-2.572 13.672-6.4 38.438-12.369 76.536-16.246 115.61-6.594 66.457-8.144 132.91-24.723 197.97-3.059 11.761-6.743 23.247-10.066 34.919-3.656 12.844-7.956 25.504-12.877 37.919-9.335 23.551-20.465 46.43-35.716 66.745-19.595 26.103-50.484 59.958-83.806 66.991-11.464 2.419-23.28 2.451-34.997 2.473-10.414 0.019-20.829 0.039-31.243 0.058-7.532 0.014-21.614 3.061-27.261-2.524-2.626-2.597-6.327-6.2-8.226-8.007-6.307-6.002-4.787-16.386 2.145-14.646 1.837 0.461 2.351 0.068 2.852-2.185 1.17-5.253 1.671-6.731 2.727-8.049 1.696-2.115 1.492-4.994-0.479-6.778-1.002-0.907-1.822-2.25-1.822-2.986 0-0.915-1.364-1.337-4.319-1.337-9.437 0-9.045-14.531 0.579-21.367 7.762-5.514 14.746-9.948 24.128-7.763 12.369 2.881 23.428 7.376 36.359 8.297 24.999 1.78 40.263-29.345 42.286-50.61 0.624-6.504 4.022-12.697 5.337-19.23 1.801-8.944 3.428-17.923 4.883-26.929 2.818-17.451 4.984-35.006 6.495-52.618 5.027-58.579 1.021-116.27-1.557-174.67-1.152-26.09-1.543-52.213-1.175-78.326 0.406-29.009 1.755-58.006 4.036-86.928 1.141-14.461 2.515-28.904 4.123-43.32 1.522-13.648 5.661-26.956 7.09-40.36-6.167 2.828-13.44 19.938-18.708 26.134-7.35 8.644-15.775 16.37-24.989 22.988-30.424 21.855-91.086 42.51-122.14 10.729-6.141-6.286-13.4-13.746-3.158-20.607 3.877-2.597 8.623-3.448 13.19-4.409 46.534-9.783 88.207-37.257 116.77-75.123 6.089-8.071 12.61-17.039 17.034-26.109 3.907-8.009 4.976-17.408 11.725-24.523-6.419-4.48-8.343-13.466-6.675-21.114s6.222-14.3 10.661-20.747c12.285-17.84 11.035-33.235 8.459-54.196-2.631-21.411-7.7-42.436-13.581-63.163-0.853-3.007-2.014-8.822-2.579-12.923-2.317-16.819-3.015-22.701-3.478-29.324-0.977-13.959-6.002-27.226-8.776-40.926-3.156-15.585-5.204-31.392-6.142-47.265-3.014-51.02 6.226-103.34 21.567-151.91 11.121-35.215 24.776-74.08 51.812-100.07 9.599-9.227 21.092-16.499 33.596-21.092 26.495-9.733 52.004-3.435 78.807-0.043 9.336 1.182 16.593 2.74 18.01 3.867 0.569 0.453 3.666 1.578 6.882 2.5s9.515 3.66 13.998 6.084c15.884 8.588 31.015-0.975 47.61-3.402 19.614-2.869 39.663-2.143 59.205 0.931 20.457 3.218 40.419 8.951 59.987 15.639 8.944 3.057 17.852 6.482 26.843 9.022 6.297 1.779 10.64 7.578 16.806 9.026 7.374 1.732 17.879-8.223 23.633-11.931 47.95-30.908 101.55-35.659 156.62-34.364 48.706 1.145 96.104-3.597 144.66 6.557 25.88 5.413 51.202 13.508 75.404 24.155 24.485 10.771 44.89 25.224 66.712 39.716 12.084 8.049 14.129 27.841 25.829 37.829 7.75 6.616 17.654 10.303 27.688 12.085 17.936 3.185 37.159 3.764 55.353 5.402 19.503 1.755 39.105 2.402 58.682 1.951 55.365-1.276 115.8-9.832 167.26-31.171 3.439-1.426 9.491-3.212 13.449-3.97s9.42-2.341 12.138-3.52c8.711-3.778 15.485-5.237 48.68-10.486 25.457-4.025 55-0.631 80.336 3.023 75.026 10.822 143.43 47.441 205.73 88.926 40.314 26.844 77.895 57.796 111.94 92.244 11.652 11.789 22.891 23.987 33.682 36.569 53.874 62.815 106.06 130.31 138.22 207.05 18.21 43.444 33.931 87.99 38.351 135.13 3.197 34.102 2.822 68.538-1.106 102.56-1.826 15.816-4.005 31.83-8.28 47.16-4.534 16.258-11.354 31.85-15.206 48.298-7.589 32.409-11.008 64.441-9.983 97.499 0.25 7.917 1.434 19.208 2.889 27.533 1.356 7.762 2.466 15.851 2.466 17.976s0.335 4.199 0.745 4.609 0.834 4.623 0.942 9.361c0.184 8.101 0.447 10.915 1.754 18.804 0.294 1.777 0.722 4.461 0.95 5.964 0.864 5.697 2.483 13.898 3.975 20.132 5.71 23.867 7.101 48.584 7.425 73.044 0.162 12.261 8e-3 24.524-0.158 36.784-0.086 6.356-0.35 7.865 2.95 12.336 2.866 3.883 7.05 6.196 9.353 10.774 1.311 2.607 2.631 4.963 2.934 5.236 0.976 0.883 5.015 10.982 5.492 13.733 0.255 1.468 0.831 4.906 1.281 7.64s1.557 6.76 2.459 8.947c4.755 11.52 7.845 35.29 4.588 35.29-0.522 0-1.285-0.011-1.695-0.013-0.41-0.011-0.787-0.79-0.837-1.74-0.261-4.954-1.755-13.841-2.546-15.147-0.885-1.461-0.548 20.964 0.41 27.337 1.501 9.982 1.891 15.728 1.285 18.958-0.963 5.133-2.529 3.084-3.174-4.154-0.781-8.765-1.034-9.162-3.879-6.093-1.343 1.449-2.476 3.66-2.518 4.914-0.122 3.67-2.449 9.292-3.286 7.938-0.907-1.467-4.591 0.225-4.591 2.109 0 1.421 5.986 13.549 9.032 18.3 2.209 3.446 1.865 5.246-1.004 5.246-3.204 0-6.739-3.741-7.903-8.365-0.615-2.442-1.565-4.717-2.113-5.055-1.772-1.095-1.015 3.762 2.013 12.916 1.626 4.917 2.957 9.88 2.957 11.029 0 2.325 2.1 4.407 6.213 6.16 5.197 2.215 3.038 5.524-4.296 6.584-5.39 0.779-8.787-1.303-11.518-7.058-1.864-3.927-4.087-1.5-2.912 3.18 0.629 2.506-0.316 6.455-1.544 6.455-1.509 0-2.917-5.005-2.984-10.606-0.087-7.345-2.614-7.42-3.036-0.089-0.224 3.876-0.716 5.288-1.925 5.518-1.612 0.306-4.345-5.135-3.371-6.71 0.246-0.399-0.393-2.92-1.421-5.602-2.258-5.891-2.759-4.839-3.282 6.886-0.415 9.304-1.077 10.559-5.585 10.589-2.142 0.014-2.298-0.284-1.679-3.215 1.934-9.167 2.603-15.511 1.967-18.639-1.003-4.928-1.237-21.854-0.345-25.028 0.564-2.009 0.282-3.082-1.15-4.379-1.044-0.945-1.898-2.223-1.898-2.84 0-1.043-4.953-4.534-6.433-4.534-0.915 0 0.522 4.335 1.686 5.084 4.261 2.742 0.335 48.596-4.161 48.596-1.674 0-2.215-2.055-0.944-3.586 0.689-0.831 1.365-3.704 1.5-6.384 0.136-2.681 0.807-6.425 1.493-8.321 1.008-2.787 1.001-3.744-0.036-4.993-1.909-2.3-3.046-0.959-3.046 3.593 0 2.366-0.86 5.44-2.068 7.394-1.53 2.476-1.895 4.186-1.401 6.579 0.9 4.37 5.497 19.633 6.577 21.838 0.478 0.976 1.316 2.662 1.863 3.748 1.482 2.945 1.234 6.972-0.429 6.972-1.646 0-4.931-4.334-6.027-7.953-0.414-1.367-1.968-4.305-3.454-6.529-1.979-2.962-2.887-5.886-3.396-10.935-0.382-3.79-1.078-8.457-1.547-10.37-0.469-1.914-1.13-4.709-1.469-6.213-0.849-3.771-2.566-3.439-2.565 0.497 1e-3 3.68 2.174 14.538 4.527 22.615 2.638 9.057 2.891 11.929 1.049 11.929-0.945 0-1.6-0.826-1.6-2.019 0-2.048-0.445-2.341-5.083-3.35-9.045-1.968-2.144-44.194-4.849-51.129-1.788-4.585-4.337-8.915-5.349-13.731-2.198-10.46 3.159-20.869 8.338-30.219 9.642-17.407 19.029-34.412 24.158-53.794 2.61-9.862 4.526-19.908 5.738-30.038 3.004-25.095 0.824-50.269-2.832-75.089-1.606-10.906-3.204-21.813-4.807-32.719-4.838-34.138-10.264-67.941-15.657-101.82-2.72-17.091-4.319-34.359-4.798-51.658-0.523-18.893 0.289-37.823 2.435-56.601 2.107-18.44 8.518-36.466 10.575-54.511 0.405-3.554 1.36-7.58 2.121-8.947s1.494-3.38 1.628-4.473c0.452-3.679 1.47-25.734 1.354-29.306-0.957-29.397 0.33-68.826-16.973-94.362-1.632-2.409-3.414-6.211-3.959-8.45-0.545-2.236-1.436-5.437-1.983-7.117-0.544-1.673-0.529-11.069-4.289-9.474-1.191 0.505-1.741 1.855-2.173 3.074-7.595 21.435-15.19 42.869-22.785 64.304-3.7 10.442-7.4 20.885-11.1 31.327-3.218 9.082-8.792 16.439-11.883 25.154-12.516 35.293-29.738 69.884-44.152 104.6-11.035 26.575-22.07 53.151-33.104 79.726-5.038 12.133-9.709 24.508-15.189 36.446-2.814 6.13-6.05 12.089-9.059 18.126-2.293 4.601-9.016 13.54-9.016 18.63-6.102 14.034-12.802 27.839-19.195 41.743-4.281 9.239-8.415 18.544-12.546 27.851-2.69 6.06-8.084 11.027-9.448 17.226-3.627 16.467-9.627 30.832-10.119 48.22-0.821 28.996 8.879 55.676 18.027 82.624 7.01 20.652 15.781 40.442 24.177 60.531 4.953 11.654 10.055 23.829 10.936 36.61 0.84 12.189-3.746 23.133-3.928 34.824-0.148 9.515 2.078 19.166 4.273 28.362 3.464 14.512 8.19 28.943 9.041 43.935 0.612 10.775 2.334 28.349-5.188 37.269-13.369 15.856-17.637 20.01-21.313 20.745-1.677 0.335-4.191 1.508-5.587 2.607-1.396 1.098-3.673 1.997-5.06 1.997s-5.33 1.368-8.762 3.04c-9.107 4.437-22.199 7.559-32.322 7.709-5.793 0.086-10.317 0.763-13.917 2.082-5.667 2.077-14.683 3.91-21.239 4.317-3.635 0.226-3.998 0.503-4.232 3.229-0.609 7.114-5.19 16.832-8.618 18.283-0.507 0.214-2.743 2.057-4.97 4.095s-5.124 4.039-6.437 4.447-4.668 2.092-7.456 3.743c-2.787 1.65-8.199 3.649-12.026 4.442s-8.353 2.298-10.058 3.345c-1.697 1.042-3.976 1.896-5.081 1.904-9.712 0.074-21.369 4.419-31.254 5.674-13.676 1.736-27.424 2.91-41.196 3.519-27.945 1.236-67.315 6.028-91.395-10.097-0.223-0.149-8.417 1.839-9.957 1.618-3.808-0.547-7.387-2.446-10.159-5.075-6.572-6.234-9.705-13.361-6.957-22.145 5.66-18.095 14.289-35.242 25.337-50.645 5.801-8.087 12.269-15.695 19.328-22.71 2.687-2.67 19.546-13.673 19.736-16.533 0.286-4.305 11.774-13.038 14.539-16.421 5.949-7.28 11.396-14.972 16.295-22.996 13.514-22.131 20.293-46.167 28.87-70.34 1.552-4.374 3.498-9.966 4.324-12.426 1.878-5.591 5.131-20.15 6.552-29.325 0.593-3.827 1.506-8.866 2.03-11.198 0.524-2.331 0.963-6.357 0.976-8.947 0.013-2.589 0.499-6.497 1.079-8.684 0.581-2.187 1.058-4.871 1.061-5.964 0-1.094 0.401-4.001 0.886-6.462 0.484-2.46 1.055-7.157 1.267-10.438 0.213-3.28 0.872-8.648 1.466-11.934 3.707-20.491 7.383-40.988 11.067-61.483 2.286-12.717-2.036-20.831-6.45-32.451-2.596-6.834-5.334-13.768-6.085-15.408-0.75-1.64-1.985-5.765-2.745-9.166s-2.318-7.376-3.463-8.832c-1.146-1.457-2.083-3.076-2.083-3.599s-0.913-2.14-2.031-3.597c-9.085-11.841-14.877-24.779-24.638-36.139-12.799-14.897-26.193-29.268-39.578-43.636-11.202-12.025-24.796-23.71-34.423-37.012-5.388-7.445-5.196-16.12-5.198-25.023l-5.632-0.134c-3.098-0.074-7.124-0.883-8.947-1.798-2.301-1.155-7.877-1.959-18.226-2.628-8.182-0.529-15.547-1.204-16.396-1.503-10.949-3.855-24.194-3.149-35.671-4.01-18.601-1.415-38.974-0.282-56.287-7.808-5.946-2.585-16.427-4.489-30.319-5.508-14.833-1.088-21.293-2.334-26.466-5.102-2.119-1.134-5.419-2.363-7.332-2.732-2.446-0.471-3.438-1.174-3.341-2.368 0.075-0.934-0.304-1.699-0.843-1.699-0.629 0-0.685 2.23-0.155 6.213 1.158 8.707 0.69 14.941-1.49 19.873-1.029 2.328-2.38 6.088-3 8.356-0.621 2.267-1.796 4.378-2.611 4.691s-1.482 1.451-1.482 2.529c0 1.076-0.489 2.258-1.088 2.633-7.597 4.755-7.797 15.399-8.745 23.252-1.501 12.42-2.327 24.919-2.472 37.429-0.32 27.621 4.659 53.117 9.217 79.921 6.431 37.818 12.133 75.755 17.635 113.72 5.139 35.455 6.58 73.905 18.275 107.9 4.17 12.039 9.591 23.645 16.165 34.559 3.435 5.702 7.349 10.99 11.172 16.423 2.505 3.559 5.435 10.803 9.21 13.061 1.666 0.997 2.004 1.375 11.203 12.572 17.198 20.932 33.264 39.896 35.344 68.298 1.646 22.48-5.931 47.079-19.849 64.835-2.382 3.038-4.625 6.46-4.987 7.609-2.754 8.719-13.992 15.287-21.661 18.532-6.479 2.742-12.959 5.484-19.438 8.226-9.033 3.823-18.224 7.688-27.972 8.777-3.218 0.36-6.461 0.411-9.698 0.463-8.732 0.139-17.464 0.243-26.195 0.417-8.186 0.163-11.169 2.802-18.633 5.118-5.979 1.855-12.772 1.854-18.843 0.488-16.118-3.626-29.177-15.219-45.193-19.589-14.541-3.968-24.167-13.717-24.321-29.655-0.114-11.742 4.706-22.991 10.624-33.133 7.851-13.455 17.621-24.521 19.262-40.41 0.896-8.682-1.457-17.334-3.788-25.745-2.935-10.591-5.877-21.181-8.806-31.774-1.889-6.832-3.518-16.604-9.625-21.147-5.873-4.369-19.003-18.05-19.003-19.801 0-0.892-0.636-2.328-1.412-3.191-1.619-1.798-5.546-11.369-5.546-13.516 0-0.789-1.566-3.883-3.479-6.874-1.914-2.991-3.479-5.728-3.479-6.082s-0.6-2.051-1.334-3.773c-15.189-35.657-19.332-75.883-31.227-112.87-7.585-23.589-16.338-46.803-26.218-69.527-9.242-21.256-22.008-41.604-29.379-63.548-1.376-4.096-4.022-10.621-5.881-14.501-1.859-3.879-3.38-7.848-3.38-8.819s-1.98-4.339-4.4-7.484c-2.42-3.144-6.903-10.625-9.964-16.628-26.424-51.818-52.592-109.69-57.627-168.28-0.153-1.78-1.016-4.052-1.918-5.049-0.901-0.996-1.641-2.893-1.644-4.216-0.029-12.52-15.417-20.378-25.746-23.484-11.707-3.521-28.583 0.011-38.155-8.111-1.862-1.58-3.17-1.871-10.898-2.427-2.597-0.187-4.722 0.028-4.722 0.477s0.633 0.817 1.406 0.817c1.04 0 1.558 1.998 1.992 7.691 1.608 21.105 5.441 42.362 7.659 63.518 0.842 7.929 1.665 15.86 2.495 23.79 0.453 4.327 3.422 14.533 1.185 18.569-0.683 1.232-1.524 6.714-1.868 12.182s-1.132 11.283-1.751 12.923-1.88 5.666-2.802 8.947c-0.923 3.28-2.32 6.719-3.106 7.641s-1.154 2.122-0.818 2.665 0.214 1.233-0.273 1.534c-3.217 2.012-4.445 15.701-5.08 18.971-1.735 8.941-3.122 17.951-4.168 26.998-2.37 20.483-1.859 40.993-2.763 61.461-0.93 21.046-1.325 42.127-0.67 63.187 0.616 19.813 4.025 39.3 5.18 58.923 3.672 62.432 7.156 126.51 16.057 188.26 0.647 4.487 0.905 11.062 0.573 14.613-0.344 3.688-0.087 9.071 0.601 12.573 4.502 22.925 6.174 46.238 13.094 68.772 4.537 14.772 26.771 34.127 18.136 51.089-8.893 17.471-31.677 30.345-48.886 37.718-22.553 9.662-47.438 15.103-71.672 17.858-10.258 1.166-20.574 1.779-30.893 1.845z"/>
</svg>
