<?xml version="1.0" encoding="UTF-8"?>
<svg width="297mm" height="210mm" version="1.1" viewBox="0 0 1052.3622 744.09448" xmlns="http://www.w3.org/2000/svg" xmlns:xlink="http://www.w3.org/1999/xlink">
 <defs>
  <linearGradient id="b">
   <stop offset="0"/>
   <stop stop-opacity="0" offset="1"/>
  </linearGradient>
  <linearGradient id="h" x1="380.47" x2="401" y1="356.98" y2="356.98" gradientUnits="userSpaceOnUse" xlink:href="#b"/>
  <linearGradient id="i" x1="380.47" x2="401" y1="356.98" y2="356.98" gradientTransform="translate(75.806)" gradientUnits="userSpaceOnUse" xlink:href="#b"/>
  <linearGradient id="j" x1="380.47" x2="401" y1="356.98" y2="356.98" gradientTransform="translate(151.61)" gradientUnits="userSpaceOnUse" xlink:href="#b"/>
  <linearGradient id="k" x1="380.47" x2="401" y1="356.98" y2="356.98" gradientTransform="translate(228.11)" gradientUnits="userSpaceOnUse" xlink:href="#b"/>
  <linearGradient id="l" x1="380.47" x2="401" y1="356.98" y2="356.98" gradientTransform="translate(303.5)" gradientUnits="userSpaceOnUse" xlink:href="#b"/>
  <linearGradient id="a" x1="394.49" x2="404.66" y1="257.88" y2="277" gradientUnits="userSpaceOnUse">
   <stop stop-color="#737d7f" offset="0"/>
   <stop stop-color="#4c4a41" stop-opacity="0" offset="1"/>
  </linearGradient>
 </defs>
 <rect x="-333.68" y="402.72" width="385.33" height="220.46" fill="#8d4836"/>
 <path d="m-223.18 245.9c23.86 0 27.117 21.807 27.117 50.874v53.932h-54.234v-53.932c0-31.717 7.3353-50.874 27.117-50.874z" fill="#81493c" stroke="#7f4c3a" stroke-width="2.4803"/>
 <path d="m-292.35 244.69c23.86 0 27.117 21.807 27.117 50.874v53.932h-54.234v-53.932c0-31.717 7.3353-50.874 27.117-50.874z" fill="#81493c" stroke="#7f4c3a" stroke-width="2.4803"/>
 <rect x="-331.75" y="233.73" width="368.3" height="168.4" fill="#805745"/>
 <rect x="-331.66" y="215.97" width="368.44" height="22.58" fill="#864c3d"/>
 <path d="m-14.92 245.9c23.86 0 27.117 21.807 27.117 50.874v53.932h-54.234v-53.932c0-31.717 7.3353-50.874 27.117-50.874z" fill="#81493c" stroke="#7f4c3a" stroke-width="2.4803"/>
 <path d="m-87.776 245.9c23.86 0 27.117 21.807 27.117 50.874v53.932h-54.234v-53.932c0-31.717 7.3353-50.874 27.117-50.874z" fill="#81493c" stroke="#7f4c3a" stroke-width="2.4803"/>
 <path d="m-156.95 244.69c23.86 0 27.117 21.807 27.117 50.874v53.932h-54.234v-53.932c0-31.717 7.3353-50.874 27.117-50.874z" fill="#81493c" stroke="#7f4c3a" stroke-width="2.4803"/>
 <path d="m-222.55 245.9c23.86 0 27.117 21.807 27.117 50.874v53.932h-54.234v-53.932c0-31.717 7.3353-50.874 27.117-50.874z" fill="#81493c" stroke="#7f4c3a" stroke-width="2.4803"/>
 <path d="m-292.8 245.9c23.86 0 27.117 21.807 27.117 50.874v53.932h-54.234v-53.932c0-31.717 7.3353-50.874 27.117-50.874z" fill="#81493c" stroke="#7f4c3a" stroke-width="2.4803"/>
 <rect x="-331.75" y="278.39" width="368.3" height="77.253" fill="#805745"/>
 <rect x="-332.31" y="274.77" width="368.44" height="5.4318" fill="#784332"/>
 <g fill-rule="evenodd">
  <path d="m307.12 515.87-261.29 108.81 8.2917-412.32 252.9 99.796z" fill="#864c3d"/>
  <path d="m307.37 305.26-267.98-114.42v-197.84l267 202.22z" fill="#ddd6c6"/>
  <path d="m38.518 189.96 0.52037 30.401 267.52 98.07-0.16533-14.668z" fill="#7f8082"/>
  <path d="m305.62 377.82-269.58 10.699 3.1481-146.34 266.33 82.296z" fill="#92634f"/>
  <path d="m37.782 197.61 0.73592 26.396 268.04 94.427-0.16533-8.4234z" fill="#645451"/>
  <path d="m781 515.87 261.29 108.81-8.2917-412.32-252.9 99.796z" fill="#864c3d"/>
  <path d="m780.75 305.26 267.98-114.42v-197.84l-267 202.22z" fill="#ddd6c6"/>
  <path d="m1049.6 189.96-0.5204 30.401-267.52 98.07 0.16533-14.668z" fill="#7f8082"/>
  <path d="m1049.6 200.37-0.5204 19.993-267.52 98.07 0.16533-8.4234z" fill="#645451"/>
  <path d="m314.43 521.02h461.57l182.07 87.017-831.39-1.1958z" fill="#8c9292" fill-opacity=".98431" stroke="#000" stroke-width=".82578px"/>
 </g>
 <path d="m-292.62 255.56c17.119 0 19.455 19.923 19.455 46.479v49.273h-38.91v-49.273c0-28.977 5.2628-46.479 19.455-46.479z" fill="#181311"/>
 <rect transform="scale(1,-1)" x="371.99" y="-301.19" width="32.406" height="1.7551" fill="#fff"/>
 <rect transform="matrix(0,1,1,0,0,0)" x="252.68" y="403" width="47.456" height="1.7551" fill="#6b6d64"/>
 <rect transform="scale(1,-1)" x="519.54" y="-286.28" width="32.546" height="1.7551" fill="#6b6d64"/>
 <g transform="matrix(.62416 0 0 .52166 370.43 69.042)">
  <rect x="369.46" y="248.57" width="37.768" height="56.854" fill="#b9a67d"/>
  <rect x="366.7" y="303.55" width="42.3" height="1.8721" fill="#806e45" fill-opacity=".73163"/>
  <g transform="matrix(1 0 0 .97162 0 7.1645)">
   <rect x="372.22" y="252.45" width="32.447" height="49.101" fill="#4c4a41"/>
   <rect x="372.22" y="252.45" width="32.447" height="49.101" fill="url(#a)"/>
  </g>
  <rect transform="matrix(0,-1,-1,0,0,0)" x="-299.79" y="-391.16" width="47.317" height="5.2388" fill="#6b6d64"/>
  <rect transform="scale(1,-1)" x="372.13" y="-269" width="32.406" height="1.7551" fill="#6b6d64"/>
  <rect transform="scale(1,-1)" x="372.13" y="-286.28" width="32.546" height="1.7551" fill="#6b6d64"/>
  <rect transform="scale(1,-1)" x="372.2" y="-254.23" width="32.615" height="1.7551" fill="#55595d"/>
  <rect transform="scale(1,-1)" x="372.06" y="-300.21" width="32.337" height="1.7551" fill="#6b6d64"/>
  <rect transform="scale(1,-1)" x="372.26" y="-300.61" width="32.534" height=".97272" fill="#f6f7f6"/>
 </g>
 <g transform="matrix(.62416 0 0 .52166 370.43 69.042)">
  <rect x="369.46" y="248.57" width="37.768" height="56.854" fill="#b9a67d"/>
  <rect x="366.7" y="303.55" width="42.3" height="1.8721" fill="#806e45" fill-opacity=".73163"/>
  <g transform="matrix(1 0 0 .97162 0 7.1645)">
   <rect x="372.22" y="252.45" width="32.447" height="49.101" fill="#4c4a41"/>
   <rect x="372.22" y="252.45" width="32.447" height="49.101" fill="url(#a)"/>
  </g>
  <rect transform="matrix(0,-1,-1,0,0,0)" x="-299.79" y="-391.16" width="47.317" height="5.2388" fill="#6b6d64"/>
  <rect transform="scale(1,-1)" x="372.13" y="-269" width="32.406" height="1.7551" fill="#6b6d64"/>
  <rect transform="scale(1,-1)" x="372.13" y="-286.28" width="32.546" height="1.7551" fill="#6b6d64"/>
  <rect transform="scale(1,-1)" x="372.2" y="-254.23" width="32.615" height="1.7551" fill="#55595d"/>
  <rect transform="scale(1,-1)" x="372.06" y="-300.21" width="32.337" height="1.7551" fill="#6b6d64"/>
  <rect transform="scale(1,-1)" x="372.26" y="-300.61" width="32.534" height=".97272" fill="#f6f7f6"/>
 </g>
 <g transform="matrix(.62416 0 0 .52166 370.43 69.042)">
  <rect x="369.46" y="248.57" width="37.768" height="56.854" fill="#b9a67d"/>
  <rect x="366.7" y="303.55" width="42.3" height="1.8721" fill="#806e45" fill-opacity=".73163"/>
  <g transform="matrix(1 0 0 .97162 0 7.1645)">
   <rect x="372.22" y="252.45" width="32.447" height="49.101" fill="#4c4a41"/>
   <rect x="372.22" y="252.45" width="32.447" height="49.101" fill="url(#a)"/>
  </g>
  <rect transform="matrix(0,-1,-1,0,0,0)" x="-299.79" y="-391.16" width="47.317" height="5.2388" fill="#6b6d64"/>
  <rect transform="scale(1,-1)" x="372.13" y="-269" width="32.406" height="1.7551" fill="#6b6d64"/>
  <rect transform="scale(1,-1)" x="372.13" y="-286.28" width="32.546" height="1.7551" fill="#6b6d64"/>
  <rect transform="scale(1,-1)" x="372.2" y="-254.23" width="32.615" height="1.7551" fill="#55595d"/>
  <rect transform="scale(1,-1)" x="372.06" y="-300.21" width="32.337" height="1.7551" fill="#6b6d64"/>
  <rect transform="scale(1,-1)" x="372.26" y="-300.61" width="32.534" height=".97272" fill="#f6f7f6"/>
 </g>
 <g transform="matrix(.62416 0 0 .52166 370.43 69.042)">
  <rect x="369.46" y="248.57" width="37.768" height="56.854" fill="#b9a67d"/>
  <rect x="366.7" y="303.55" width="42.3" height="1.8721" fill="#806e45" fill-opacity=".73163"/>
  <g transform="matrix(1 0 0 .97162 0 7.1645)">
   <rect x="372.22" y="252.45" width="32.447" height="49.101" fill="#4c4a41"/>
   <rect x="372.22" y="252.45" width="32.447" height="49.101" fill="url(#a)"/>
  </g>
  <rect transform="matrix(0,-1,-1,0,0,0)" x="-299.79" y="-391.16" width="47.317" height="5.2388" fill="#6b6d64"/>
  <rect transform="scale(1,-1)" x="372.13" y="-269" width="32.406" height="1.7551" fill="#6b6d64"/>
  <rect transform="scale(1,-1)" x="372.13" y="-286.28" width="32.546" height="1.7551" fill="#6b6d64"/>
  <rect transform="scale(1,-1)" x="372.2" y="-254.23" width="32.615" height="1.7551" fill="#55595d"/>
  <rect transform="scale(1,-1)" x="372.06" y="-300.21" width="32.337" height="1.7551" fill="#6b6d64"/>
  <rect transform="scale(1,-1)" x="372.26" y="-300.61" width="32.534" height=".97272" fill="#f6f7f6"/>
 </g>
 <g transform="matrix(.62416 0 0 .52166 370.43 69.042)">
  <rect x="369.46" y="248.57" width="37.768" height="56.854" fill="#b9a67d"/>
  <rect x="366.7" y="303.55" width="42.3" height="1.8721" fill="#806e45" fill-opacity=".73163"/>
  <g transform="matrix(1 0 0 .97162 0 7.1645)">
   <rect x="372.22" y="252.45" width="32.447" height="49.101" fill="#4c4a41"/>
   <rect x="372.22" y="252.45" width="32.447" height="49.101" fill="url(#a)"/>
  </g>
  <rect transform="matrix(0,-1,-1,0,0,0)" x="-299.79" y="-391.16" width="47.317" height="5.2388" fill="#6b6d64"/>
  <rect transform="scale(1,-1)" x="372.13" y="-269" width="32.406" height="1.7551" fill="#6b6d64"/>
  <rect transform="scale(1,-1)" x="372.13" y="-286.28" width="32.546" height="1.7551" fill="#6b6d64"/>
  <rect transform="scale(1,-1)" x="372.2" y="-254.23" width="32.615" height="1.7551" fill="#55595d"/>
  <rect transform="scale(1,-1)" x="372.06" y="-300.21" width="32.337" height="1.7551" fill="#6b6d64"/>
  <rect transform="scale(1,-1)" x="372.26" y="-300.61" width="32.534" height=".97272" fill="#f6f7f6"/>
 </g>
 <g transform="matrix(.62416 0 0 .52166 370.43 69.042)">
  <rect x="369.46" y="248.57" width="37.768" height="56.854" fill="#b9a67d"/>
  <rect x="366.7" y="303.55" width="42.3" height="1.8721" fill="#806e45" fill-opacity=".73163"/>
  <g transform="matrix(1 0 0 .97162 0 7.1645)">
   <rect x="372.22" y="252.45" width="32.447" height="49.101" fill="#4c4a41"/>
   <rect x="372.22" y="252.45" width="32.447" height="49.101" fill="url(#a)"/>
  </g>
  <rect transform="matrix(0,-1,-1,0,0,0)" x="-299.79" y="-391.16" width="47.317" height="5.2388" fill="#6b6d64"/>
  <rect transform="scale(1,-1)" x="372.13" y="-269" width="32.406" height="1.7551" fill="#6b6d64"/>
  <rect transform="scale(1,-1)" x="372.13" y="-286.28" width="32.546" height="1.7551" fill="#6b6d64"/>
  <rect transform="scale(1,-1)" x="372.2" y="-254.23" width="32.615" height="1.7551" fill="#55595d"/>
  <rect transform="scale(1,-1)" x="372.06" y="-300.21" width="32.337" height="1.7551" fill="#6b6d64"/>
  <rect transform="scale(1,-1)" x="372.26" y="-300.61" width="32.534" height=".97272" fill="#f6f7f6"/>
 </g>
 <g transform="matrix(.62416 0 0 .52166 370.43 69.042)">
  <rect x="369.46" y="248.57" width="37.768" height="56.854" fill="#b9a67d"/>
  <rect x="366.7" y="303.55" width="42.3" height="1.8721" fill="#806e45" fill-opacity=".73163"/>
  <g transform="matrix(1 0 0 .97162 0 7.1645)">
   <rect x="372.22" y="252.45" width="32.447" height="49.101" fill="#4c4a41"/>
   <rect x="372.22" y="252.45" width="32.447" height="49.101" fill="url(#a)"/>
  </g>
  <rect transform="matrix(0,-1,-1,0,0,0)" x="-299.79" y="-391.16" width="47.317" height="5.2388" fill="#6b6d64"/>
  <rect transform="scale(1,-1)" x="372.13" y="-269" width="32.406" height="1.7551" fill="#6b6d64"/>
  <rect transform="scale(1,-1)" x="372.13" y="-286.28" width="32.546" height="1.7551" fill="#6b6d64"/>
  <rect transform="scale(1,-1)" x="372.2" y="-254.23" width="32.615" height="1.7551" fill="#55595d"/>
  <rect transform="scale(1,-1)" x="372.06" y="-300.21" width="32.337" height="1.7551" fill="#6b6d64"/>
  <rect transform="scale(1,-1)" x="372.26" y="-300.61" width="32.534" height=".97272" fill="#f6f7f6"/>
 </g>
 <g transform="matrix(.62416 0 0 .52166 370.43 69.042)">
  <rect x="369.46" y="248.57" width="37.768" height="56.854" fill="#b9a67d"/>
  <rect x="366.7" y="303.55" width="42.3" height="1.8721" fill="#806e45" fill-opacity=".73163"/>
  <g transform="matrix(1 0 0 .97162 0 7.1645)">
   <rect x="372.22" y="252.45" width="32.447" height="49.101" fill="#4c4a41"/>
   <rect x="372.22" y="252.45" width="32.447" height="49.101" fill="url(#a)"/>
  </g>
  <rect transform="matrix(0,-1,-1,0,0,0)" x="-299.79" y="-391.16" width="47.317" height="5.2388" fill="#6b6d64"/>
  <rect transform="scale(1,-1)" x="372.13" y="-269" width="32.406" height="1.7551" fill="#6b6d64"/>
  <rect transform="scale(1,-1)" x="372.13" y="-286.28" width="32.546" height="1.7551" fill="#6b6d64"/>
  <rect transform="scale(1,-1)" x="372.2" y="-254.23" width="32.615" height="1.7551" fill="#55595d"/>
  <rect transform="scale(1,-1)" x="372.06" y="-300.21" width="32.337" height="1.7551" fill="#6b6d64"/>
  <rect transform="scale(1,-1)" x="372.26" y="-300.61" width="32.534" height=".97272" fill="#f6f7f6"/>
 </g>
 <g transform="matrix(.62416 0 0 .52166 370.43 69.042)">
  <rect x="369.46" y="248.57" width="37.768" height="56.854" fill="#b9a67d"/>
  <rect x="366.7" y="303.55" width="42.3" height="1.8721" fill="#806e45" fill-opacity=".73163"/>
  <g transform="matrix(1 0 0 .97162 0 7.1645)">
   <rect x="372.22" y="252.45" width="32.447" height="49.101" fill="#4c4a41"/>
   <rect x="372.22" y="252.45" width="32.447" height="49.101" fill="url(#a)"/>
  </g>
  <rect transform="matrix(0,-1,-1,0,0,0)" x="-299.79" y="-391.16" width="47.317" height="5.2388" fill="#6b6d64"/>
  <rect transform="scale(1,-1)" x="372.13" y="-269" width="32.406" height="1.7551" fill="#6b6d64"/>
  <rect transform="scale(1,-1)" x="372.13" y="-286.28" width="32.546" height="1.7551" fill="#6b6d64"/>
  <rect transform="scale(1,-1)" x="372.2" y="-254.23" width="32.615" height="1.7551" fill="#55595d"/>
  <rect transform="scale(1,-1)" x="372.06" y="-300.21" width="32.337" height="1.7551" fill="#6b6d64"/>
  <rect transform="scale(1,-1)" x="372.26" y="-300.61" width="32.534" height=".97272" fill="#f6f7f6"/>
 </g>
 <g transform="matrix(.62416 0 0 .52166 370.43 69.042)">
  <rect x="369.46" y="248.57" width="37.768" height="56.854" fill="#b9a67d"/>
  <rect x="366.7" y="303.55" width="42.3" height="1.8721" fill="#806e45" fill-opacity=".73163"/>
  <g transform="matrix(1 0 0 .97162 0 7.1645)">
   <rect x="372.22" y="252.45" width="32.447" height="49.101" fill="#4c4a41"/>
   <rect x="372.22" y="252.45" width="32.447" height="49.101" fill="url(#a)"/>
  </g>
  <rect transform="matrix(0,-1,-1,0,0,0)" x="-299.79" y="-391.16" width="47.317" height="5.2388" fill="#6b6d64"/>
  <rect transform="scale(1,-1)" x="372.13" y="-269" width="32.406" height="1.7551" fill="#6b6d64"/>
  <rect transform="scale(1,-1)" x="372.13" y="-286.28" width="32.546" height="1.7551" fill="#6b6d64"/>
  <rect transform="scale(1,-1)" x="372.2" y="-254.23" width="32.615" height="1.7551" fill="#55595d"/>
  <rect transform="scale(1,-1)" x="372.06" y="-300.21" width="32.337" height="1.7551" fill="#6b6d64"/>
  <rect transform="scale(1,-1)" x="372.26" y="-300.61" width="32.534" height=".97272" fill="#f6f7f6"/>
 </g>
 <g transform="matrix(.62416 0 0 .52166 370.43 69.042)">
  <rect x="369.46" y="248.57" width="37.768" height="56.854" fill="#b9a67d"/>
  <rect x="366.7" y="303.55" width="42.3" height="1.8721" fill="#806e45" fill-opacity=".73163"/>
  <g transform="matrix(1 0 0 .97162 0 7.1645)">
   <rect x="372.22" y="252.45" width="32.447" height="49.101" fill="#4c4a41"/>
   <rect x="372.22" y="252.45" width="32.447" height="49.101" fill="url(#a)"/>
  </g>
  <rect transform="matrix(0,-1,-1,0,0,0)" x="-299.79" y="-391.16" width="47.317" height="5.2388" fill="#6b6d64"/>
  <rect transform="scale(1,-1)" x="372.13" y="-269" width="32.406" height="1.7551" fill="#6b6d64"/>
  <rect transform="scale(1,-1)" x="372.13" y="-286.28" width="32.546" height="1.7551" fill="#6b6d64"/>
  <rect transform="scale(1,-1)" x="372.2" y="-254.23" width="32.615" height="1.7551" fill="#55595d"/>
  <rect transform="scale(1,-1)" x="372.06" y="-300.21" width="32.337" height="1.7551" fill="#6b6d64"/>
  <rect transform="scale(1,-1)" x="372.26" y="-300.61" width="32.534" height=".97272" fill="#f6f7f6"/>
 </g>
 <g transform="matrix(.62416 0 0 .52166 370.43 69.042)">
  <rect x="369.46" y="248.57" width="37.768" height="56.854" fill="#b9a67d"/>
  <rect x="366.7" y="303.55" width="42.3" height="1.8721" fill="#806e45" fill-opacity=".73163"/>
  <g transform="matrix(1 0 0 .97162 0 7.1645)">
   <rect x="372.22" y="252.45" width="32.447" height="49.101" fill="#4c4a41"/>
   <rect x="372.22" y="252.45" width="32.447" height="49.101" fill="url(#a)"/>
  </g>
  <rect transform="matrix(0,-1,-1,0,0,0)" x="-299.79" y="-391.16" width="47.317" height="5.2388" fill="#6b6d64"/>
  <rect transform="scale(1,-1)" x="372.13" y="-269" width="32.406" height="1.7551" fill="#6b6d64"/>
  <rect transform="scale(1,-1)" x="372.13" y="-286.28" width="32.546" height="1.7551" fill="#6b6d64"/>
  <rect transform="scale(1,-1)" x="372.2" y="-254.23" width="32.615" height="1.7551" fill="#55595d"/>
  <rect transform="scale(1,-1)" x="372.06" y="-300.21" width="32.337" height="1.7551" fill="#6b6d64"/>
  <rect transform="scale(1,-1)" x="372.26" y="-300.61" width="32.534" height=".97272" fill="#f6f7f6"/>
 </g>
 <rect x="381.49" y="490.89" width="15.894" height="23.93" fill="#744035"/>
 <rect x="304.15" y="491.17" width="15.894" height="23.93" fill="#744035"/>
 <rect x="305.73" y="342.49" width="477.16" height="3.9018" fill="#90513d"/>
 <rect x="306.57" y="396.84" width="477.16" height="118.17" fill="#864c3d"/>
 <rect x="306.57" y="390.41" width="477.16" height="6.6887" fill="#64392d"/>
 <circle cx="388.58" cy="413.41" r="11.539" fill="#181311" stroke="#fff" stroke-width=".82847"/>
 <circle cx="465.83" cy="413.41" r="11.539" fill="#181311" stroke="#fff" stroke-width=".82847"/>
 <circle cx="542.29" cy="413.41" r="11.539" fill="#181311" stroke="#fff" stroke-width=".82847"/>
 <circle cx="619.94" cy="413.41" r="11.539" fill="#181311" stroke="#fff" stroke-width=".82847"/>
 <circle cx="697.19" cy="413.41" r="11.539" fill="#181311" stroke="#fff" stroke-width=".82847"/>
 <path d="m735.77 421.03c27.667 0 31.442 19.464 31.442 45.408v48.138h-62.885v-48.138c0-28.309 8.5054-45.408 31.442-45.408z" fill="#181311" stroke="#fff" stroke-width="1.2241"/>
 <path d="m735.38 413.64c32.383 0 36.802 22.538 36.802 52.581v55.741h-73.604v-55.741c0-32.781 9.9552-52.581 36.802-52.581z" fill-opacity="0" stroke="#fff" stroke-width="1.4251"/>
 <g transform="translate(76.463 1.1824)">
  <rect x="535.83" y="451.18" width="16.664" height="39.714" fill="#fff"/>
  <path d="m504.89 420.6c27.667 0 31.442 19.464 31.442 45.408v48.138h-62.885v-48.138c0-28.309 8.5054-45.408 31.442-45.408z" fill="#181311" stroke="#fff" stroke-width="1.2241"/>
  <path d="m504.5 413.21c32.383 0 36.802 22.538 36.802 52.581v55.741h-73.604v-55.741c0-32.781 9.9552-52.581 36.802-52.581z" fill-opacity="0" stroke="#fff" stroke-width="1.4251"/>
  <rect x="532.73" y="449.28" width="22.848" height="2.3648" fill="#fff"/>
  <rect x="533.68" y="484.91" width="20.949" height="5.992" fill="#fff"/>
  <rect x="534" y="457.22" width="20.309" height="1.1107" fill="#a5a5a5"/>
  <rect x="534" y="451.51" width="20.309" height="1.1107" fill="#a5a5a5"/>
  <rect x="533.84" y="487.74" width="20.309" height="1.1107" fill="#a5a5a5"/>
  <rect x="534" y="452.9" width="20.309" height="4.5944" fill="#fff"/>
 </g>
 <rect x="535.83" y="451.18" width="16.664" height="39.714" fill="#fff"/>
 <path d="m504.89 420.6c27.667 0 31.442 19.464 31.442 45.408v48.138h-62.885v-48.138c0-28.309 8.5054-45.408 31.442-45.408z" fill="#181311" stroke="#fff" stroke-width="1.2241"/>
 <path d="m504.5 413.21c32.383 0 36.802 22.538 36.802 52.581v55.741h-73.604v-55.741c0-32.781 9.9552-52.581 36.802-52.581z" fill-opacity="0" stroke="#fff" stroke-width="1.4251"/>
 <rect x="532.73" y="449.28" width="22.848" height="2.3648" fill="#fff"/>
 <rect x="533.68" y="484.91" width="20.949" height="5.992" fill="#fff"/>
 <rect x="534" y="457.22" width="20.309" height="1.1107" fill="#a5a5a5"/>
 <rect x="534" y="451.51" width="20.309" height="1.1107" fill="#a5a5a5"/>
 <rect x="533.84" y="487.74" width="20.309" height="1.1107" fill="#a5a5a5"/>
 <rect x="534" y="452.9" width="20.309" height="4.5944" fill="#fff"/>
 <g transform="translate(-76.857)">
  <rect x="535.83" y="451.18" width="16.664" height="39.714" fill="#fff"/>
  <path d="m504.89 420.6c27.667 0 31.442 19.464 31.442 45.408v48.138h-62.885v-48.138c0-28.309 8.5054-45.408 31.442-45.408z" fill="#181311" stroke="#fff" stroke-width="1.2241"/>
  <path d="m504.5 413.21c32.383 0 36.802 22.538 36.802 52.581v55.741h-73.604v-55.741c0-32.781 9.9552-52.581 36.802-52.581z" fill-opacity="0" stroke="#fff" stroke-width="1.4251"/>
  <rect x="532.73" y="449.28" width="22.848" height="2.3648" fill="#fff"/>
  <rect x="533.68" y="484.91" width="20.949" height="5.992" fill="#fff"/>
  <rect x="534" y="457.22" width="20.309" height="1.1107" fill="#a5a5a5"/>
  <rect x="534" y="451.51" width="20.309" height="1.1107" fill="#a5a5a5"/>
  <rect x="533.84" y="487.74" width="20.309" height="1.1107" fill="#a5a5a5"/>
  <rect x="534" y="452.9" width="20.309" height="4.5944" fill="#fff"/>
 </g>
 <g transform="translate(-154.11)">
  <rect x="535.83" y="451.18" width="16.664" height="39.714" fill="#fff" opacity=".96"/>
  <path d="m504.89 420.6c27.667 0 31.442 19.464 31.442 45.408v48.138h-62.885v-48.138c0-28.309 8.5054-45.408 31.442-45.408z" fill="#181311" stroke="#fff" stroke-width="1.2241"/>
  <path d="m504.5 413.21c32.383 0 36.802 22.538 36.802 52.581v55.741h-73.604v-55.741c0-32.781 9.9552-52.581 36.802-52.581z" fill-opacity="0" stroke="#fff" stroke-width="1.4251"/>
  <rect x="532.73" y="449.28" width="22.848" height="2.3648" fill="#fff"/>
  <rect x="533.68" y="484.91" width="20.949" height="5.992" fill="#fff"/>
  <rect x="534" y="457.22" width="20.309" height="1.1107" fill="#a5a5a5"/>
  <rect x="534" y="451.51" width="20.309" height="1.1107" fill="#a5a5a5"/>
  <rect x="533.84" y="487.74" width="20.309" height="1.1107" fill="#a5a5a5"/>
  <rect x="534" y="452.9" width="20.309" height="4.5944" fill="#fff"/>
 </g>
 <path d="m430.17 330c12.585 0 14.303 10.07 14.303 23.492v24.904h-28.605v-24.904c0-14.646 3.869-23.492 14.303-23.492z" fill="#81493c" stroke="#7f4c3a" stroke-width="1.2241"/>
 <path d="m466.65 330.56c12.585 0 14.303 10.07 14.303 23.492v24.904h-28.605v-24.904c0-14.646 3.869-23.492 14.303-23.492z" fill="#81493c" stroke="#7f4c3a" stroke-width="1.2241"/>
 <path d="m505.98 330c12.585 0 14.303 10.07 14.303 23.492v24.904h-28.605v-24.904c0-14.646 3.869-23.492 14.303-23.492z" fill="#81493c" stroke="#7f4c3a" stroke-width="1.2241"/>
 <path d="m542.46 330.56c12.585 0 14.303 10.07 14.303 23.492v24.904h-28.605v-24.904c0-14.646 3.869-23.492 14.303-23.492z" fill="#81493c" stroke="#7f4c3a" stroke-width="1.2241"/>
 <path d="m582.48 330c12.585 0 14.303 10.07 14.303 23.492v24.904h-28.605v-24.904c0-14.646 3.869-23.492 14.303-23.492z" fill="#81493c" stroke="#7f4c3a" stroke-width="1.2241"/>
 <path d="m618.96 330.56c12.585 0 14.303 10.07 14.303 23.492v24.904h-28.605v-24.904c0-14.646 3.869-23.492 14.303-23.492z" fill="#81493c" stroke="#7f4c3a" stroke-width="1.2241"/>
 <path d="m657.87 330c12.585 0 14.303 10.07 14.303 23.492v24.904h-28.605v-24.904c0-14.646 3.869-23.492 14.303-23.492z" fill="#81493c" stroke="#7f4c3a" stroke-width="1.2241"/>
 <path d="m694.35 330.56c12.585 0 14.303 10.07 14.303 23.492v24.904h-28.605v-24.904c0-14.646 3.869-23.492 14.303-23.492z" fill="#81493c" stroke="#7f4c3a" stroke-width="1.2241"/>
 <path d="m733.25 330c12.585 0 14.303 10.07 14.303 23.492v24.904h-28.605v-24.904c0-14.646 3.869-23.492 14.303-23.492z" fill="#81493c" stroke="#7f4c3a" stroke-width="1.2241"/>
 <path d="m390.73 334.88c9.0292 0 10.261 9.1999 10.261 21.463v22.753h-20.523v-22.753c0-13.381 2.7758-21.463 10.261-21.463z" fill="url(#h)"/>
 <rect x="306.46" y="324.93" width="476.99" height="66.887" fill="#92634f"/>
 <path d="m390.85 330.56c12.585 0 14.303 10.07 14.303 23.492v24.904h-28.605v-24.904c0-14.646 3.869-23.492 14.303-23.492z" fill="#81493c" stroke="#7f4c3a" stroke-width="1.2241"/>
 <path d="m354.36 330c12.585 0 14.303 10.07 14.303 23.492v24.904h-28.605v-24.904c0-14.646 3.869-23.492 14.303-23.492z" fill="#81493c" stroke="#7f4c3a" stroke-width="1.2241"/>
 <rect x="306.57" y="320.47" width="477.16" height="6.6887" fill="#864c3d"/>
 <rect x="306.46" y="345.56" width="476.99" height="35.673" fill="#92634f"/>
 <rect x="305.73" y="343.88" width="477.16" height="2.5083" fill="#784332"/>
 <path d="m354.22 335.01c9.0292 0 10.261 9.1999 10.261 21.463v22.753h-20.523v-22.753c0-13.381 2.7758-21.463 10.261-21.463z" fill="#181311"/>
 <path d="m391.15 335.71c8.9066 0 10.122 9.0259 10.122 21.057v22.323h-20.244v-22.323c0-13.128 2.7381-21.057 10.122-21.057z" fill="#9e6b56" stroke="#141414" stroke-opacity=".28986" stroke-width=".4"/>
 <path d="m430.03 335.01c9.0292 0 10.261 9.1999 10.261 21.463v22.753h-20.523v-22.753c0-13.381 2.7758-21.463 10.261-21.463z" fill="#181311"/>
 <path d="m466.54 334.88c9.0292 0 10.261 9.1999 10.261 21.463v22.753h-20.523v-22.753c0-13.381 2.7758-21.463 10.261-21.463z" fill="url(#i)"/>
 <path d="m466.96 335.71c8.9066 0 10.122 9.0259 10.122 21.057v22.323h-20.244v-22.323c0-13.128 2.7381-21.057 10.122-21.057z" fill="#9e6b56" stroke="#141414" stroke-opacity=".28986" stroke-width=".4"/>
 <path d="m505.84 335.01c9.0292 0 10.261 9.1999 10.261 21.463v22.753h-20.523v-22.753c0-13.381 2.7758-21.463 10.261-21.463z" fill="#181311"/>
 <path d="m542.35 334.88c9.0292 0 10.261 9.1999 10.261 21.463v22.753h-20.523v-22.753c0-13.381 2.7758-21.463 10.261-21.463z" fill="url(#j)"/>
 <path d="m542.76 335.71c8.9066 0 10.122 9.0259 10.122 21.057v22.323h-20.244v-22.323c0-13.128 2.7381-21.057 10.122-21.057z" fill="#9e6b56" stroke="#141414" stroke-opacity=".28986" stroke-width=".4"/>
 <path d="m582.34 335.01c9.0292 0 10.261 9.1999 10.261 21.463v22.753h-20.523v-22.753c0-13.381 2.7758-21.463 10.261-21.463z" fill="#181311"/>
 <path d="m618.85 334.88c9.0292 0 10.261 9.1999 10.261 21.463v22.753h-20.523v-22.753c0-13.381 2.7758-21.463 10.261-21.463z" fill="url(#k)"/>
 <path d="m619.27 335.71c8.9066 0 10.122 9.0259 10.122 21.057v22.323h-20.244v-22.323c0-13.128 2.7381-21.057 10.122-21.057z" fill="#9e6b56" stroke="#141414" stroke-opacity=".28986" stroke-width=".4"/>
 <path d="m657.73 335.01c9.0292 0 10.261 9.1999 10.261 21.463v22.753h-20.523v-22.753c0-13.381 2.7758-21.463 10.261-21.463z" fill="#181311"/>
 <path d="m694.24 334.88c9.0292 0 10.261 9.1999 10.261 21.463v22.753h-20.523v-22.753c0-13.381 2.7758-21.463 10.261-21.463z" fill="url(#l)"/>
 <path d="m694.65 335.71c8.9066 0 10.122 9.0259 10.122 21.057v22.323h-20.244v-22.323c0-13.128 2.7381-21.057 10.122-21.057z" fill="#9e6b56" stroke="#141414" stroke-opacity=".28986" stroke-width=".4"/>
 <path d="m733.11 335.01c9.0292 0 10.261 9.1999 10.261 21.463v22.753h-20.523v-22.753c0-13.381 2.7758-21.463 10.261-21.463z" fill="#181311"/>
 <rect x="306.57" y="378.44" width="477.16" height="6.6887" fill="#64392d"/>
 <rect x="306.57" y="383.17" width="477.16" height="1.9591" fill="#fbf8f7" fill-opacity=".48309"/>
 <rect x="305.78" y="303.13" width="477.16" height="18.513" fill="#645451"/>
 <rect x="305.78" y="303.13" width="477.16" height="7.477" fill="#7f8082"/>
 <rect transform="scale(1,-1)" x="305.78" y="-303.13" width="477.16" height="106.82" fill="#ddd6c6"/>
 <rect x="305.78" y="188.83" width="477.16" height="7.477" fill="#928973"/>
 <rect transform="scale(1,-1)" x="305.78" y="-188.83" width="477.16" height="9.0768" fill="#736563"/>
 <rect x="305.78" y="318.74" width="477.16" height="2.9058" fill="#171412" fill-opacity=".49275"/>
 <rect x="305.78" y="188.83" width="477.16" height="3.0179"/>
 <rect x="690.16" y="491.3" width="15.894" height="24.209" fill="#744035"/>
 <rect x="458.55" y="490.89" width="15.894" height="24.209" fill="#744035"/>
 <g transform="translate(71.339)">
  <rect x="369.46" y="248.57" width="37.768" height="56.854" fill="#b9a67d"/>
  <rect x="366.7" y="303.55" width="42.3" height="1.8721" fill="#806e45" fill-opacity=".73163"/>
  <g transform="matrix(1 0 0 .97162 0 7.1645)">
   <rect x="372.22" y="252.45" width="32.447" height="49.101" fill="#4c4a41"/>
   <rect x="372.22" y="252.45" width="32.447" height="49.101" fill="url(#a)"/>
  </g>
  <rect transform="matrix(0,-1,-1,0,0,0)" x="-299.79" y="-391.16" width="47.317" height="5.2388" fill="#6b6d64"/>
  <rect transform="scale(1,-1)" x="372.13" y="-269" width="32.406" height="1.7551" fill="#6b6d64"/>
  <rect transform="scale(1,-1)" x="372.13" y="-286.28" width="32.546" height="1.7551" fill="#6b6d64"/>
  <rect transform="scale(1,-1)" x="372.2" y="-254.23" width="32.615" height="1.7551" fill="#55595d"/>
  <rect transform="scale(1,-1)" x="372.06" y="-300.21" width="32.337" height="1.7551" fill="#6b6d64"/>
 </g>
 <rect x="516.86" y="248.57" width="37.768" height="56.854" fill="#b9a67d"/>
 <rect x="514.11" y="303.55" width="42.3" height="1.8721" fill="#806e45" fill-opacity=".73163"/>
 <g transform="matrix(1 0 0 .97162 147.41 7.1645)">
  <rect x="372.22" y="252.45" width="32.447" height="49.101" fill="#4c4a41"/>
  <rect x="372.22" y="252.45" width="32.447" height="49.101" fill="url(#a)"/>
 </g>
 <rect transform="matrix(0,-1,-1,0,0,0)" x="-299.79" y="-538.57" width="47.317" height="5.2388" fill="#6b6d64"/>
 <rect transform="scale(1,-1)" x="519.54" y="-269" width="32.406" height="1.7551" fill="#6b6d64"/>
 <rect transform="scale(1,-1)" x="519.61" y="-254.23" width="32.615" height="1.7551" fill="#55595d"/>
 <rect transform="scale(1,-1)" x="519.47" y="-300.21" width="32.337" height="1.7551" fill="#6b6d64"/>
 <g transform="translate(226.63 -.78828)">
  <rect x="369.46" y="248.57" width="37.768" height="56.854" fill="#b9a67d"/>
  <rect x="366.7" y="303.55" width="42.3" height="1.8721" fill="#806e45" fill-opacity=".73163"/>
  <g transform="matrix(1 0 0 .97162 0 7.1645)">
   <rect x="372.22" y="252.45" width="32.447" height="49.101" fill="#4c4a41"/>
   <rect x="372.22" y="252.45" width="32.447" height="49.101" fill="url(#a)"/>
  </g>
  <rect transform="matrix(0,-1,-1,0,0,0)" x="-299.79" y="-391.16" width="47.317" height="5.2388" fill="#6b6d64"/>
  <rect transform="scale(1,-1)" x="372.13" y="-269" width="32.406" height="1.7551" fill="#6b6d64"/>
  <rect transform="scale(1,-1)" x="372.13" y="-286.28" width="32.546" height="1.7551" fill="#6b6d64"/>
  <rect transform="scale(1,-1)" x="372.2" y="-254.23" width="32.615" height="1.7551" fill="#55595d"/>
  <rect transform="scale(1,-1)" x="372.06" y="-300.21" width="32.337" height="1.7551" fill="#6b6d64"/>
 </g>
 <g transform="translate(296 -.78828)">
  <rect x="369.46" y="248.57" width="37.768" height="56.854" fill="#b9a67d"/>
  <rect x="366.7" y="303.55" width="42.3" height="1.8721" fill="#806e45" fill-opacity=".73163"/>
  <g transform="matrix(1 0 0 .97162 0 7.1645)">
   <rect x="372.22" y="252.45" width="32.447" height="49.101" fill="#4c4a41"/>
   <rect x="372.22" y="252.45" width="32.447" height="49.101" fill="url(#a)"/>
  </g>
  <rect transform="matrix(0,-1,-1,0,0,0)" x="-299.79" y="-391.16" width="47.317" height="5.2388" fill="#6b6d64"/>
  <rect transform="scale(1,-1)" x="372.13" y="-269" width="32.406" height="1.7551" fill="#6b6d64"/>
  <rect transform="scale(1,-1)" x="372.13" y="-286.28" width="32.546" height="1.7551" fill="#6b6d64"/>
  <rect transform="scale(1,-1)" x="372.2" y="-254.23" width="32.615" height="1.7551" fill="#55595d"/>
  <rect transform="scale(1,-1)" x="372.06" y="-300.21" width="32.337" height="1.7551" fill="#6b6d64"/>
 </g>
 <rect transform="scale(1,-1)" x="519.47" y="-300.61" width="32.534" height=".97272" fill="#f6f7f6"/>
 <rect transform="scale(1,-1)" x="598.89" y="-300.21" width="32.337" height=".96683" fill="#f6f7f6"/>
 <rect transform="scale(1,-1)" x="668.26" y="-300.21" width="32.337" height=".96683" fill="#f6f7f6"/>
 <rect transform="scale(1,-1)" x="443.6" y="-300.61" width="32.534" height=".97272" fill="#f6f7f6"/>
 <rect x="369.46" y="248.57" width="37.768" height="56.854" fill="#b9a67d"/>
 <rect x="366.7" y="303.55" width="42.3" height="1.8721" fill="#806e45" fill-opacity=".73163"/>
 <g transform="matrix(1 0 0 .97162 0 7.1645)">
  <rect x="372.22" y="252.45" width="32.447" height="49.101" fill="#4c4a41"/>
  <rect x="372.22" y="252.45" width="32.447" height="49.101" fill="url(#a)"/>
 </g>
 <rect transform="matrix(0,-1,-1,0,0,0)" x="-299.79" y="-391.16" width="47.317" height="5.2388" fill="#6b6d64"/>
 <rect transform="scale(1,-1)" x="372.13" y="-269" width="32.406" height="1.7551" fill="#6b6d64"/>
 <rect transform="scale(1,-1)" x="372.13" y="-286.28" width="32.546" height="1.7551" fill="#6b6d64"/>
 <rect transform="scale(1,-1)" x="372.2" y="-254.23" width="32.615" height="1.7551" fill="#55595d"/>
 <rect transform="scale(1,-1)" x="372.06" y="-300.21" width="32.337" height="1.7551" fill="#6b6d64"/>
 <rect transform="scale(1,-1)" x="372.26" y="-300.61" width="32.534" height=".97272" fill="#f6f7f6"/>
 <g transform="matrix(.62416 0 0 .52166 146.36 69.042)">
  <rect x="369.46" y="248.57" width="37.768" height="56.854" fill="#b9a67d"/>
  <rect x="366.7" y="303.55" width="42.3" height="1.8721" fill="#806e45" fill-opacity=".73163"/>
  <g transform="matrix(1 0 0 .97162 0 7.1645)">
   <rect x="372.22" y="252.45" width="32.447" height="49.101" fill="#4c4a41"/>
   <rect x="372.22" y="252.45" width="32.447" height="49.101" fill="url(#a)"/>
  </g>
  <rect transform="matrix(0,-1,-1,0,0,0)" x="-299.79" y="-391.16" width="47.317" height="5.2388" fill="#6b6d64"/>
  <rect transform="scale(1,-1)" x="372.13" y="-269" width="32.406" height="1.7551" fill="#6b6d64"/>
  <rect transform="scale(1,-1)" x="372.13" y="-286.28" width="32.546" height="1.7551" fill="#6b6d64"/>
  <rect transform="scale(1,-1)" x="372.2" y="-254.23" width="32.615" height="1.7551" fill="#55595d"/>
  <rect transform="scale(1,-1)" x="372.06" y="-300.21" width="32.337" height="1.7551" fill="#6b6d64"/>
  <rect transform="scale(1,-1)" x="372.26" y="-300.61" width="32.534" height=".97272" fill="#f6f7f6"/>
 </g>
 <g transform="matrix(.62416 0 0 .52166 216.91 69.042)">
  <rect x="369.46" y="248.57" width="37.768" height="56.854" fill="#b9a67d"/>
  <rect x="366.7" y="303.55" width="42.3" height="1.8721" fill="#806e45" fill-opacity=".73163"/>
  <g transform="matrix(1 0 0 .97162 0 7.1645)">
   <rect x="372.22" y="252.45" width="32.447" height="49.101" fill="#4c4a41"/>
   <rect x="372.22" y="252.45" width="32.447" height="49.101" fill="url(#a)"/>
  </g>
  <rect transform="matrix(0,-1,-1,0,0,0)" x="-299.79" y="-391.16" width="47.317" height="5.2388" fill="#6b6d64"/>
  <rect transform="scale(1,-1)" x="372.13" y="-269" width="32.406" height="1.7551" fill="#6b6d64"/>
  <rect transform="scale(1,-1)" x="372.13" y="-286.28" width="32.546" height="1.7551" fill="#6b6d64"/>
  <rect transform="scale(1,-1)" x="372.2" y="-254.23" width="32.615" height="1.7551" fill="#55595d"/>
  <rect transform="scale(1,-1)" x="372.06" y="-300.21" width="32.337" height="1.7551" fill="#6b6d64"/>
  <rect transform="scale(1,-1)" x="372.26" y="-300.61" width="32.534" height=".97272" fill="#f6f7f6"/>
 </g>
 <g transform="matrix(.62416 0 0 .52166 294.75 69.042)">
  <rect x="369.46" y="248.57" width="37.768" height="56.854" fill="#b9a67d"/>
  <rect x="366.7" y="303.55" width="42.3" height="1.8721" fill="#806e45" fill-opacity=".73163"/>
  <g transform="matrix(1 0 0 .97162 0 7.1645)">
   <rect x="372.22" y="252.45" width="32.447" height="49.101" fill="#4c4a41"/>
   <rect x="372.22" y="252.45" width="32.447" height="49.101" fill="url(#a)"/>
  </g>
  <rect transform="matrix(0,-1,-1,0,0,0)" x="-299.79" y="-391.16" width="47.317" height="5.2388" fill="#6b6d64"/>
  <rect transform="scale(1,-1)" x="372.13" y="-269" width="32.406" height="1.7551" fill="#6b6d64"/>
  <rect transform="scale(1,-1)" x="372.13" y="-286.28" width="32.546" height="1.7551" fill="#6b6d64"/>
  <rect transform="scale(1,-1)" x="372.2" y="-254.23" width="32.615" height="1.7551" fill="#55595d"/>
  <rect transform="scale(1,-1)" x="372.06" y="-300.21" width="32.337" height="1.7551" fill="#6b6d64"/>
  <rect transform="scale(1,-1)" x="372.26" y="-300.61" width="32.534" height=".97272" fill="#f6f7f6"/>
 </g>
 <g transform="matrix(.62416 0 0 .52166 370.43 69.042)">
  <rect x="369.46" y="248.57" width="37.768" height="56.854" fill="#b9a67d"/>
  <rect x="366.7" y="303.55" width="42.3" height="1.8721" fill="#806e45" fill-opacity=".73163"/>
  <g transform="matrix(1 0 0 .97162 0 7.1645)">
   <rect x="372.22" y="252.45" width="32.447" height="49.101" fill="#4c4a41"/>
   <rect x="372.22" y="252.45" width="32.447" height="49.101" fill="url(#a)"/>
  </g>
  <rect transform="matrix(0,-1,-1,0,0,0)" x="-299.79" y="-391.16" width="47.317" height="5.2388" fill="#6b6d64"/>
  <rect transform="scale(1,-1)" x="372.13" y="-269" width="32.406" height="1.7551" fill="#6b6d64"/>
  <rect transform="scale(1,-1)" x="372.13" y="-286.28" width="32.546" height="1.7551" fill="#6b6d64"/>
  <rect transform="scale(1,-1)" x="372.2" y="-254.23" width="32.615" height="1.7551" fill="#55595d"/>
  <rect transform="scale(1,-1)" x="372.06" y="-300.21" width="32.337" height="1.7551" fill="#6b6d64"/>
  <rect transform="scale(1,-1)" x="372.26" y="-300.61" width="32.534" height=".97272" fill="#f6f7f6"/>
 </g>
 <g transform="matrix(.62416 0 0 .52166 370.43 69.042)">
  <rect x="369.46" y="248.57" width="37.768" height="56.854" fill="#b9a67d"/>
  <rect x="366.7" y="303.55" width="42.3" height="1.8721" fill="#806e45" fill-opacity=".73163"/>
  <g transform="matrix(1 0 0 .97162 0 7.1645)">
   <rect x="372.22" y="252.45" width="32.447" height="49.101" fill="#4c4a41"/>
   <rect x="372.22" y="252.45" width="32.447" height="49.101" fill="url(#a)"/>
  </g>
  <rect transform="matrix(0,-1,-1,0,0,0)" x="-299.79" y="-391.16" width="47.317" height="5.2388" fill="#6b6d64"/>
  <rect transform="scale(1,-1)" x="372.13" y="-269" width="32.406" height="1.7551" fill="#6b6d64"/>
  <rect transform="scale(1,-1)" x="372.13" y="-286.28" width="32.546" height="1.7551" fill="#6b6d64"/>
  <rect transform="scale(1,-1)" x="372.2" y="-254.23" width="32.615" height="1.7551" fill="#55595d"/>
  <rect transform="scale(1,-1)" x="372.06" y="-300.21" width="32.337" height="1.7551" fill="#6b6d64"/>
 </g>
 <rect transform="scale(1,-1)" x="602.78" y="-225.86" width="20.306" height=".50743" fill="#f6f7f6"/>
 <rect x="719.6" y="151.58" width="15.607" height="33.444" fill="#ddd6c6"/>
 <rect transform="scale(1,-1)" x="719.6" y="-151.58" width="15.607" height="3.9018" fill="#b1a17d"/>
 <rect x="535.43" y="490.9" width="15.894" height="24.209" fill="#744035"/>
 <g transform="matrix(.62416 0 0 .52166 443.34 69.042)">
  <rect x="369.46" y="248.57" width="37.768" height="56.854" fill="#b9a67d"/>
  <rect x="366.7" y="303.55" width="42.3" height="1.8721" fill="#806e45" fill-opacity=".73163"/>
  <g transform="matrix(1 0 0 .97162 0 7.1645)">
   <rect x="372.22" y="252.45" width="32.447" height="49.101" fill="#4c4a41"/>
   <rect x="372.22" y="252.45" width="32.447" height="49.101" fill="url(#a)"/>
  </g>
  <rect transform="matrix(0,-1,-1,0,0,0)" x="-299.79" y="-391.16" width="47.317" height="5.2388" fill="#6b6d64"/>
  <rect transform="scale(1,-1)" x="372.13" y="-269" width="32.406" height="1.7551" fill="#6b6d64"/>
  <rect transform="scale(1,-1)" x="372.13" y="-286.28" width="32.546" height="1.7551" fill="#6b6d64"/>
  <rect transform="scale(1,-1)" x="372.2" y="-254.23" width="32.615" height="1.7551" fill="#55595d"/>
  <rect transform="scale(1,-1)" x="372.06" y="-300.21" width="32.337" height="1.7551" fill="#6b6d64"/>
 </g>
 <rect x="381.69" y="490.89" width="15.894" height="24.209" fill="#744035"/>
 <rect x="305.23" y="490.89" width="15.894" height="24.209" fill="#744035"/>
 <rect x="765.58" y="491.28" width="15.894" height="24.209" fill="#744035"/>
 <rect x="534.88" y="372.03" width="15.766" height="6.3062" fill="#c0c0c0"/>
 <rect transform="rotate(90)" x="355.87" y="-545.13" width="17.342" height="4.7297" fill="#c0c0c0"/>
 <rect transform="scale(-1)" x="-551.43" y="-366.9" width="17.342" height="4.7297" fill="#c0c0c0"/>
 <g transform="translate(154.42 .43525)">
  <rect x="535.83" y="451.18" width="16.664" height="39.714" fill="#fff"/>
  <path d="m504.89 420.6c27.667 0 31.442 19.464 31.442 45.408v48.138h-62.885v-48.138c0-28.309 8.5054-45.408 31.442-45.408z" fill="#181311" stroke="#fff" stroke-width="1.2241"/>
  <path d="m504.5 413.21c32.383 0 36.802 22.538 36.802 52.581v55.741h-73.604v-55.741c0-32.781 9.9552-52.581 36.802-52.581z" fill-opacity="0" stroke="#fff" stroke-width="1.4251"/>
  <rect x="532.73" y="449.28" width="22.848" height="2.3648" fill="#fff"/>
  <rect x="533.68" y="484.91" width="20.949" height="5.992" fill="#fff"/>
  <rect x="534" y="457.22" width="20.309" height="1.1107" fill="#a5a5a5"/>
  <rect x="534" y="451.51" width="20.309" height="1.1107" fill="#a5a5a5"/>
  <rect x="533.84" y="487.74" width="20.309" height="1.1107" fill="#a5a5a5"/>
  <rect x="534" y="452.9" width="20.309" height="4.5944" fill="#fff"/>
 </g>
 <path d="m285.42 402.26c-9.1071 0.41979-6.2197 9.7495-6.0968 2.4706 0 0 10.709 21.308 9.9787 54.628l-0.91003 64.333 17.291-5.8753 1.4215-64.832c0.66985-30.575-12.577-51.143-21.685-50.723z" fill="#5d362b"/>
 <path d="m262.31 531.71 30.907-8.3876s1.8205-52.168 1.8223-85.701c-2.0082-15.6-4.5625-28.645-13.975-35.015-7.618 7.2216-16.683 27.735-18.079 54.1z" fill="#181311" fill-rule="evenodd"/>
 <g transform="matrix(.81308 0 0 .78502 202.24 69.934)">
  <rect x="111.18" y="484.1" width="26.262" height="49.898" fill="#929599" fill-opacity=".98431"/>
  <rect transform="matrix(0,1,1,0,0,0)" x="477.53" y="105.49" width="7.0032" height="44.646" fill="#bfc0c3" fill-opacity=".98431"/>
  <rect transform="matrix(0,1,1,0,0,0)" x="477.53" y="105.49" width="7.0032" height="35.016" fill="#929498"/>
  <path transform="matrix(0,1,1,0,0,0)" d="m533.56 140.28h7.3923l-2.1399 9.8483-6.8087-0.21885z" fill="#bfc0c3" fill-opacity=".98431"/>
  <rect transform="matrix(0,1,1,0,0,0)" x="533.56" y="105.49" width="7.0032" height="35.016" fill="#929498"/>
 </g>
 <rect transform="scale(-1,1)" x="-319.8" y="450.09" width="5.6942" height="41.199" fill="#bfc0c3" fill-opacity=".98431"/>
 <rect transform="scale(-1,1)" x="-262.87" y="458.48" width="7.1693" height="46.354" fill="#bfc0c3" fill-opacity=".98431"/>
 <path d="m226.36 398.96c-12.519 0.50098-8.55 11.636-8.3809 2.9486 0 0 14.721 25.43 13.717 65.197l-1.251 76.78 23.769-7.012 1.954-77.376c0.9208-36.49-17.29-61.038-29.809-60.537z" fill="#5d362b"/>
 <path d="m200.4 557.7 30.251-12.442s1.8183-61.985 1.8202-101.83c-2.0058-18.535-4.557-34.036-13.958-41.604-7.609 8.5806-16.663 32.954-18.057 64.28z" fill="#181311" fill-rule="evenodd"/>
 <g transform="matrix(1.0237 0 0 .92898 115.64 8.7606)">
  <rect x="111.18" y="484.1" width="26.262" height="49.898" fill="#929599" fill-opacity=".98431"/>
  <rect transform="matrix(0,1,1,0,0,0)" x="477.53" y="105.49" width="7.0032" height="44.646" fill="#bfc0c3" fill-opacity=".98431"/>
  <rect transform="matrix(0,1,1,0,0,0)" x="477.53" y="105.49" width="7.0032" height="35.016" fill="#929498"/>
  <path transform="matrix(0,1,1,0,0,0)" d="m533.56 140.28h7.3923l-2.1399 9.8483-6.8087-0.21885z" fill="#bfc0c3" fill-opacity=".98431"/>
  <rect transform="matrix(0,1,1,0,0,0)" x="533.56" y="105.49" width="7.0032" height="35.016" fill="#929498"/>
 </g>
 <g transform="matrix(1.0091 0 0 .94417 -1.8924 31.21)">
  <rect transform="scale(-1,1)" x="-201.39" y="464.84" width="7.0032" height="56.135" fill="#bfc0c3" fill-opacity=".98431"/>
  <path d="m165.73 392.75c-12.229 0.61189-8.352 14.211-8.1868 3.6014 0 0 14.38 31.06 13.4 79.628l-1.222 93.775 23.219-8.5642 1.9088-94.503c0.89947-44.567-16.889-74.549-29.118-73.937z" fill="#5d362b"/>
  <path d="m139.76 581.25 30.155-12.02s1.7762-74.762 1.778-122.82c-1.9593-22.356-4.4515-41.051-13.635-50.18-7.4327 10.349-16.277 39.746-17.639 77.53z" fill="#181311" fill-rule="evenodd"/>
  <g transform="matrix(1 0 0 1.125 57.567 -79.774)">
   <rect x="111.18" y="484.1" width="26.262" height="49.898" fill="#929599" fill-opacity=".98431"/>
   <rect transform="matrix(0,1,1,0,0,0)" x="477.53" y="105.49" width="7.0032" height="44.646" fill="#bfc0c3" fill-opacity=".98431"/>
   <rect transform="matrix(0,1,1,0,0,0)" x="477.53" y="105.49" width="7.0032" height="35.016" fill="#929498"/>
   <path transform="matrix(0,1,1,0,0,0)" d="m533.56 140.28h7.3923l-2.1399 9.8483-6.8087-0.21885z" fill="#bfc0c3" fill-opacity=".98431"/>
   <rect transform="matrix(0,1,1,0,0,0)" x="533.56" y="105.49" width="7.0032" height="35.016" fill="#929498"/>
  </g>
 </g>
 <rect transform="scale(-1,1)" x="-139.8" y="479.7" width="10.361" height="62.403" fill="#bfc0c3" fill-opacity=".98431"/>
 <path d="m95.564 399.56c-14.458 0.68021-9.8739 15.798-9.6787 4.0034 0 0 17 34.527 15.841 88.519l-1.4447 104.24 27.45-9.5204 2.2566-105.05c1.0634-49.543-19.967-82.872-34.425-82.192z" fill="#5d362b"/>
 <path d="m64.862 609.1 35.65-13.362s2.0999-83.109 2.102-136.53c-2.3164-24.852-5.2627-45.635-16.12-55.782-8.7872 11.505-19.243 44.184-20.853 86.186z" fill="#181311" fill-rule="evenodd"/>
 <g transform="matrix(1.1822 0 0 1.2506 -32.31 -125.72)">
  <rect x="111.18" y="484.1" width="26.262" height="49.898" fill="#929599" fill-opacity=".98431"/>
  <rect transform="matrix(0,1,1,0,0,0)" x="477.53" y="105.49" width="7.0032" height="44.646" fill="#bfc0c3" fill-opacity=".98431"/>
  <rect transform="matrix(0,1,1,0,0,0)" x="477.53" y="105.49" width="7.0032" height="35.016" fill="#929498"/>
  <path transform="matrix(0,1,1,0,0,0)" d="m533.56 140.28h7.3923l-2.1399 9.8483-6.8087-0.21885z" fill="#bfc0c3" fill-opacity=".98431"/>
  <rect transform="matrix(0,1,1,0,0,0)" x="533.56" y="105.49" width="7.0032" height="35.016" fill="#929498"/>
 </g>
 <g transform="matrix(-.34424 -.023808 0 1 375.61 3.967)">
  <path d="m201.37 325.37 785.33-76.672 2.2171 143.26-788-15.343z" fill="#92634f"/>
  <path d="m390.85 330.56c12.585 0 14.303 10.07 14.303 23.492v24.904h-28.605v-24.904c0-14.646 3.869-23.492 14.303-23.492z" fill="#81493c" stroke="#7f4c3a" stroke-width="1.2241"/>
  <path d="m270.32 330.05c12.585 0 14.303 10.07 14.303 23.492v24.904h-28.605v-24.904c0-14.646 3.869-23.492 14.303-23.492z" fill="#81493c" stroke="#7f4c3a" stroke-width="1.2241"/>
  <path d="m426.84 311.82c22.2 0.0849 25.229 15.007 25.229 34.883v36.877l-42.976 0.16923v-36.877c0-21.687-0.65753-35.122 17.747-35.052z" fill="#81493c" stroke="#7f4c3a" stroke-width="1.9783"/>
  <path d="m624.94 294.15c32.705 0.21843 37.168 19.076 37.168 44.172v46.564l-74.337-0.49649v-46.564c0-27.384 10.054-43.856 37.168-43.675z" fill="#81493c" stroke="#7f4c3a" stroke-width="2.6982"/>
  <path d="m201.48 320.91 787.31-80.067 1.0689 17.485-788.37 69.271z" fill="#864c3d"/>
  <path d="m334.5 321.78c12.585 0 14.303 19.699 14.303 33.122v24.904h-28.605v-24.904c0-14.646 3.869-33.122 14.303-33.122z" fill="#81493c" stroke="#7f4c3a" stroke-width="1.2241"/>
  <path d="m852.32 275.37c35.099 0.12511 39.889 24.021 39.889 55.851v59.058l-79.779-0.28439v-59.058c0-34.731 10.79-55.67 39.889-55.567z" fill="#81493c" stroke="#7f4c3a" stroke-width="3.148"/>
  <path d="m527.03 305c27.597 0.25526 31.364 26.705 31.364 44.704v33.395l-62.728-0.58021v-33.395c0-19.639 8.4841-44.335 31.364-44.124z" fill="#81493c" stroke="#7f4c3a" stroke-width="2.099"/>
  <path d="m739.01 285.49c37.97 0.37624 43.152 35.125 43.152 58.767v43.866l-86.303-0.85516v-43.866c0-25.797 11.673-58.224 43.152-57.912z" fill="#81493c" stroke="#7f4c3a" stroke-width="2.8218"/>
  <path d="m201.37 345.99 792.89-52.034-7.284 126.42-781.33-24.818z" fill="#92634f"/>
  <path d="m200.2 343.07 797.34-48.581-2.5805 5.4112-795.21 45.823z" fill="#784332"/>
  <path d="m269.73 334.13c9.0292 0 10.261 9.1999 10.261 21.463v22.753h-20.523v-22.753c0-13.381 2.7758-21.463 10.261-21.463z" fill="#181311"/>
  <path d="m333.61 324.13c8.9066 0 9.2231 21.075 9.2231 33.106v23.855h-20.244v-23.855c0-13.128 3.6372-33.106 11.021-33.106z" fill="#9e6b56" stroke="#141414" stroke-opacity=".28986" stroke-width=".4"/>
  <path d="m427.4 318.26c15.927 0.0609 18.101 13.692 18.101 31.851v37.855l-28.719 0.22374v-37.855c0-19.814-2.5858-32.125 10.619-32.074z" fill="#181311"/>
  <path d="m525.08 308.12c19.531 0.18066 20.225 28.447 20.225 44.58v35.11l-44.393-0.41062v-35.11c0-17.604 7.9759-44.32 24.168-44.17z" fill="#9e6b56" stroke="#141414" stroke-opacity=".28986" stroke-width=".68591"/>
  <path d="m623.41 301.77c23.464 0.15672 26.667 17.379 26.667 40.307v47.745l-53.333 0.16417v-48.266c0-25.018 7.2136-40.081 26.667-39.951z" fill="#181311"/>
  <path d="m736.32 289.59c26.872 0.26627 27.826 37.397 27.826 58.588v46.18l-61.078-1.646v-45.139c0-23.123 10.974-58.204 33.252-57.983z" fill="#9e6b56" stroke="#141414" stroke-opacity=".28986" stroke-width=".9221"/>
  <path d="m850.68 285.04c25.182 0.0898 28.619 21.918 28.619 50.999v61.762l-57.238 0.31633v-62.282c0-31.731 7.7416-50.869 28.619-50.795z" fill="#181311"/>
 </g>
 <path d="m34.672 371.07 272.42 7.263v5.1412l-271.96-0.01z" fill="#64392d"/>
 <path d="m-222.61 257.07c16.886 0 19.191 19.546 19.191 45.6v48.342h-38.382v-48.342c0-28.429 5.1913-45.6 19.191-45.6z" fill="#9e6b56" stroke="#141414" stroke-opacity=".28986" stroke-width=".81051"/>
 <path d="m306.57 390.41-271.13 6.2314-0.18398 7.1776 271.32-6.7202z" fill="#64392d"/>
 <path d="m38.828-9.9503 267.97 198.26v7.477l-267.67-196.62z" fill="#928973"/>
 <path transform="scale(1,-1)" d="m39.702 9.0304 267.1-197.34v9.0768l-267.04 198.54z" fill="#736563"/>
 <path d="m39.38-9.3524 267.42 197.66v3.0179l-267.05-196.93z"/>
 <path d="m305.78 318.74-265.64-98.377-3.4117 2.5324 269.06 98.75z" fill="#171412" fill-opacity=".49275"/>
 <path d="m249.05 279.03 25.457 11.127-1.4882-62.607-24.224-17.571z" fill="#4c4a41" fill-rule="evenodd"/>
 <path d="m180.98 250.92 32.908 13.998-0.88833-77.396-31.069-21.516z" fill="#4c4a41" fill-rule="evenodd"/>
 <path d="m107.6 220.52 38.112 14.745 1.1932-92.939-36.793-23.144z" fill="#4c4a41" fill-rule="evenodd"/>
 <rect x="-331.16" y="-15.373" width="370.9" height="210.47" fill="#ddd6c6"/>
 <g transform="matrix(1.7172 0 0 1.7172 -944.91 -344.16)">
  <rect x="369.46" y="248.57" width="37.768" height="56.854" fill="#b9a67d"/>
  <rect x="366.7" y="303.55" width="42.3" height="1.8721" fill="#806e45" fill-opacity=".73163"/>
  <g transform="matrix(1 0 0 .97162 0 7.1645)">
   <rect x="372.22" y="252.45" width="32.447" height="49.101" fill="#4c4a41"/>
   <rect x="372.22" y="252.45" width="32.447" height="49.101" fill="url(#a)"/>
  </g>
  <rect transform="matrix(0,-1,-1,0,0,0)" x="-299.79" y="-391.16" width="47.317" height="5.2388" fill="#6b6d64"/>
  <rect transform="scale(1,-1)" x="372.13" y="-269" width="32.406" height="1.7551" fill="#6b6d64"/>
  <rect transform="scale(1,-1)" x="372.13" y="-286.28" width="32.546" height="1.7551" fill="#6b6d64"/>
  <rect transform="scale(1,-1)" x="372.2" y="-254.23" width="32.615" height="1.7551" fill="#55595d"/>
  <rect transform="scale(1,-1)" x="372.06" y="-300.21" width="32.337" height="1.7551" fill="#6b6d64"/>
  <rect transform="scale(1,-1)" x="372.26" y="-300.61" width="32.534" height=".97272" fill="#f6f7f6"/>
 </g>
 <g transform="matrix(1.0718 0 0 .8958 -693.58 -222.48)">
  <rect x="369.46" y="248.57" width="37.768" height="56.854" fill="#b9a67d"/>
  <rect x="366.7" y="303.55" width="42.3" height="1.8721" fill="#806e45" fill-opacity=".73163"/>
  <g transform="matrix(1 0 0 .97162 0 7.1645)">
   <rect x="372.22" y="252.45" width="32.447" height="49.101" fill="#4c4a41"/>
   <rect x="372.22" y="252.45" width="32.447" height="49.101" fill="url(#a)"/>
  </g>
  <rect transform="matrix(0,-1,-1,0,0,0)" x="-299.79" y="-391.16" width="47.317" height="5.2388" fill="#6b6d64"/>
  <rect transform="scale(1,-1)" x="372.13" y="-269" width="32.406" height="1.7551" fill="#6b6d64"/>
  <rect transform="scale(1,-1)" x="372.13" y="-286.28" width="32.546" height="1.7551" fill="#6b6d64"/>
  <rect transform="scale(1,-1)" x="372.2" y="-254.23" width="32.615" height="1.7551" fill="#55595d"/>
  <rect transform="scale(1,-1)" x="372.06" y="-300.21" width="32.337" height="1.7551" fill="#6b6d64"/>
  <rect transform="scale(1,-1)" x="372.26" y="-300.61" width="32.534" height=".97272" fill="#f6f7f6"/>
 </g>
 <g transform="matrix(1.7172 0 0 1.7172 -851.2 -344.16)">
  <rect x="369.46" y="248.57" width="37.768" height="56.854" fill="#b9a67d"/>
  <rect x="366.7" y="303.55" width="42.3" height="1.8721" fill="#806e45" fill-opacity=".73163"/>
  <g transform="matrix(1 0 0 .97162 0 7.1645)">
   <rect x="372.22" y="252.45" width="32.447" height="49.101" fill="#4c4a41"/>
   <rect x="372.22" y="252.45" width="32.447" height="49.101" fill="url(#a)"/>
  </g>
  <rect transform="matrix(0,-1,-1,0,0,0)" x="-299.79" y="-391.16" width="47.317" height="5.2388" fill="#6b6d64"/>
  <rect transform="scale(1,-1)" x="372.13" y="-269" width="32.406" height="1.7551" fill="#6b6d64"/>
  <rect transform="scale(1,-1)" x="372.13" y="-286.28" width="32.546" height="1.7551" fill="#6b6d64"/>
  <rect transform="scale(1,-1)" x="372.2" y="-254.23" width="32.615" height="1.7551" fill="#55595d"/>
  <rect transform="scale(1,-1)" x="372.06" y="-300.21" width="32.337" height="1.7551" fill="#6b6d64"/>
  <rect transform="scale(1,-1)" x="372.26" y="-300.61" width="32.534" height=".97272" fill="#f6f7f6"/>
 </g>
 <g transform="matrix(1.0718 0 0 .8958 -599.87 -222.48)">
  <rect x="369.46" y="248.57" width="37.768" height="56.854" fill="#b9a67d"/>
  <rect x="366.7" y="303.55" width="42.3" height="1.8721" fill="#806e45" fill-opacity=".73163"/>
  <g transform="matrix(1 0 0 .97162 0 7.1645)">
   <rect x="372.22" y="252.45" width="32.447" height="49.101" fill="#4c4a41"/>
   <rect x="372.22" y="252.45" width="32.447" height="49.101" fill="url(#a)"/>
  </g>
  <rect transform="matrix(0,-1,-1,0,0,0)" x="-299.79" y="-391.16" width="47.317" height="5.2388" fill="#6b6d64"/>
  <rect transform="scale(1,-1)" x="372.13" y="-269" width="32.406" height="1.7551" fill="#6b6d64"/>
  <rect transform="scale(1,-1)" x="372.13" y="-286.28" width="32.546" height="1.7551" fill="#6b6d64"/>
  <rect transform="scale(1,-1)" x="372.2" y="-254.23" width="32.615" height="1.7551" fill="#55595d"/>
  <rect transform="scale(1,-1)" x="372.06" y="-300.21" width="32.337" height="1.7551" fill="#6b6d64"/>
  <rect transform="scale(1,-1)" x="372.26" y="-300.61" width="32.534" height=".97272" fill="#f6f7f6"/>
 </g>
 <g transform="matrix(1.7172 0 0 1.7172 -757.5 -344.16)">
  <rect x="369.46" y="248.57" width="37.768" height="56.854" fill="#b9a67d"/>
  <rect x="366.7" y="303.55" width="42.3" height="1.8721" fill="#806e45" fill-opacity=".73163"/>
  <g transform="matrix(1 0 0 .97162 0 7.1645)">
   <rect x="372.22" y="252.45" width="32.447" height="49.101" fill="#4c4a41"/>
   <rect x="372.22" y="252.45" width="32.447" height="49.101" fill="url(#a)"/>
  </g>
  <rect transform="matrix(0,-1,-1,0,0,0)" x="-299.79" y="-391.16" width="47.317" height="5.2388" fill="#6b6d64"/>
  <rect transform="scale(1,-1)" x="372.13" y="-269" width="32.406" height="1.7551" fill="#6b6d64"/>
  <rect transform="scale(1,-1)" x="372.13" y="-286.28" width="32.546" height="1.7551" fill="#6b6d64"/>
  <rect transform="scale(1,-1)" x="372.2" y="-254.23" width="32.615" height="1.7551" fill="#55595d"/>
  <rect transform="scale(1,-1)" x="372.06" y="-300.21" width="32.337" height="1.7551" fill="#6b6d64"/>
  <rect transform="scale(1,-1)" x="372.26" y="-300.61" width="32.534" height=".97272" fill="#f6f7f6"/>
 </g>
 <g transform="matrix(1.0718 0 0 .8958 -506.16 -222.48)">
  <rect x="369.46" y="248.57" width="37.768" height="56.854" fill="#b9a67d"/>
  <rect x="366.7" y="303.55" width="42.3" height="1.8721" fill="#806e45" fill-opacity=".73163"/>
  <g transform="matrix(1 0 0 .97162 0 7.1645)">
   <rect x="372.22" y="252.45" width="32.447" height="49.101" fill="#4c4a41"/>
   <rect x="372.22" y="252.45" width="32.447" height="49.101" fill="url(#a)"/>
  </g>
  <rect transform="matrix(0,-1,-1,0,0,0)" x="-299.79" y="-391.16" width="47.317" height="5.2388" fill="#6b6d64"/>
  <rect transform="scale(1,-1)" x="372.13" y="-269" width="32.406" height="1.7551" fill="#6b6d64"/>
  <rect transform="scale(1,-1)" x="372.13" y="-286.28" width="32.546" height="1.7551" fill="#6b6d64"/>
  <rect transform="scale(1,-1)" x="372.2" y="-254.23" width="32.615" height="1.7551" fill="#55595d"/>
  <rect transform="scale(1,-1)" x="372.06" y="-300.21" width="32.337" height="1.7551" fill="#6b6d64"/>
  <rect transform="scale(1,-1)" x="372.26" y="-300.61" width="32.534" height=".97272" fill="#f6f7f6"/>
 </g>
 <g transform="matrix(1.7172 0 0 1.7172 -663.79 -344.16)">
  <rect x="369.46" y="248.57" width="37.768" height="56.854" fill="#b9a67d"/>
  <rect x="366.7" y="303.55" width="42.3" height="1.8721" fill="#806e45" fill-opacity=".73163"/>
  <g transform="matrix(1 0 0 .97162 0 7.1645)">
   <rect x="372.22" y="252.45" width="32.447" height="49.101" fill="#4c4a41"/>
   <rect x="372.22" y="252.45" width="32.447" height="49.101" fill="url(#a)"/>
  </g>
  <rect transform="matrix(0,-1,-1,0,0,0)" x="-299.79" y="-391.16" width="47.317" height="5.2388" fill="#6b6d64"/>
  <rect transform="scale(1,-1)" x="372.13" y="-269" width="32.406" height="1.7551" fill="#6b6d64"/>
  <rect transform="scale(1,-1)" x="372.13" y="-286.28" width="32.546" height="1.7551" fill="#6b6d64"/>
  <rect transform="scale(1,-1)" x="372.2" y="-254.23" width="32.615" height="1.7551" fill="#55595d"/>
  <rect transform="scale(1,-1)" x="372.06" y="-300.21" width="32.337" height="1.7551" fill="#6b6d64"/>
  <rect transform="scale(1,-1)" x="372.26" y="-300.61" width="32.534" height=".97272" fill="#f6f7f6"/>
 </g>
 <g transform="matrix(1.0718 0 0 .8958 -412.46 -222.48)">
  <rect x="369.46" y="248.57" width="37.768" height="56.854" fill="#b9a67d"/>
  <rect x="366.7" y="303.55" width="42.3" height="1.8721" fill="#806e45" fill-opacity=".73163"/>
  <g transform="matrix(1 0 0 .97162 0 7.1645)">
   <rect x="372.22" y="252.45" width="32.447" height="49.101" fill="#4c4a41"/>
   <rect x="372.22" y="252.45" width="32.447" height="49.101" fill="url(#a)"/>
  </g>
  <rect transform="matrix(0,-1,-1,0,0,0)" x="-299.79" y="-391.16" width="47.317" height="5.2388" fill="#6b6d64"/>
  <rect transform="scale(1,-1)" x="372.13" y="-269" width="32.406" height="1.7551" fill="#6b6d64"/>
  <rect transform="scale(1,-1)" x="372.13" y="-286.28" width="32.546" height="1.7551" fill="#6b6d64"/>
  <rect transform="scale(1,-1)" x="372.2" y="-254.23" width="32.615" height="1.7551" fill="#55595d"/>
  <rect transform="scale(1,-1)" x="372.06" y="-300.21" width="32.337" height="1.7551" fill="#6b6d64"/>
  <rect transform="scale(1,-1)" x="372.26" y="-300.61" width="32.534" height=".97272" fill="#f6f7f6"/>
 </g>
 <rect x="-334.8" y="190.21" width="375.28" height="31.522" fill="#645451"/>
 <rect x="-334.8" y="190.21" width="375.28" height="7.477" fill="#7f8082"/>
 <rect x="-334.39" y="220.91" width="375.28" height="2.9058" fill="#171412" fill-opacity=".49275"/>
 <rect x="-334.28" y="-9.044" width="374.13" height="8.6522" fill="#928973"/>
 <rect transform="scale(1,-1)" x="-334.28" y="9.044" width="374.13" height="10.243" fill="#736563"/>
 <rect x="-334.28" y="-9.044" width="374.13" height="3.4922"/>
 <path d="m-157.21 255.56c17.119 0 19.455 19.923 19.455 46.479v49.273h-38.91v-49.273c0-28.977 5.2628-46.479 19.455-46.479z" fill="#181311"/>
 <path d="m-87.198 257.07c16.886 0 19.191 19.546 19.191 45.6v48.342h-38.382v-48.342c0-28.429 5.1913-45.6 19.191-45.6z" fill="#92644f" stroke="#141414" stroke-opacity=".28986" stroke-width=".81051"/>
 <path d="m-14.342 257.07c16.886 0 19.191 19.546 19.191 45.6v48.342h-38.382v-48.342c0-28.429 5.1913-45.6 19.191-45.6z" fill="#9e6b56" stroke="#141414" stroke-opacity=".28986" stroke-width=".81051"/>
 <rect x="-334.01" y="395.61" width="369.97" height="7.7295" fill="#64392d"/>
 <rect x="-333.49" y="371.16" width="369.97" height="12.413" fill="#64392d"/>
 <path d="m-4.1566 426.12c42.986 0 48.852 40.133 48.852 93.628v99.256h-97.704v-99.256c0-58.371 13.215-93.628 48.852-93.628z" fill="#181311" stroke="#fff" stroke-width="2.1909"/>
 <rect x="-75.692" y="487.03" width="28.094" height="82.665" fill="#fff" opacity=".96"/>
 <path d="m-127.84 423.37c46.643 0 53.009 40.514 53.009 94.516v100.2h-106.02v-100.2c0-58.925 14.339-94.516 53.009-94.516z" fill="#181311" stroke="#fff" stroke-width="2.293"/>
 <path d="m-128.51 407.99c54.594 0 62.044 46.913 62.044 109.45v116.02h-124.09v-116.02c0-68.233 16.783-109.45 62.044-109.45z" fill-opacity="0" stroke="#fff" stroke-width="2.6695"/>
 <rect x="-80.904" y="483.07" width="38.52" height="4.9224" fill="#fff"/>
 <rect x="-79.304" y="557.23" width="35.318" height="12.472" fill="#fff"/>
 <rect x="-78.764" y="499.6" width="34.239" height="2.3119" fill="#a5a5a5"/>
 <rect x="-78.764" y="487.71" width="34.239" height="2.3119" fill="#a5a5a5"/>
 <rect x="-79.032" y="563.12" width="34.239" height="2.3119" fill="#a5a5a5"/>
 <path d="m-4.1392 407.95c51.423 0 58.441 46.929 58.441 109.48v116.07h-116.88v-116.07c0-68.257 15.809-109.48 58.441-109.48z" fill-opacity="0" stroke="#fff" stroke-width="2.5913"/>
 <rect x="-78.764" y="490.61" width="34.239" height="9.5632" fill="#fff"/>
 <g transform="matrix(1.6857 0 0 2.1219 -1108.6 -470.27)">
  <rect x="535.83" y="451.18" width="16.664" height="39.714" fill="#fff" opacity=".96"/>
  <path d="m504.89 420.6c27.667 0 31.442 19.464 31.442 45.408v48.138h-62.885v-48.138c0-28.309 8.5054-45.408 31.442-45.408z" fill="#181311" stroke="#fff" stroke-width="1.2241"/>
  <path d="m504.5 413.21c32.383 0 36.802 22.538 36.802 52.581v55.741h-73.604v-55.741c0-32.781 9.9552-52.581 36.802-52.581z" fill-opacity="0" stroke="#fff" stroke-width="1.4251"/>
  <rect x="532.73" y="449.28" width="22.848" height="2.3648" fill="#fff"/>
  <rect x="533.68" y="484.91" width="20.949" height="5.992" fill="#fff"/>
  <rect x="534" y="457.22" width="20.309" height="1.1107" fill="#a5a5a5"/>
  <rect x="534" y="451.51" width="20.309" height="1.1107" fill="#a5a5a5"/>
  <rect x="533.84" y="487.74" width="20.309" height="1.1107" fill="#a5a5a5"/>
  <rect x="534" y="452.9" width="20.309" height="4.5944" fill="#fff"/>
 </g>
 <rect transform="scale(-1,1)" x="-68.88" y="486.69" width="11.402" height="73.599" fill="#bfc0c3" fill-opacity=".98431"/>
 <g transform="matrix(1.0657 0 0 1.3371 -84.694 -156.37)" fill="#faf8f7">
  <rect x="111.18" y="484.1" width="26.262" height="49.898"/>
  <rect transform="matrix(0,1,1,0,0,0)" x="477.53" y="105.49" width="7.0032" height="44.646"/>
  <rect transform="matrix(0,1,1,0,0,0)" x="477.53" y="105.49" width="7.0032" height="35.016"/>
  <path transform="matrix(0,1,1,0,0,0)" d="m533.56 140.28h7.3923l-2.1399 9.8483-6.8087-0.21885z"/>
  <rect transform="matrix(0,1,1,0,0,0)" x="533.56" y="105.49" width="7.0032" height="35.016"/>
 </g>
 <rect transform="scale(-1,1)" x="304.24" y="489.26" width="10.361" height="73.599" fill="#bfc0c3" fill-opacity=".98431"/>
 <g transform="matrix(1.0438 0 0 1.3384 -455.54 -154.44)" fill="#faf8f7" stroke="#a2a2a2">
  <rect x="111.18" y="484.1" width="26.262" height="49.898"/>
  <rect transform="matrix(0,1,1,0,0,0)" x="477.53" y="105.49" width="7.0032" height="44.646"/>
  <rect transform="matrix(0,1,1,0,0,0)" x="477.53" y="105.49" width="7.0032" height="35.016"/>
  <path transform="matrix(0,1,1,0,0,0)" d="m533.56 140.28h7.3923l-2.1399 9.8483-6.8087-0.21885z"/>
  <rect transform="matrix(0,1,1,0,0,0)" x="533.56" y="105.49" width="7.0032" height="35.016"/>
 </g>
 <path d="m-14.628 255.56c17.119 0 19.455 19.923 19.455 46.479v49.273h-38.91v-49.273c0-28.977 5.2628-46.479 19.455-46.479z" fill="#181311"/>
 <rect transform="scale(-1,1)" x="-1421.8" y="402.72" width="385.33" height="220.46" fill="#8d4836"/>
 <rect transform="scale(-1,1)" x="-1419.9" y="233.73" width="368.3" height="168.4" fill="#92634f"/>
 <rect transform="scale(-1,1)" x="-1419.8" y="215.97" width="368.44" height="22.58" fill="#864c3d"/>
 <path d="m1103 245.9c-23.86 0-27.117 21.807-27.117 50.874v53.932h54.234v-53.932c0-31.717-7.3353-50.874-27.117-50.874z" fill="#81493c" stroke="#7f4c3a" stroke-width="2.4803"/>
 <path d="m1175.9 245.9c-23.86 0-27.117 21.807-27.117 50.874v53.932h54.234v-53.932c0-31.717-7.3353-50.874-27.117-50.874z" fill="#81493c" stroke="#7f4c3a" stroke-width="2.4803"/>
 <path d="m1245.1 244.69c-23.86 0-27.117 21.807-27.117 50.874v53.932h54.234v-53.932c0-31.717-7.3353-50.874-27.117-50.874z" fill="#81493c" stroke="#7f4c3a" stroke-width="2.4803"/>
 <path d="m1310.7 245.9c-23.86 0-27.117 21.807-27.117 50.874v53.932h54.234v-53.932c0-31.717-7.3353-50.874-27.117-50.874z" fill="#81493c" stroke="#7f4c3a" stroke-width="2.4803"/>
 <path d="m1380.9 245.9c-23.86 0-27.117 21.807-27.117 50.874v53.932h54.234v-53.932c0-31.717-7.3353-50.874-27.117-50.874z" fill="#81493c" stroke="#7f4c3a" stroke-width="2.4803"/>
 <rect transform="scale(-1,1)" x="-1419.9" y="278.39" width="368.3" height="77.253" fill="#92634f"/>
 <rect transform="scale(-1,1)" x="-1420.4" y="274.77" width="368.44" height="5.4318" fill="#784332"/>
 <path d="m1380.7 255.56c-17.119 0-19.455 19.923-19.455 46.479v49.273h38.91v-49.273c0-28.977-5.2628-46.479-19.455-46.479z" fill="#181311"/>
 <path d="m802.7 402.26c9.1071 0.41979 6.2197 9.7495 6.0968 2.4706 0 0-10.709 21.308-9.9787 54.628l0.91003 64.333-17.291-5.8753-1.4215-64.832c-0.66985-30.575 12.577-51.143 21.685-50.723z" fill="#5d362b"/>
 <path d="m825.81 531.71-30.907-8.3876s-1.8205-52.168-1.8223-85.701c2.0082-15.6 4.5625-28.645 13.975-35.015 7.618 7.2216 16.683 27.735 18.079 54.1z" fill="#181311" fill-rule="evenodd"/>
 <g transform="matrix(-.81308 0 0 .78502 885.88 69.934)">
  <rect x="111.18" y="484.1" width="26.262" height="49.898" fill="#929599" fill-opacity=".98431"/>
  <rect transform="matrix(0,1,1,0,0,0)" x="477.53" y="105.49" width="7.0032" height="44.646" fill="#bfc0c3" fill-opacity=".98431"/>
  <rect transform="matrix(0,1,1,0,0,0)" x="477.53" y="105.49" width="7.0032" height="35.016" fill="#929498"/>
  <path transform="matrix(0,1,1,0,0,0)" d="m533.56 140.28h7.3923l-2.1399 9.8483-6.8087-0.21885z" fill="#bfc0c3" fill-opacity=".98431"/>
  <rect transform="matrix(0,1,1,0,0,0)" x="533.56" y="105.49" width="7.0032" height="35.016" fill="#929498"/>
 </g>
 <path d="m861.76 398.96c12.519 0.50098 8.55 11.636 8.3809 2.9486 0 0-14.721 25.43-13.717 65.197l1.251 76.78-23.769-7.012-1.954-77.376c-0.9208-36.49 17.29-61.038 29.809-60.537z" fill="#5d362b"/>
 <path d="m887.72 557.7-30.251-12.442s-1.8183-61.985-1.8202-101.83c2.0058-18.535 4.557-34.036 13.958-41.604 7.609 8.5806 16.663 32.954 18.057 64.28z" fill="#181311" fill-rule="evenodd"/>
 <g transform="matrix(-1.0237 0 0 .92898 972.48 8.7607)">
  <rect x="111.18" y="484.1" width="26.262" height="49.898" fill="#929599" fill-opacity=".98431"/>
  <rect transform="matrix(0,1,1,0,0,0)" x="477.53" y="105.49" width="7.0032" height="44.646" fill="#bfc0c3" fill-opacity=".98431"/>
  <rect transform="matrix(0,1,1,0,0,0)" x="477.53" y="105.49" width="7.0032" height="35.016" fill="#929498"/>
  <path transform="matrix(0,1,1,0,0,0)" d="m533.56 140.28h7.3923l-2.1399 9.8483-6.8087-0.21885z" fill="#bfc0c3" fill-opacity=".98431"/>
  <rect transform="matrix(0,1,1,0,0,0)" x="533.56" y="105.49" width="7.0032" height="35.016" fill="#929498"/>
 </g>
 <g transform="matrix(-1.0091 0 0 .94417 1090 31.21)">
  <rect transform="scale(-1,1)" x="-201.39" y="464.84" width="7.0032" height="56.135" fill="#bfc0c3" fill-opacity=".98431"/>
  <path d="m165.73 392.75c-12.229 0.61189-8.352 14.211-8.1868 3.6014 0 0 14.38 31.06 13.4 79.628l-1.222 93.775 23.219-8.5642 1.9088-94.503c0.89947-44.567-16.889-74.549-29.118-73.937z" fill="#5d362b"/>
  <path d="m139.76 581.25 30.155-12.02s1.7762-74.762 1.778-122.82c-1.9593-22.356-4.4515-41.051-13.635-50.18-7.4327 10.349-16.277 39.746-17.639 77.53z" fill="#181311" fill-rule="evenodd"/>
  <g transform="matrix(1 0 0 1.125 57.567 -79.774)">
   <rect x="111.18" y="484.1" width="26.262" height="49.898" fill="#929599" fill-opacity=".98431"/>
   <rect transform="matrix(0,1,1,0,0,0)" x="477.53" y="105.49" width="7.0032" height="44.646" fill="#bfc0c3" fill-opacity=".98431"/>
   <rect transform="matrix(0,1,1,0,0,0)" x="477.53" y="105.49" width="7.0032" height="35.016" fill="#929498"/>
   <path transform="matrix(0,1,1,0,0,0)" d="m533.56 140.28h7.3923l-2.1399 9.8483-6.8087-0.21885z" fill="#bfc0c3" fill-opacity=".98431"/>
   <rect transform="matrix(0,1,1,0,0,0)" x="533.56" y="105.49" width="7.0032" height="35.016" fill="#929498"/>
  </g>
 </g>
 <rect x="948.32" y="479.7" width="10.361" height="62.403" fill="#bfc0c3" fill-opacity=".98431"/>
 <path d="m992.56 399.56c14.458 0.68021 9.874 15.798 9.6787 4.0034 0 0-17 34.527-15.841 88.519l1.4447 104.24-27.45-9.5204-2.2566-105.05c-1.0634-49.543 19.967-82.872 34.425-82.192z" fill="#5d362b"/>
 <path d="m1023.3 609.1-35.65-13.362s-2.0999-83.109-2.102-136.53c2.3164-24.852 5.2627-45.635 16.12-55.782 8.7872 11.505 19.243 44.184 20.854 86.186z" fill="#181311" fill-rule="evenodd"/>
 <g transform="matrix(-1.1822 0 0 1.2506 1120.4 -125.72)">
  <rect x="111.18" y="484.1" width="26.262" height="49.898" fill="#929599" fill-opacity=".98431"/>
  <rect transform="matrix(0,1,1,0,0,0)" x="477.53" y="105.49" width="7.0032" height="44.646" fill="#bfc0c3" fill-opacity=".98431"/>
  <rect transform="matrix(0,1,1,0,0,0)" x="477.53" y="105.49" width="7.0032" height="35.016" fill="#929498"/>
  <path transform="matrix(0,1,1,0,0,0)" d="m533.56 140.28h7.3923l-2.1399 9.8483-6.8087-0.21885z" fill="#bfc0c3" fill-opacity=".98431"/>
  <rect transform="matrix(0,1,1,0,0,0)" x="533.56" y="105.49" width="7.0032" height="35.016" fill="#929498"/>
 </g>
 <g transform="matrix(.34424 -.023808 0 1 712.51 3.967)">
  <path d="m201.37 325.37 785.33-76.672-5.7996 144.73-779.98-16.808z" fill="#92634f"/>
  <path d="m390.85 330.56c12.585 0 14.303 10.07 14.303 23.492v24.904h-28.605v-24.904c0-14.646 3.869-23.492 14.303-23.492z" fill="#81493c" stroke="#7f4c3a" stroke-width="1.2241"/>
  <path d="m270.32 330.05c12.585 0 14.303 10.07 14.303 23.492v24.904h-28.605v-24.904c0-14.646 3.869-23.492 14.303-23.492z" fill="#81493c" stroke="#7f4c3a" stroke-width="1.2241"/>
  <path d="m426.84 311.82c22.2 0.0849 25.229 15.007 25.229 34.883v36.877l-42.976 0.16923v-36.877c0-21.687-0.65753-35.122 17.747-35.052z" fill="#81493c" stroke="#7f4c3a" stroke-width="1.9783"/>
  <path d="m624.94 294.15c32.705 0.21843 37.168 19.076 37.168 44.172v46.564l-74.337-0.49649v-46.564c0-27.384 10.054-43.856 37.168-43.675z" fill="#81493c" stroke="#7f4c3a" stroke-width="2.6982"/>
  <path d="m967.14 267.79c37.126 0.23464-0.13385 46.628-0.13385 75.713v53.965l-42.058-4.209v-53.965c0-31.736 11.413-71.699 42.192-71.504z" fill="#81493c" stroke="#7f4c3a" stroke-width="3.0948"/>
  <path d="m201.48 320.91 794.79-82.464-6.4133 18.779-788.37 70.374z" fill="#864c3d"/>
  <path d="m334.5 321.78c12.585 0 14.303 19.699 14.303 33.122v24.904h-28.605v-24.904c0-14.646 3.869-33.122 14.303-33.122z" fill="#81493c" stroke="#7f4c3a" stroke-width="1.2241"/>
  <path d="m852.32 275.37c35.099 0.12511 39.889 24.021 39.889 55.851v59.058l-79.779-0.28439v-59.058c0-34.731 10.79-55.67 39.889-55.567z" fill="#81493c" stroke="#7f4c3a" stroke-width="3.148"/>
  <path d="m527.03 305c27.597 0.25526 31.364 26.705 31.364 44.704v33.395l-62.728-0.58021v-33.395c0-19.639 8.4841-44.335 31.364-44.124z" fill="#81493c" stroke="#7f4c3a" stroke-width="2.099"/>
  <path d="m739.01 285.49c37.97 0.37624 43.152 35.125 43.152 58.767v43.866l-86.303-0.85516v-43.866c0-25.797 11.673-58.224 43.152-57.912z" fill="#81493c" stroke="#7f4c3a" stroke-width="2.8218"/>
  <path d="m201.37 345.99 773.24-67.073 12.367 141.46-781.33-24.818z" fill="#92634f"/>
  <path d="m200.2 343.07 773.86-65.824v2.5083l-774.31 65.968z" fill="#784332"/>
  <path d="m269.73 334.13c9.0292 0 10.261 9.1999 10.261 21.463v22.753h-20.523v-22.753c0-13.381 2.7758-21.463 10.261-21.463z" fill="#181311"/>
  <path d="m333.61 324.13c8.9066 0 9.2231 21.075 9.2231 33.106v23.855h-20.244v-23.855c0-13.128 3.6372-33.106 11.021-33.106z" fill="#9e6b56" stroke="#141414" stroke-opacity=".28986" stroke-width=".4"/>
  <path d="m427.4 318.26c15.927 0.0609 18.101 13.692 18.101 31.851v37.855l-28.719 0.22374v-37.855c0-19.814-2.5858-32.125 10.619-32.074z" fill="#181311"/>
  <path d="m525.08 308.12c19.531 0.18066 20.225 28.447 20.225 44.58v35.11l-44.393-0.41062v-35.11c0-17.604 7.9759-44.32 24.168-44.17z" fill="#9e6b56" stroke="#141414" stroke-opacity=".28986" stroke-width=".68591"/>
  <path d="m623.41 301.77c23.464 0.15672 26.667 17.379 26.667 40.307v47.745l-53.333 0.16417v-48.266c0-25.018 7.2136-40.081 26.667-39.951z" fill="#181311"/>
  <path d="m736.32 289.59c26.872 0.26627 27.826 37.397 27.826 58.588v46.18l-61.078-1.646v-45.139c0-23.123 10.974-58.204 33.252-57.983z" fill="#9e6b56" stroke="#141414" stroke-opacity=".28986" stroke-width=".9221"/>
  <path d="m850.68 285.04c25.182 0.0898 28.619 21.918 28.619 50.999v61.762l-57.238 0.31633v-62.282c0-31.731 7.7416-50.869 28.619-50.795z" fill="#181311"/>
  <path d="m964.52 272.86c26.274 0.16606 27.208 45.839 27.208 71.909v51.691l-59.72-0.37743v-51.691c0-28.446 10.73-71.67 32.512-71.532z" fill="#9e6b56" stroke="#141414" stroke-opacity=".28986" stroke-width="1.0113"/>
 </g>
 <path d="m1054.9 371.99-273.9 6.3431v5.1412l273.07 0.72614z" fill="#64392d"/>
 <path d="m1310.7 257.07c-16.886 0-19.191 19.546-19.191 45.6v48.342h38.382v-48.342c0-28.429-5.1913-45.6-19.191-45.6z" fill="#9e6b56" stroke="#141414" stroke-opacity=".28986" stroke-width=".81051"/>
 <path d="m781.55 390.41 271.13 4.9435v7.7295l-271.13-5.9843z" fill="#64392d"/>
 <path d="m1049.3-9.9503-267.97 198.26v7.477l267.67-196.62z" fill="#928973"/>
 <path d="m1048.4-9.0304-267.1 197.34v-9.0768l267.04-198.54z" fill="#736563"/>
 <path d="m1048.7-9.3523-267.42 197.66v3.0179l267.05-196.93z"/>
 <path d="m782.34 318.74 265.93-97.83v2.9058l-265.93 97.83z" fill="#171412" fill-opacity=".49275"/>
 <path d="m839.07 279.03-25.457 11.127 1.4882-62.607 24.224-17.571z" fill="#4c4a41" fill-rule="evenodd"/>
 <path d="m907.14 250.92-32.908 13.998 0.88833-77.396 31.069-21.516z" fill="#4c4a41" fill-rule="evenodd"/>
 <path d="m980.52 220.52-38.112 14.745-1.1932-92.939 36.793-23.144z" fill="#4c4a41" fill-rule="evenodd"/>
 <rect transform="scale(-1,1)" x="-1419.3" y="-15.373" width="370.9" height="210.47" fill="#ddd6c6"/>
 <g transform="matrix(-1.7172 0 0 1.7172 2033 -344.16)">
  <rect x="369.46" y="248.57" width="37.768" height="56.854" fill="#b9a67d"/>
  <rect x="366.7" y="303.55" width="42.3" height="1.8721" fill="#806e45" fill-opacity=".73163"/>
  <g transform="matrix(1 0 0 .97162 0 7.1645)">
   <rect x="372.22" y="252.45" width="32.447" height="49.101" fill="#4c4a41"/>
   <rect x="372.22" y="252.45" width="32.447" height="49.101" fill="url(#a)"/>
  </g>
  <rect transform="matrix(0,-1,-1,0,0,0)" x="-299.79" y="-391.16" width="47.317" height="5.2388" fill="#6b6d64"/>
  <rect transform="scale(1,-1)" x="372.13" y="-269" width="32.406" height="1.7551" fill="#6b6d64"/>
  <rect transform="scale(1,-1)" x="372.13" y="-286.28" width="32.546" height="1.7551" fill="#6b6d64"/>
  <rect transform="scale(1,-1)" x="372.2" y="-254.23" width="32.615" height="1.7551" fill="#55595d"/>
  <rect transform="scale(1,-1)" x="372.06" y="-300.21" width="32.337" height="1.7551" fill="#6b6d64"/>
  <rect transform="scale(1,-1)" x="372.26" y="-300.61" width="32.534" height=".97272" fill="#f6f7f6"/>
 </g>
 <g transform="matrix(-1.0718 0 0 .8958 1781.7 -222.48)">
  <rect x="369.46" y="248.57" width="37.768" height="56.854" fill="#b9a67d"/>
  <rect x="366.7" y="303.55" width="42.3" height="1.8721" fill="#806e45" fill-opacity=".73163"/>
  <g transform="matrix(1 0 0 .97162 0 7.1645)">
   <rect x="372.22" y="252.45" width="32.447" height="49.101" fill="#4c4a41"/>
   <rect x="372.22" y="252.45" width="32.447" height="49.101" fill="url(#a)"/>
  </g>
  <rect transform="matrix(0,-1,-1,0,0,0)" x="-299.79" y="-391.16" width="47.317" height="5.2388" fill="#6b6d64"/>
  <rect transform="scale(1,-1)" x="372.13" y="-269" width="32.406" height="1.7551" fill="#6b6d64"/>
  <rect transform="scale(1,-1)" x="372.13" y="-286.28" width="32.546" height="1.7551" fill="#6b6d64"/>
  <rect transform="scale(1,-1)" x="372.2" y="-254.23" width="32.615" height="1.7551" fill="#55595d"/>
  <rect transform="scale(1,-1)" x="372.06" y="-300.21" width="32.337" height="1.7551" fill="#6b6d64"/>
  <rect transform="scale(1,-1)" x="372.26" y="-300.61" width="32.534" height=".97272" fill="#f6f7f6"/>
 </g>
 <g transform="matrix(-1.7172 0 0 1.7172 1939.3 -344.16)">
  <rect x="369.46" y="248.57" width="37.768" height="56.854" fill="#b9a67d"/>
  <rect x="366.7" y="303.55" width="42.3" height="1.8721" fill="#806e45" fill-opacity=".73163"/>
  <g transform="matrix(1 0 0 .97162 0 7.1645)">
   <rect x="372.22" y="252.45" width="32.447" height="49.101" fill="#4c4a41"/>
   <rect x="372.22" y="252.45" width="32.447" height="49.101" fill="url(#a)"/>
  </g>
  <rect transform="matrix(0,-1,-1,0,0,0)" x="-299.79" y="-391.16" width="47.317" height="5.2388" fill="#6b6d64"/>
  <rect transform="scale(1,-1)" x="372.13" y="-269" width="32.406" height="1.7551" fill="#6b6d64"/>
  <rect transform="scale(1,-1)" x="372.13" y="-286.28" width="32.546" height="1.7551" fill="#6b6d64"/>
  <rect transform="scale(1,-1)" x="372.2" y="-254.23" width="32.615" height="1.7551" fill="#55595d"/>
  <rect transform="scale(1,-1)" x="372.06" y="-300.21" width="32.337" height="1.7551" fill="#6b6d64"/>
  <rect transform="scale(1,-1)" x="372.26" y="-300.61" width="32.534" height=".97272" fill="#f6f7f6"/>
 </g>
 <g transform="matrix(-1.0718 0 0 .8958 1688 -222.48)">
  <rect x="369.46" y="248.57" width="37.768" height="56.854" fill="#b9a67d"/>
  <rect x="366.7" y="303.55" width="42.3" height="1.8721" fill="#806e45" fill-opacity=".73163"/>
  <g transform="matrix(1 0 0 .97162 0 7.1645)">
   <rect x="372.22" y="252.45" width="32.447" height="49.101" fill="#4c4a41"/>
   <rect x="372.22" y="252.45" width="32.447" height="49.101" fill="url(#a)"/>
  </g>
  <rect transform="matrix(0,-1,-1,0,0,0)" x="-299.79" y="-391.16" width="47.317" height="5.2388" fill="#6b6d64"/>
  <rect transform="scale(1,-1)" x="372.13" y="-269" width="32.406" height="1.7551" fill="#6b6d64"/>
  <rect transform="scale(1,-1)" x="372.13" y="-286.28" width="32.546" height="1.7551" fill="#6b6d64"/>
  <rect transform="scale(1,-1)" x="372.2" y="-254.23" width="32.615" height="1.7551" fill="#55595d"/>
  <rect transform="scale(1,-1)" x="372.06" y="-300.21" width="32.337" height="1.7551" fill="#6b6d64"/>
  <rect transform="scale(1,-1)" x="372.26" y="-300.61" width="32.534" height=".97272" fill="#f6f7f6"/>
 </g>
 <g transform="matrix(-1.7172 0 0 1.7172 1845.6 -344.16)">
  <rect x="369.46" y="248.57" width="37.768" height="56.854" fill="#b9a67d"/>
  <rect x="366.7" y="303.55" width="42.3" height="1.8721" fill="#806e45" fill-opacity=".73163"/>
  <g transform="matrix(1 0 0 .97162 0 7.1645)">
   <rect x="372.22" y="252.45" width="32.447" height="49.101" fill="#4c4a41"/>
   <rect x="372.22" y="252.45" width="32.447" height="49.101" fill="url(#a)"/>
  </g>
  <rect transform="matrix(0,-1,-1,0,0,0)" x="-299.79" y="-391.16" width="47.317" height="5.2388" fill="#6b6d64"/>
  <rect transform="scale(1,-1)" x="372.13" y="-269" width="32.406" height="1.7551" fill="#6b6d64"/>
  <rect transform="scale(1,-1)" x="372.13" y="-286.28" width="32.546" height="1.7551" fill="#6b6d64"/>
  <rect transform="scale(1,-1)" x="372.2" y="-254.23" width="32.615" height="1.7551" fill="#55595d"/>
  <rect transform="scale(1,-1)" x="372.06" y="-300.21" width="32.337" height="1.7551" fill="#6b6d64"/>
  <rect transform="scale(1,-1)" x="372.26" y="-300.61" width="32.534" height=".97272" fill="#f6f7f6"/>
 </g>
 <g transform="matrix(-1.0718 0 0 .8958 1594.3 -222.48)">
  <rect x="369.46" y="248.57" width="37.768" height="56.854" fill="#b9a67d"/>
  <rect x="366.7" y="303.55" width="42.3" height="1.8721" fill="#806e45" fill-opacity=".73163"/>
  <g transform="matrix(1 0 0 .97162 0 7.1645)">
   <rect x="372.22" y="252.45" width="32.447" height="49.101" fill="#4c4a41"/>
   <rect x="372.22" y="252.45" width="32.447" height="49.101" fill="url(#a)"/>
  </g>
  <rect transform="matrix(0,-1,-1,0,0,0)" x="-299.79" y="-391.16" width="47.317" height="5.2388" fill="#6b6d64"/>
  <rect transform="scale(1,-1)" x="372.13" y="-269" width="32.406" height="1.7551" fill="#6b6d64"/>
  <rect transform="scale(1,-1)" x="372.13" y="-286.28" width="32.546" height="1.7551" fill="#6b6d64"/>
  <rect transform="scale(1,-1)" x="372.2" y="-254.23" width="32.615" height="1.7551" fill="#55595d"/>
  <rect transform="scale(1,-1)" x="372.06" y="-300.21" width="32.337" height="1.7551" fill="#6b6d64"/>
  <rect transform="scale(1,-1)" x="372.26" y="-300.61" width="32.534" height=".97272" fill="#f6f7f6"/>
 </g>
 <g transform="matrix(-1.7172 0 0 1.7172 1751.9 -344.16)">
  <rect x="369.46" y="248.57" width="37.768" height="56.854" fill="#b9a67d"/>
  <rect x="366.7" y="303.55" width="42.3" height="1.8721" fill="#806e45" fill-opacity=".73163"/>
  <g transform="matrix(1 0 0 .97162 0 7.1645)">
   <rect x="372.22" y="252.45" width="32.447" height="49.101" fill="#4c4a41"/>
   <rect x="372.22" y="252.45" width="32.447" height="49.101" fill="url(#a)"/>
  </g>
  <rect transform="matrix(0,-1,-1,0,0,0)" x="-299.79" y="-391.16" width="47.317" height="5.2388" fill="#6b6d64"/>
  <rect transform="scale(1,-1)" x="372.13" y="-269" width="32.406" height="1.7551" fill="#6b6d64"/>
  <rect transform="scale(1,-1)" x="372.13" y="-286.28" width="32.546" height="1.7551" fill="#6b6d64"/>
  <rect transform="scale(1,-1)" x="372.2" y="-254.23" width="32.615" height="1.7551" fill="#55595d"/>
  <rect transform="scale(1,-1)" x="372.06" y="-300.21" width="32.337" height="1.7551" fill="#6b6d64"/>
  <rect transform="scale(1,-1)" x="372.26" y="-300.61" width="32.534" height=".97272" fill="#f6f7f6"/>
 </g>
 <g transform="matrix(-1.0718 0 0 .8958 1500.6 -222.48)">
  <rect x="369.46" y="248.57" width="37.768" height="56.854" fill="#b9a67d"/>
  <rect x="366.7" y="303.55" width="42.3" height="1.8721" fill="#806e45" fill-opacity=".73163"/>
  <g transform="matrix(1 0 0 .97162 0 7.1645)">
   <rect x="372.22" y="252.45" width="32.447" height="49.101" fill="#4c4a41"/>
   <rect x="372.22" y="252.45" width="32.447" height="49.101" fill="url(#a)"/>
  </g>
  <rect transform="matrix(0,-1,-1,0,0,0)" x="-299.79" y="-391.16" width="47.317" height="5.2388" fill="#6b6d64"/>
  <rect transform="scale(1,-1)" x="372.13" y="-269" width="32.406" height="1.7551" fill="#6b6d64"/>
  <rect transform="scale(1,-1)" x="372.13" y="-286.28" width="32.546" height="1.7551" fill="#6b6d64"/>
  <rect transform="scale(1,-1)" x="372.2" y="-254.23" width="32.615" height="1.7551" fill="#55595d"/>
  <rect transform="scale(1,-1)" x="372.06" y="-300.21" width="32.337" height="1.7551" fill="#6b6d64"/>
  <rect transform="scale(1,-1)" x="372.26" y="-300.61" width="32.534" height=".97272" fill="#f6f7f6"/>
 </g>
 <rect transform="scale(-1,1)" x="-1422.9" y="190.21" width="375.28" height="31.522" fill="#645451"/>
 <rect transform="scale(-1,1)" x="-1422.9" y="190.21" width="375.28" height="7.477" fill="#7f8082"/>
 <rect transform="scale(-1,1)" x="-1422.5" y="220.91" width="375.28" height="2.9058" fill="#171412" fill-opacity=".49275"/>
 <rect transform="scale(-1,1)" x="-1422.4" y="-9.044" width="374.13" height="8.6522" fill="#928973"/>
 <rect transform="scale(-1)" x="-1422.4" y="9.044" width="374.13" height="10.243" fill="#736563"/>
 <rect transform="scale(-1,1)" x="-1422.4" y="-9.044" width="374.13" height="3.4922"/>
 <path d="m1245.3 255.56c-17.119 0-19.455 19.923-19.455 46.479v49.273h38.91v-49.273c0-28.977-5.2628-46.479-19.455-46.479z" fill="#181311"/>
 <path d="m1175.3 257.07c-16.886 0-19.191 19.546-19.191 45.6v48.342h38.382v-48.342c0-28.429-5.1913-45.6-19.191-45.6z" fill="#9e6b56" stroke="#141414" stroke-opacity=".28986" stroke-width=".81051"/>
 <path d="m1102.5 257.07c-16.886 0-19.191 19.546-19.191 45.6v48.342h38.382v-48.342c0-28.429-5.1913-45.6-19.191-45.6z" fill="#9e6b56" stroke="#141414" stroke-opacity=".28986" stroke-width=".81051"/>
 <rect transform="scale(-1,1)" x="-1422.1" y="395.61" width="369.97" height="7.7295" fill="#64392d"/>
 <rect transform="scale(-1,1)" x="-1421.6" y="371.16" width="369.97" height="12.413" fill="#64392d"/>
 <path d="m1092.3 426.12c-42.986 0-48.852 40.133-48.852 93.628v99.256h97.704v-99.256c0-58.371-13.215-93.628-48.852-93.628z" fill="#181311" stroke="#fff" stroke-width="2.1909"/>
 <rect transform="scale(-1,1)" x="-1163.8" y="487.03" width="28.094" height="82.665" fill="#fff" opacity=".96"/>
 <path d="m1216 423.37c-46.643 0-53.009 40.514-53.009 94.516v100.2h106.02v-100.2c0-58.925-14.339-94.516-53.009-94.516z" fill="#181311" stroke="#fff" stroke-width="2.293"/>
 <path d="m1216.6 407.99c-54.594 0-62.044 46.913-62.044 109.45v116.02h124.09v-116.02c0-68.233-16.784-109.45-62.044-109.45z" fill-opacity="0" stroke="#fff" stroke-width="2.6695"/>
 <rect transform="scale(-1,1)" x="-1169" y="483.07" width="38.52" height="4.9224" fill="#fff"/>
 <rect transform="scale(-1,1)" x="-1167.4" y="557.23" width="35.318" height="12.472" fill="#fff"/>
 <rect transform="scale(-1,1)" x="-1166.9" y="499.6" width="34.239" height="2.3119" fill="#a5a5a5"/>
 <rect transform="scale(-1,1)" x="-1166.9" y="487.71" width="34.239" height="2.3119" fill="#a5a5a5"/>
 <rect transform="scale(-1,1)" x="-1167.2" y="563.12" width="34.239" height="2.3119" fill="#a5a5a5"/>
 <path d="m1092.3 407.95c-51.423 0-58.441 46.929-58.441 109.48v116.07h116.88v-116.07c0-68.257-15.809-109.48-58.441-109.48z" fill-opacity="0" stroke="#fff" stroke-width="2.5913"/>
 <rect transform="scale(-1,1)" x="-1166.9" y="490.61" width="34.239" height="9.5632" fill="#fff"/>
 <g transform="matrix(-1.6857 0 0 2.1219 2196.7 -470.27)">
  <rect x="535.83" y="451.18" width="16.664" height="39.714" fill="#fff" opacity=".96"/>
  <path d="m504.89 420.6c27.667 0 31.442 19.464 31.442 45.408v48.138h-62.885v-48.138c0-28.309 8.5054-45.408 31.442-45.408z" fill="#181311" stroke="#fff" stroke-width="1.2241"/>
  <path d="m504.5 413.21c32.383 0 36.802 22.538 36.802 52.581v55.741h-73.604v-55.741c0-32.781 9.9552-52.581 36.802-52.581z" fill-opacity="0" stroke="#fff" stroke-width="1.4251"/>
  <rect x="532.73" y="449.28" width="22.848" height="2.3648" fill="#fff"/>
  <rect x="533.68" y="484.91" width="20.949" height="5.992" fill="#fff"/>
  <rect x="534" y="457.22" width="20.309" height="1.1107" fill="#a5a5a5"/>
  <rect x="534" y="451.51" width="20.309" height="1.1107" fill="#a5a5a5"/>
  <rect x="533.84" y="487.74" width="20.309" height="1.1107" fill="#a5a5a5"/>
  <rect x="534" y="452.9" width="20.309" height="4.5944" fill="#fff"/>
 </g>
 <rect x="1019.2" y="486.69" width="11.402" height="73.599" fill="#bfc0c3" fill-opacity=".98431"/>
 <g transform="matrix(-1.0657 0 0 1.3371 1172.8 -156.37)" fill="#faf8f7">
  <rect x="111.18" y="484.1" width="26.262" height="49.898"/>
  <rect transform="matrix(0,1,1,0,0,0)" x="477.53" y="105.49" width="7.0032" height="44.646"/>
  <rect transform="matrix(0,1,1,0,0,0)" x="477.53" y="105.49" width="7.0032" height="35.016"/>
  <path transform="matrix(0,1,1,0,0,0)" d="m533.56 140.28h7.3923l-2.1399 9.8483-6.8087-0.21885z"/>
  <rect transform="matrix(0,1,1,0,0,0)" x="533.56" y="105.49" width="7.0032" height="35.016"/>
 </g>
 <rect x="1392.4" y="489.26" width="10.361" height="73.599" fill="#bfc0c3" fill-opacity=".98431"/>
 <g transform="matrix(-1.0438 0 0 1.3384 1543.7 -154.44)" fill="#faf8f7" stroke="#a2a2a2">
  <rect x="111.18" y="484.1" width="26.262" height="49.898"/>
  <rect transform="matrix(0,1,1,0,0,0)" x="477.53" y="105.49" width="7.0032" height="44.646"/>
  <rect transform="matrix(0,1,1,0,0,0)" x="477.53" y="105.49" width="7.0032" height="35.016"/>
  <path transform="matrix(0,1,1,0,0,0)" d="m533.56 140.28h7.3923l-2.1399 9.8483-6.8087-0.21885z"/>
  <rect transform="matrix(0,1,1,0,0,0)" x="533.56" y="105.49" width="7.0032" height="35.016"/>
 </g>
 <path d="m1102.7 255.56c-17.119 0-19.455 19.923-19.455 46.479v49.273h38.91v-49.273c0-28.977-5.2627-46.479-19.455-46.479z" fill="#181311"/>
 <rect transform="scale(-1,1)" x="-771.65" y="450.09" width="5.6942" height="41.199" fill="#bfc0c3" fill-opacity=".98431"/>
 <rect x="611.97" y="492.19" width="16.682" height="24.209" fill="#744035"/>
 <g fill-opacity=".98431" fill-rule="evenodd">
  <path d="m278.91 514.49 500.42-0.73592 270.82 108.92-1008.9-0.73592z" fill="#bdc79f"/>
  <path d="m283.33 517.43 495.27-1.4718 225.19 98.613-925.05-1e-5z" fill="#b3b3b3"/>
  <path d="m539.09 513.97c-0.73592 3.2393-3.6796 105.97-3.6796 105.97l16.926-0.46276-3.6796-105.51z" fill="#bdc7a0"/>
  <path d="m397.59 515.74c-0.73592 3.2393-106.51 96.836-106.51 96.836l16.926-0.46276 99.149-96.374z" fill="#bdc7a0"/>
  <path d="m679.48 515.74c0.73592 3.2393 106.51 96.836 106.51 96.836l-16.926-0.46276-99.149-96.374z" fill="#bdc7a0"/>
 </g>
</svg>
